<svg width="176" height="175" viewBox="0 0 176 175" fill="none" xmlns="http://www.w3.org/2000/svg">
<mask id="mask0_1160_655" style="mask-type:luminance" maskUnits="userSpaceOnUse" x="0" y="152" width="176" height="23">
<path d="M0 152.773H175.984V174.266H0V152.773Z" fill="white"/>
</mask>
<g mask="url(#mask0_1160_655)">
<path d="M172.991 174.38H2.98857C1.35396 174.38 0.03125 173.056 0.03125 171.423V155.957C0.03125 154.323 1.35396 153 2.98857 153H172.991C174.624 153 175.947 154.323 175.947 155.957V171.423C175.947 173.056 174.624 174.38 172.991 174.38ZM5.94463 168.467H170.034V158.914H5.94463V168.467Z" fill="#1374BA"/>
</g>
<path d="M116.022 158.997C114.385 158.997 113.059 157.671 113.059 156.035V57.9242H60.9102V156.039C60.9102 157.675 59.5847 159 57.9479 159C56.3111 159 54.9844 157.675 54.9844 156.039V54.9615C54.9844 53.3251 56.3111 52 57.9479 52H116.022C117.659 52 118.984 53.3251 118.984 54.9615V156.039C118.984 157.675 117.659 159 116.022 159V158.997Z" fill="#1374BA"/>
<path d="M165.001 158.997C163.352 158.997 162.016 157.674 162.016 156.042V39.9078H106.952V55.2268C106.952 56.859 105.617 58.182 103.968 58.182C102.319 58.182 100.984 56.859 100.984 55.2268V36.9539C100.984 35.3217 102.319 34 103.968 34H165.001C166.649 34 167.984 35.3217 167.984 36.9539V156.046C167.984 157.678 166.649 159 165.001 159V158.997Z" fill="#1374BA"/>
<path d="M10.963 158.997C9.3172 158.997 7.98438 157.676 7.98438 156.045V19.3314C7.98438 18.0135 8.86694 16.8557 10.1472 16.4935L68.1899 0.112988C69.0865 -0.14119 70.055 0.0392765 70.8004 0.595927C71.5444 1.15258 71.9844 2.02695 71.9844 2.94962V55.3244C71.9844 56.9549 70.6515 58.2767 69.0044 58.2767C67.3586 58.2767 66.0258 56.9549 66.0258 55.3244V6.86016L13.943 21.5593V156.049C13.943 157.68 12.6089 159 10.963 159V158.997Z" fill="#1374BA"/>
<path d="M99.087 159C97.4861 159 96.1884 157.659 96.1884 156.005V134.108C96.1884 128.527 91.8349 123.988 86.4844 123.988C81.1339 123.988 76.7803 128.527 76.7803 134.108V156.005C76.7803 157.659 75.4839 159 73.883 159C72.2808 159 70.9844 157.659 70.9844 156.005V134.108C70.9844 125.227 77.9395 118 86.4844 118C95.0292 118 101.984 125.227 101.984 134.108V156.005C101.984 157.659 100.688 159 99.087 159Z" fill="#1374BA"/>
<path d="M152.992 159C151.34 159 150.001 157.659 150.001 156.005V134.108C150.001 128.527 145.507 123.988 139.984 123.988C134.461 123.988 129.967 128.527 129.967 134.108V156.005C129.967 157.659 128.628 159 126.975 159C125.323 159 123.984 157.659 123.984 156.005V134.108C123.984 125.227 131.164 118 139.984 118C148.805 118 155.984 125.227 155.984 134.108V156.005C155.984 157.659 154.645 159 152.992 159Z" fill="#1374BA"/>
<path d="M80.0299 85H67.9388C66.3071 85 64.9844 83.6847 64.9844 82.0606V69.9407C64.9844 68.3165 66.3071 67 67.9388 67H80.0299C81.6617 67 82.9844 68.3165 82.9844 69.9407V82.0606C82.9844 83.6847 81.6617 85 80.0299 85ZM70.892 79.1198H77.0768V72.8802H70.892V79.1198Z" fill="#1374BA"/>
<path d="M80.0299 109H67.9388C66.3071 109 64.9844 107.685 64.9844 106.061V93.9407C64.9844 92.3165 66.3071 91 67.9388 91H80.0299C81.6617 91 82.9844 92.3165 82.9844 93.9407V106.061C82.9844 107.685 81.6617 109 80.0299 109ZM70.892 103.121H77.0768V96.8802H70.892V103.121Z" fill="#1374BA"/>
<path d="M105.031 85H92.9377C91.3059 85 89.9844 83.6847 89.9844 82.0606V69.9407C89.9844 68.3165 91.3059 67 92.9377 67H105.031C106.663 67 107.984 68.3165 107.984 69.9407V82.0606C107.984 83.6847 106.663 85 105.031 85ZM95.8924 79.1198H102.076V72.8802H95.8924V79.1198Z" fill="#1374BA"/>
<path d="M105.031 109H92.9377C91.3059 109 89.9844 107.685 89.9844 106.061V93.9407C89.9844 92.3165 91.3059 91 92.9377 91H105.031C106.663 91 107.984 92.3165 107.984 93.9407V106.061C107.984 107.685 106.663 109 105.031 109ZM95.8924 103.121H102.076V96.8802H95.8924V103.121Z" fill="#1374BA"/>
<path d="M48.967 53H20.0017C18.3339 53 16.9844 51.6802 16.9844 50.052V37.9467C16.9844 36.3185 18.3339 35 20.0017 35H48.967C50.6348 35 51.9844 36.3185 51.9844 37.9467V50.052C51.9844 51.6802 50.6348 53 48.967 53ZM23.0177 47.1053H45.951V40.8934H23.0177V47.1053Z" fill="#1374BA"/>
<path d="M154.053 75H125.914C124.295 75 122.984 73.6815 122.984 72.0533V59.948C122.984 58.3198 124.295 57 125.914 57H154.053C155.672 57 156.984 58.3198 156.984 59.948V72.0533C156.984 73.6815 155.672 75 154.053 75ZM128.845 69.1066H151.123V62.8947H128.845V69.1066Z" fill="#1374BA"/>
<path d="M154.053 101H125.914C124.295 101 122.984 99.6815 122.984 98.0533V85.948C122.984 84.3185 124.295 83 125.914 83H154.053C155.672 83 156.984 84.3185 156.984 85.948V98.0533C156.984 99.6815 155.672 101 154.053 101ZM128.845 95.1053H151.123V88.8947H128.845V95.1053Z" fill="#1374BA"/>
<path d="M48.967 81H20.0017C18.3339 81 16.9844 79.6815 16.9844 78.0533V65.9467C16.9844 64.3185 18.3339 63 20.0017 63H48.967C50.6348 63 51.9844 64.3185 51.9844 65.9467V78.0533C51.9844 79.6815 50.6348 81 48.967 81ZM23.0177 75.1053H45.951V68.8947H23.0177V75.1053Z" fill="#1374BA"/>
<path d="M48.967 109H20.0017C18.3339 109 16.9844 107.681 16.9844 106.053V93.948C16.9844 92.3185 18.3339 91 20.0017 91H48.967C50.6348 91 51.9844 92.3185 51.9844 93.948V106.053C51.9844 107.681 50.6348 109 48.967 109ZM23.0177 103.105H45.951V96.8947H23.0177V103.105Z" fill="#1374BA"/>
<path d="M48.967 137H20.0017C18.3339 137 16.9844 135.68 16.9844 134.052V121.948C16.9844 120.32 18.3339 119 20.0017 119H48.967C50.6348 119 51.9844 120.32 51.9844 121.948V134.052C51.9844 135.68 50.6348 137 48.967 137ZM23.0177 131.106H45.951V124.894H23.0177V131.106Z" fill="#1374BA"/>
<path d="M159.023 40C157.386 40 156.061 38.6472 156.061 36.9768V28.7859C156.061 28.2534 154.621 27.0478 152.251 27.0478H117.721C115.348 27.0478 113.908 28.2573 113.908 28.7859V36.9768C113.908 38.6472 112.582 40 110.946 40C109.309 40 107.984 38.6472 107.984 36.9768V28.7859C107.984 24.4203 112.26 21 117.721 21H152.251C157.708 21 161.984 24.4203 161.984 28.7859V36.9768C161.984 38.6472 160.659 40 159.023 40Z" fill="#1374BA"/>
</svg>
