<svg width="197" height="167" viewBox="0 0 197 167" fill="none" xmlns="http://www.w3.org/2000/svg">
<path d="M98.0859 127.301H105.599V134.407H98.0859V127.301Z" fill="#0070BB"/>
<path d="M98.0859 146.839H105.599V153.946H98.0859V146.839Z" fill="#0070BB"/>
<path d="M56.4805 146.591H63.9939V153.698H56.4805V146.591Z" fill="#0070BB"/>
<path d="M77.6016 146.591H85.104V153.698H77.6016V146.591Z" fill="#0070BB"/>
<path d="M77.6016 127.052H85.104V134.159H77.6016V127.052Z" fill="#0070BB"/>
<path d="M56.4805 127.052H63.9939V134.159H56.4805V127.052Z" fill="#0070BB"/>
<path d="M194.564 162.835H184.938V143.466C184.938 134.746 177.439 127.646 168.225 127.646H155.968V116.313H151.293V92.026C151.293 84.6947 144.984 78.724 137.237 78.724H127.487V64.9248C127.487 59.8347 123.119 55.7046 117.744 55.7046C112.373 55.7046 107.997 59.8347 107.997 64.9248V112.497H127.487V82.5434H137.234C142.758 82.5434 147.258 86.8012 147.258 92.026V116.313H52.8492V79.28H67.7994V112.497H92.1605V11.527C92.1605 5.17299 86.7015 0 79.9799 0C73.2584 0 67.7994 5.17299 67.7994 11.527V13.5195H64.9677C60.9173 13.5195 56.9654 14.9181 54.0315 17.5668C50.8167 20.4675 48.8097 24.5458 48.8097 29.0834V75.4607H29.4843C19.6283 75.4607 11.6441 83.0199 11.6441 92.3437V162.835H2.01428C0.901316 162.835 0 163.685 0 164.741C0 165.795 0.901316 166.651 2.01428 166.651H194.564C195.68 166.651 196.578 165.795 196.578 164.741C196.578 163.685 195.68 162.835 194.564 162.835ZM52.8492 29.0834C52.8492 25.7544 54.2614 22.7432 56.553 20.5469C58.6111 18.5751 61.4172 17.4666 64.3401 17.3043H64.351H67.7994V75.4607H52.8492V29.0834ZM52.4478 155.604V144.678C52.4478 143.628 53.3528 142.772 54.4658 142.772H66.0077C67.1243 142.772 68.0293 143.628 68.0293 144.678V155.604C68.0293 156.661 67.1243 157.517 66.0077 157.517H54.4658C53.3528 157.517 52.4478 156.661 52.4478 155.604ZM94.6747 125.143C94.6747 124.086 95.5723 123.237 96.689 123.237H108.235C109.351 123.237 110.256 124.086 110.256 125.143V136.069C110.256 137.126 109.351 137.982 108.235 137.982H96.689C95.5723 137.982 94.6747 137.126 94.6747 136.069V125.143ZM94.6747 144.678C94.6747 143.628 95.5723 142.772 96.689 142.772H108.235C109.351 142.772 110.256 143.628 110.256 144.678V155.604C110.256 156.661 109.351 157.517 108.235 157.517H96.689C95.5723 157.517 94.6747 156.661 94.6747 155.604V144.678ZM73.5613 125.143C73.5613 124.086 74.4662 123.237 75.5792 123.237H87.1211C88.2377 123.237 89.1427 124.086 89.1427 125.143V136.069C89.1427 137.126 88.2377 137.982 87.1211 137.982H75.5792C74.4662 137.982 73.5613 137.126 73.5613 136.069V125.143ZM73.5613 144.678C73.5613 143.628 74.4662 142.772 75.5792 142.772H87.1211C88.2377 142.772 89.1427 143.628 89.1427 144.678V155.604C89.1427 156.661 88.2377 157.517 87.1211 157.517H75.5792C74.4662 157.517 73.5613 156.661 73.5613 155.604V144.678ZM54.4658 123.237H66.0077C67.1243 123.237 68.0293 124.086 68.0293 125.143V136.069C68.0293 137.126 67.1243 137.982 66.0077 137.982H54.4658C53.3528 137.982 52.4478 137.126 52.4478 136.069V125.143C52.4478 124.086 53.3528 123.237 54.4658 123.237ZM36.5708 162.835H15.6763V92.3437C15.6763 85.1402 21.8724 79.28 29.488 79.28H48.8097V116.313H40.603V162.835H36.5708ZM168.849 162.835H155.968V131.469H168.225C175.217 131.469 180.905 136.853 180.905 143.466V162.835H168.849Z" fill="#0070BB"/>
</svg>
