<svg width="176" height="198" viewBox="0 0 176 198" fill="none" xmlns="http://www.w3.org/2000/svg">
<mask id="mask0_1160_658" style="mask-type:luminance" maskUnits="userSpaceOnUse" x="14" y="172" width="149" height="26">
<path d="M14.1094 172.705H162.633V198H14.1094V172.705Z" fill="white"/>
</mask>
<g mask="url(#mask0_1160_658)">
<path d="M161.097 174.21C153.793 171.038 148.588 177.019 143.58 182.816C141.603 185.079 139.576 187.436 137.474 189.111C131 194.273 126.701 189.379 121.741 183.719C118.249 179.734 114.633 175.612 110.016 174.798C105.032 173.937 101.539 177.743 98.1918 181.409C96.7756 182.952 95.3112 184.58 93.7478 185.756C87.3953 190.697 83.3651 186.575 78.675 181.865C74.8883 178.012 70.9545 174.026 65.6553 174.887C61.1352 175.612 57.9831 179.461 54.9045 183.178C53.3412 185.079 51.7042 187.074 49.9225 188.565C43.131 194.226 38.2455 188.975 32.5782 182.858C27.5455 177.423 22.3681 171.81 15.5511 174.073C14.6958 174.346 14.1096 175.885 14.2822 177.47C14.4268 179.056 15.2593 180.096 16.112 179.823C21.8046 177.969 26.2765 182.816 31.0148 187.93C36.8775 194.273 42.961 200.841 51.2423 193.958C53.2447 192.278 54.9781 190.198 56.6405 188.161C59.4982 184.669 62.2087 181.409 65.9218 180.778C70.2718 180.054 73.6168 183.446 77.1344 187.027C81.8245 191.784 87.1745 197.218 94.9204 191.191C96.6792 189.836 98.2425 188.114 99.7551 186.481C102.955 182.994 105.717 179.96 109.673 180.642C113.559 181.319 116.709 184.895 120.056 188.702C123.721 192.871 127.482 197.171 132.172 197.171C134.175 197.171 136.324 196.4 138.695 194.499C141.017 192.64 143.167 190.198 145.243 187.798C149.908 182.406 154.329 177.287 160.364 179.917C161.219 180.279 162.049 179.329 162.27 177.743C162.488 176.158 161.95 174.572 161.097 174.21Z" fill="#0070BB"/>
</g>
<path d="M69.544 102.97L25.4469 113.047C24.3191 113.303 23.5795 114.552 23.8037 115.84C23.9978 116.982 24.8679 117.754 25.8317 117.754C25.9623 117.754 26.0894 117.754 26.2534 117.716L70.3505 107.676C71.4783 107.42 72.2179 106.171 71.9936 104.884C71.7661 103.596 70.6718 102.714 69.544 102.97Z" fill="#0070BB"/>
<path d="M29.4851 171.379C29.8397 172.213 30.5791 172.705 31.3519 172.705C31.6764 172.705 31.9976 172.63 32.2853 172.442C33.3158 171.836 33.7039 170.361 33.1886 169.149L5.23638 104.738L85.9684 85.4262V169.562C85.9684 170.927 86.9018 172.025 88.0594 172.025C89.2203 172.025 90.1537 170.927 90.1537 169.562V85.4262L170.852 104.738L143.833 167.292C143.318 168.504 143.74 169.979 144.737 170.585C145.767 171.191 147.022 170.699 147.537 169.527L175.78 104.132C176.068 103.452 176.068 102.657 175.81 101.972C175.523 101.292 174.974 100.8 174.362 100.647L147.119 94.136C147.152 93.9825 147.182 93.7937 147.182 93.6049V36.881C147.182 35.5198 146.249 34.4222 145.091 34.4222H130.18V22.0027C130.18 20.6376 129.247 19.54 128.089 19.54H114.499V2.46267C114.499 1.10151 113.566 0 112.405 0H63.6501C62.4925 0 61.5591 1.10151 61.5591 2.46267V19.5794H48.0329C46.8754 19.5794 45.942 20.6769 45.942 22.0381V34.4576H30.9672C29.8063 34.4576 28.8728 35.5592 28.8728 36.9203V93.6049C28.8728 93.7937 28.9063 93.9471 28.9063 94.136L1.66331 100.647C1.01761 100.8 0.472283 101.292 0.214673 101.972C-0.0763907 102.657 -0.0763913 103.452 0.244784 104.132L29.4851 171.379ZM65.7109 4.88599H110.344V19.54H65.7109V4.88599ZM50.1273 24.4614H126.058V34.4576H50.1273V24.4614ZM33.0582 39.3436H143.03V93.1131L88.4809 80.0484C88.2233 79.9737 87.9322 79.9737 87.6412 80.0484L33.0582 93.1131V39.3436Z" fill="#0070BB"/>
<path d="M98.0257 56.2615C98.0257 55.0518 97.094 54.0791 95.9353 54.0791H79.3194C78.1641 54.0791 77.2324 55.0518 77.2324 56.2615C77.2324 57.4677 78.1641 58.4403 79.3194 58.4403H95.9353C97.094 58.4403 98.0257 57.4677 98.0257 56.2615Z" fill="#0070BB"/>
<path d="M65.4914 54.0791H48.8755C47.7168 54.0791 46.7852 55.0518 46.7852 56.258C46.7852 57.4677 47.7168 58.4403 48.8755 58.4403H65.4914C66.6468 58.4403 67.5784 57.4677 67.5784 56.258C67.5784 55.0518 66.6468 54.0791 65.4914 54.0791Z" fill="#0070BB"/>
<path d="M110.509 58.4403H127.128C128.283 58.4403 129.215 57.4677 129.215 56.2615C129.215 55.0518 128.283 54.0791 127.128 54.0791H110.509C109.354 54.0791 108.422 55.0518 108.422 56.2615C108.422 57.4677 109.354 58.4403 110.509 58.4403Z" fill="#0070BB"/>
</svg>
