<svg width="222" height="178" viewBox="0 0 222 178" fill="none" xmlns="http://www.w3.org/2000/svg">
<mask id="mask0_1160_653" style="mask-type:luminance" maskUnits="userSpaceOnUse" x="0" y="137" width="222" height="19">
<path d="M0 137.328H222V155.477H0V137.328Z" fill="white"/>
</mask>
<g mask="url(#mask0_1160_653)">
<path d="M219.057 155.132H2.832C1.2735 155.132 0 153.872 0 152.331C0 150.791 1.2735 149.53 2.832 149.53H129.585V140.193C129.585 138.651 130.86 137.391 132.417 137.391H209.384C210.941 137.391 212.216 138.651 212.216 140.193V149.53H219.104C220.663 149.53 221.936 150.791 221.936 152.331C221.936 153.872 220.663 155.132 219.057 155.132ZM135.2 149.53H206.505V142.993H135.2V149.53Z" fill="#1374BA"/>
</g>
<path d="M181.499 155C180.125 155 179 153.722 179 152.16V140.84C179 139.278 180.125 138 181.499 138C182.875 138 184 139.278 184 140.84V152.16C184 153.722 182.875 155 181.499 155Z" fill="#1374BA"/>
<path d="M202.131 143H144.871C143.293 143 142 141.758 142 140.241V126.759C142 125.242 143.293 124 144.871 124H202.131C203.709 124 205 125.242 205 126.759V140.241C205 141.758 203.709 143 202.131 143ZM147.74 137.48H199.26V129.52H147.74V137.48Z" fill="#1374BA"/>
<path d="M202.155 129H159.846C158.282 129 157 127.68 157 126.066V113.934C157 112.32 158.282 111 159.846 111H202.155C203.72 111 205 112.32 205 113.934V126.066C205 127.68 203.72 129 202.155 129ZM162.693 123.131H199.309V116.869H162.693V123.131Z" fill="#1374BA"/>
<path d="M202.155 116H169.847C168.282 116 167 114.738 167 113.195V89.807C167 88.2639 168.282 87 169.847 87H202.155C203.72 87 205 88.2639 205 89.807V113.195C205 114.738 203.72 116 202.155 116ZM172.694 110.388H199.308V92.614H172.694V110.388Z" fill="#1374BA"/>
<path d="M202.155 116H169.847C168.282 116 167 114.748 167 113.217V100.784C167 99.252 168.282 98 169.847 98H202.155C203.72 98 205 99.252 205 100.784V113.217C205 114.748 203.72 116 202.155 116ZM172.694 110.433H199.308V103.567H172.694V110.433Z" fill="#1374BA"/>
<path d="M183 93C181.351 93 180 91.7201 180 90.1574V50.8426C180 49.2783 181.351 48 183 48C184.649 48 186 49.2783 186 50.8426V90.1574C186 91.7675 184.649 93 183 93Z" fill="#1374BA"/>
<path d="M204.197 53H160.802C159.261 53 158 51.7084 158 50.1279V36.8721C158 35.2916 159.261 34 160.802 34H204.197C205.739 34 207 35.2916 207 36.8721V50.1279C207 51.7084 205.739 53 204.197 53ZM163.605 47.2574H201.395V39.7426H163.605V47.2574Z" fill="#1374BA"/>
<path d="M204.222 39C203.943 39 203.663 38.954 203.382 38.8621C202.588 38.6324 201.514 38.3122 182.457 18.7492L162.793 38.1744C161.719 39.2298 159.945 39.2757 158.823 38.1744C157.749 37.1174 157.703 35.3726 158.823 34.2713L180.496 12.8256C181.01 12.3201 181.756 12 182.504 12C183.252 12 183.998 12.3201 184.512 12.8716C193.481 22.1024 203.756 32.4346 205.531 33.7658C206.698 34.3632 207.259 35.7403 206.885 36.9795C206.511 38.2203 205.391 39 204.222 39Z" fill="#1374BA"/>
<path d="M60.0696 97C57.9669 97 55.8642 96.251 54.1824 94.8013C52.2668 93.1644 51.0994 90.7316 51.0059 88.1583C50.9124 85.5851 51.9395 83.1539 53.7616 81.375L107.31 29.7779C108.431 28.7028 110.206 28.7496 111.282 29.8716C112.356 30.9951 112.309 32.7725 111.188 33.8476L57.688 85.4447C56.9865 86.1469 56.6124 87.0364 56.6124 88.0179C56.6592 89.001 57.08 89.8889 57.8282 90.5443C59.1359 91.6663 61.1451 91.6663 62.406 90.4507L108.29 48.0682C109.413 47.0399 111.188 47.0867 112.262 48.2087C113.291 49.3322 113.244 51.1096 112.122 52.1848L66.2373 94.5672C64.5087 96.2041 62.2658 97 60.0696 97Z" fill="#1374BA"/>
<path d="M91.1664 155C89.6087 155 88.3345 153.733 88.3345 152.184V137.156H68.8336C67.2758 137.156 66 135.889 66 134.338V86.8165C66 85.2672 67.2758 84 68.8336 84C70.3913 84 71.6671 85.2672 71.6671 86.8165V131.522H91.1664C92.7258 131.522 94 132.789 94 134.338V152.184C94 153.733 92.7258 155 91.1664 155Z" fill="#1374BA"/>
<path d="M117.266 155H102.734C101.231 155 100 153.743 100 152.207V119.795C100 118.257 101.231 117 102.734 117H117.266C118.769 117 120 118.257 120 119.795V152.207C120 153.743 118.815 155 117.266 155ZM105.468 149.412H114.532V122.588H105.468V149.412Z" fill="#1374BA"/>
<path d="M98.2344 111H83.764C82.2436 111 81 109.755 81 108.234V93.764C81 92.2436 82.2436 91 83.764 91H98.2344C99.7548 91 101 92.2436 101 93.764V108.234C101 109.755 99.7548 111 98.2344 111ZM86.5296 105.469H95.4688V96.5296H86.5296V105.469Z" fill="#1374BA"/>
<path d="M160.965 97C158.766 97 156.567 96.2041 154.836 94.614L108.897 52.2316C107.775 51.2032 107.681 49.4259 108.756 48.2555C109.786 47.1335 111.564 47.0399 112.732 48.115L158.672 90.4975C159.983 91.6663 161.948 91.7131 163.257 90.5911C164.006 89.9357 164.426 89.0478 164.473 88.0647C164.52 87.0832 164.147 86.1469 163.398 85.4915L109.739 33.8476C108.616 32.7725 108.569 30.9951 109.646 29.8716C110.721 28.7496 112.498 28.7028 113.622 29.7779L167.233 81.375C169.058 83.1539 170.088 85.6319 169.994 88.1583C169.9 90.7316 168.777 93.1176 166.812 94.8013C165.175 96.2978 163.07 97 160.965 97Z" fill="#1374BA"/>
<path d="M137.234 111H122.764C121.244 111 120 109.755 120 108.234V93.764C120 92.2436 121.244 91 122.764 91H137.234C138.756 91 140 92.2436 140 93.764V108.234C140 109.755 138.756 111 137.234 111ZM125.483 105.469H134.424V96.5296H125.483V105.469Z" fill="#1374BA"/>
<mask id="mask1_1160_653" style="mask-type:luminance" maskUnits="userSpaceOnUse" x="0" y="131" width="74" height="25">
<path d="M0 131.553H73.8665V155.476H0V131.553Z" fill="white"/>
</mask>
<g mask="url(#mask1_1160_653)">
<path d="M2.832 155.132C1.2735 155.132 0 153.872 0 152.331V134.589C0 133.048 1.2735 131.788 2.832 131.788H70.6436C72.2021 131.788 73.4756 133.048 73.4756 134.589C73.4756 136.131 72.2021 137.391 70.6436 137.391H5.66237V152.331C5.66237 153.872 4.38886 155.132 2.832 155.132Z" fill="#1374BA"/>
</g>
<path d="M37.1006 155H26.8994C25.3046 155 24 153.759 24 152.241V134.759C24 133.241 25.3046 132 26.8994 132H37.1006C38.6954 132 40 133.241 40 134.759V152.241C40 153.759 38.6954 155 37.1006 155ZM29.8004 149.48H34.1996V137.52H29.8004V149.48Z" fill="#1374BA"/>
<path d="M19 154C17.3508 154 16 152.715 16 151.142V144.856C16 143.285 17.3508 142 19 142C20.6492 142 22 143.285 22 144.856V151.142C22 152.763 20.6492 154 19 154Z" fill="#1374BA"/>
<path d="M56.0009 153C54.3494 153 53 151.803 53 150.34V144.662C53 143.197 54.3494 142 56.0009 142C57.6506 142 59 143.197 59 144.662V150.34C59 151.803 57.7006 153 56.0009 153Z" fill="#1374BA"/>
<path d="M65.9991 155C64.3494 155 63 153.759 63 152.241V134.759C63 133.241 64.3494 132 65.9991 132C67.6506 132 69 133.241 69 134.759V152.241C69 153.759 67.6506 155 65.9991 155Z" fill="#1374BA"/>
<path d="M80.9991 155C79.3494 155 78 153.786 78 152.302V144.7C78 143.214 79.3494 142 80.9991 142C82.6488 142 84 143.214 84 144.7V152.302C84 153.786 82.6989 155 80.9991 155Z" fill="#1374BA"/>
<path d="M57.1903 137H10.8577C9.28505 137 8 135.765 8 134.253V106.747C8 105.237 9.28505 104 10.8577 104H57.1427C58.7137 104 59.9987 105.237 59.9987 106.747V134.253C60.0464 135.765 58.7613 137 57.1903 137ZM13.7137 131.508H54.285V109.493H13.7137V131.508Z" fill="#1374BA"/>
<path d="M48 127C46.3508 127 45 125.677 45 124.06V114.942C45 113.325 46.3508 112 48 112C49.6492 112 51 113.325 51 114.942V124.06C51 125.726 49.6993 127 48 127Z" fill="#1374BA"/>
<path d="M37.1024 123H22.8976C21.3038 123 20 121.875 20 120.499C20 119.125 21.3038 118 22.8976 118H37.1024C38.6962 118 40 119.125 40 120.499C40 121.875 38.6962 123 37.1024 123Z" fill="#1374BA"/>
<path d="M41.1504 110H25.8513C24.2838 110 23 108.737 23 107.195V31.8033C23 30.2613 24.2838 29 25.8513 29H41.1504C42.7178 29 44 30.2613 44 31.8033V107.148C44 108.737 42.7178 110 41.1504 110ZM28.7009 104.39H38.2991V34.6083H28.7009V104.39Z" fill="#1374BA"/>
<path d="M25.8873 60C25.4026 60 24.9179 59.9056 24.4817 59.6239C23.0777 58.8684 22.593 57.1229 23.3685 55.7536L38.1886 30.1823V22.5378L27.4367 8.52523C26.4673 7.25196 26.7581 5.50487 28.0183 4.56213C29.3253 3.61776 31.117 3.90107 32.0864 5.12875L43.4184 19.8968C43.8061 20.3673 44 20.9812 44 21.595V30.9362C44 31.4083 43.8546 31.8805 43.6122 32.3055L28.4044 58.5379C27.8729 59.4822 26.9035 60 25.8873 60Z" fill="#1374BA"/>
<path d="M41.2079 60C40.2063 60 39.2523 59.4824 38.7292 58.5384L23.7632 32.315C23.5247 31.9374 23.4293 31.4654 23.3816 31.0406L23 21.7027C23 21.4195 23 21.089 23.0954 20.8058L27.2896 6.04291C27.7189 4.53406 29.2914 3.68442 30.8161 4.10924C32.3425 4.53406 33.1994 6.09011 32.7718 7.59895L28.6713 21.8915L29.0052 30.0982L43.6373 55.7551C44.4005 57.1239 43.9235 58.8216 42.5419 59.624C42.1603 59.9056 41.6833 60 41.2079 60Z" fill="#1374BA"/>
<path d="M25.8833 84C25.3993 84 24.9152 83.9083 24.4796 83.6332C23.0776 82.8995 22.5936 81.2046 23.368 79.8765L38.5547 54.4017C39.3275 53.0735 41.1184 52.615 42.5204 53.3486C43.9224 54.0807 44.4064 55.7756 43.632 57.1054L28.4453 82.5786C27.8661 83.4956 26.8981 84 25.8833 84Z" fill="#1374BA"/>
<path d="M41.07 84C40.0535 84 39.0855 83.4956 38.5547 82.5786L23.368 57.1054C22.5936 55.7756 23.0776 54.1265 24.4796 53.3486C25.8833 52.615 27.6241 53.0735 28.4453 54.4017L43.632 79.8765C44.4064 81.2046 43.9224 82.8537 42.5204 83.6332C42.0364 83.9083 41.5523 84 41.07 84Z" fill="#1374BA"/>
<path d="M25.8833 109C25.3993 109 24.9152 108.905 24.4796 108.621C23.0776 107.864 22.5936 106.114 23.368 104.743L38.5547 78.4469C39.3275 77.0759 41.1184 76.6026 42.5204 77.3599C43.9224 78.1172 44.4064 79.8668 43.632 81.2378L28.4453 107.534C27.8661 108.479 26.8981 109 25.8833 109Z" fill="#1374BA"/>
<path d="M41.07 109C40.0535 109 39.0855 108.479 38.5547 107.534L23.368 81.2378C22.5936 79.8668 23.0776 78.1645 24.4796 77.3599C25.8833 76.6026 27.6241 77.0759 28.4453 78.4469L43.632 104.743C44.4064 106.114 43.9224 107.817 42.5204 108.621C42.0364 108.905 41.5523 109 41.07 109Z" fill="#1374BA"/>
<path d="M89.1837 33H13.8147C12.2665 33 11 31.7489 11 30.2195V21.7821C11 20.2511 12.2665 19 13.8147 19H89.1837C90.7319 19 92 20.2511 92 21.7821V30.2195C92 31.7489 90.7319 33 89.1837 33ZM16.6311 27.4374H86.3673V24.5626H16.6311V27.4374Z" fill="#1374BA"/>
<path d="M79.0941 49H71.9552C70.3289 49 69 47.7864 69 46.3028C69 44.8192 70.3289 43.6041 71.9552 43.6041H72.4463V30.6987C72.4463 29.2136 73.7769 28 75.4014 28C77.026 28 78.3566 29.2136 78.3566 30.6987V43.6041H79.0448C80.6711 43.6041 82 44.8192 82 46.3028C82 47.7864 80.7204 49 79.0941 49Z" fill="#1374BA"/>
<mask id="mask2_1160_653" style="mask-type:luminance" maskUnits="userSpaceOnUse" x="10" y="0" width="73" height="26">
<path d="M10.9141 0H82.2042V25.1351H10.9141V0Z" fill="white"/>
</mask>
<g mask="url(#mask2_1160_653)">
<path d="M78.9966 24.8224C78.6204 24.8224 78.2426 24.729 77.8648 24.5888L34.9679 6.4271L16.0445 24.0764C14.9126 25.1495 13.1196 25.1028 12.0334 23.9362C10.9488 22.8148 10.996 21.0409 12.1751 19.9678L32.4209 1.0585C33.2221 0.310896 34.45 0.0772693 35.4874 0.544524L80.0828 19.4538C81.498 20.0613 82.2064 21.695 81.5924 23.1419C81.1202 24.2166 80.0828 24.8224 78.9966 24.8224Z" fill="#1374BA"/>
</g>
<path d="M148.86 112H148.813C147.24 111.954 146 110.703 146 109.174C146.239 98.975 146.334 87.5736 146.143 85.5805C145.857 84.6064 146.048 83.5411 146.859 82.799C147.954 81.7337 149.765 81.7337 150.91 82.799C151.91 83.7731 152.101 83.9586 151.958 97.2603C151.91 103.286 151.767 109.265 151.767 109.358C151.673 110.796 150.385 112 148.86 112Z" fill="#1374BA"/>
<path d="M198.12 166H21.834C20.276 166 19 164.651 19 163.001C19 161.349 20.276 160 21.834 160H198.168C199.726 160 201 161.349 201 163.001C201 164.651 199.678 166 198.12 166Z" fill="#1374BA"/>
<path d="M183.107 178H36.8436C35.2795 178 34 176.875 34 175.501C34 174.125 35.2795 173 36.8436 173H183.155C184.719 173 186 174.125 186 175.501C186 176.875 184.671 178 183.107 178Z" fill="#1374BA"/>
</svg>
