<svg width="187" height="180" viewBox="0 0 187 180" fill="none" xmlns="http://www.w3.org/2000/svg">
<mask id="mask0_1160_656" style="mask-type:luminance" maskUnits="userSpaceOnUse" x="115" y="135" width="61" height="45">
<path d="M115.135 135.557H175.176V179.385H115.135V135.557Z" fill="white"/>
</mask>
<g mask="url(#mask0_1160_656)">
<path d="M167.336 179.6C166.163 179.6 165.213 178.669 165.213 177.521C165.213 176.372 166.163 175.441 167.336 175.441C168.239 175.441 168.962 175.116 169.552 174.457C170.143 173.791 170.373 173.048 170.252 172.167L165.62 138.713C165.464 137.572 166.281 136.53 167.438 136.369C168.603 136.22 169.674 137.016 169.83 138.15L174.462 171.608C174.751 173.684 174.157 175.614 172.75 177.187C171.351 178.769 169.478 179.6 167.336 179.6ZM123.2 179.6C121.066 179.6 119.193 178.769 117.786 177.191C116.383 175.617 115.792 173.688 116.078 171.612L120.71 138.154C120.866 137.016 121.937 136.224 123.098 136.373C124.263 136.53 125.072 137.575 124.916 138.717L120.284 172.171C120.163 173.048 120.389 173.795 120.984 174.461C121.574 175.127 122.301 175.445 123.2 175.445C124.373 175.445 125.323 176.379 125.323 177.524C125.323 178.673 124.373 179.6 123.2 179.6Z" fill="#0070BB"/>
</g>
<path d="M171.79 169.852H118.75C117.577 169.852 116.627 168.922 116.627 167.773C116.627 166.628 117.577 165.694 118.75 165.694H171.79C172.959 165.694 173.913 166.628 173.913 167.773C173.913 168.922 172.959 169.852 171.79 169.852Z" fill="#0070BB"/>
<path d="M145.269 150.266C127.381 150.266 112.832 136.014 112.832 118.492C112.832 117.343 113.782 116.413 114.955 116.413C116.127 116.413 117.077 117.343 117.077 118.492C117.077 133.716 129.727 146.107 145.269 146.107C160.811 146.107 173.456 133.716 173.456 118.492C173.456 117.343 174.41 116.413 175.579 116.413C176.751 116.413 177.701 117.343 177.701 118.492C177.701 136.01 163.152 150.266 145.269 150.266Z" fill="#0070BB"/>
<path d="M177.796 120.571H112.739C109.026 120.571 106 117.611 106 113.973C106 110.332 109.026 107.372 112.739 107.372H177.8C181.517 107.372 184.539 110.332 184.539 113.973C184.539 117.611 181.517 120.571 177.796 120.571ZM112.739 111.526C111.363 111.526 110.249 112.622 110.249 113.966C110.249 115.313 111.363 116.408 112.739 116.408H177.8C179.176 116.408 180.294 115.313 180.294 113.966C180.294 112.622 179.176 111.526 177.8 111.526H112.739Z" fill="#0070BB"/>
<path d="M166.619 111.53C166.35 111.53 166.084 111.481 165.822 111.377C164.731 110.945 164.211 109.731 164.653 108.67C166.627 103.91 167.667 98.4808 167.667 92.967C167.667 75.6365 157.617 61.5378 145.268 61.5378C132.916 61.5378 122.87 75.6365 122.87 92.967C122.87 98.4808 123.914 103.91 125.884 108.67C126.326 109.735 125.802 110.945 124.715 111.377C123.628 111.81 122.393 111.297 121.952 110.232C119.774 104.986 118.625 99.0131 118.625 92.967C118.625 73.3467 130.579 57.3794 145.272 57.3794C159.966 57.3794 171.916 73.339 171.916 92.967C171.916 99.0131 170.767 104.986 168.589 110.232C168.253 111.04 167.46 111.53 166.619 111.53Z" fill="#0070BB"/>
<path d="M177.795 111.527C176.626 111.527 175.672 110.597 175.672 109.448V62.8403C175.672 57.4298 171.181 53.0302 165.657 53.0302H124.875C119.352 53.0302 114.86 57.4298 114.86 62.8403V109.452C114.86 110.601 113.91 111.531 112.738 111.531C111.565 111.531 110.615 110.601 110.615 109.452V62.8403C110.615 55.14 117.014 48.8718 124.875 48.8718H165.657C173.522 48.8718 179.917 55.14 179.917 62.8403V109.452C179.917 110.601 178.971 111.527 177.795 111.527Z" fill="#0070BB"/>
<path d="M157.663 160.061H132.869C131.7 160.061 130.746 159.126 130.746 157.982C130.746 156.833 131.7 155.902 132.869 155.902H157.663C158.836 155.902 159.786 156.833 159.786 157.982C159.786 159.126 158.836 160.061 157.663 160.061Z" fill="#0070BB"/>
<path d="M153.051 135.421H137.486C136.313 135.421 135.363 134.486 135.363 133.341C135.363 132.193 136.313 131.258 137.486 131.258H153.051C154.22 131.258 155.174 132.193 155.174 133.341C155.174 134.486 154.22 135.421 153.051 135.421Z" fill="#0070BB"/>
<mask id="mask1_1160_656" style="mask-type:luminance" maskUnits="userSpaceOnUse" x="103" y="174" width="84" height="6">
<path d="M103.125 174.768H186.878V179.386H103.125V174.768Z" fill="white"/>
</mask>
<g mask="url(#mask1_1160_656)">
<path d="M184.72 179.601H105.814C104.641 179.601 103.691 178.671 103.691 177.522C103.691 176.373 104.641 175.443 105.814 175.443H184.72C185.893 175.443 186.843 176.373 186.843 177.522C186.843 178.671 185.893 179.601 184.72 179.601Z" fill="#0070BB"/>
</g>
<mask id="mask2_1160_656" style="mask-type:luminance" maskUnits="userSpaceOnUse" x="31" y="125" width="34" height="55">
<path d="M31.0762 125.756H64.0991V179.386H31.0762V125.756Z" fill="white"/>
</mask>
<g mask="url(#mask2_1160_656)">
<path d="M61.0025 179.6H34.187C33.0143 179.6 32.0645 178.67 32.0645 177.521V128.838C32.0645 127.693 33.0143 126.759 34.187 126.759C35.3597 126.759 36.3096 127.693 36.3096 128.838V175.446H58.8799V128.643C58.8799 127.498 59.8298 126.564 61.0025 126.564C62.1752 126.564 63.1251 127.498 63.1251 128.643V177.521C63.1251 178.674 62.1752 179.6 61.0025 179.6Z" fill="#0070BB"/>
</g>
<path d="M47.0798 132.97C39.9616 132.97 32.9646 131.224 26.2802 127.774C24.7675 126.993 23.6573 125.687 23.1491 124.087C22.6449 122.49 22.8013 120.794 23.5987 119.312C24.1694 118.251 25.0294 117.378 26.0926 116.789C27.1128 116.222 28.4067 116.566 28.9891 117.57C29.5677 118.569 29.212 119.837 28.1956 120.407C27.8399 120.602 27.5546 120.897 27.3591 121.253C27.0894 121.755 27.0347 122.322 27.2067 122.861C27.3747 123.398 27.75 123.838 28.2582 124.098C34.4969 127.315 41.0131 128.9 47.6232 128.812C53.8345 128.724 60.2999 127.154 66.8435 124.14C67.3673 123.899 67.7621 123.478 67.9576 122.957C68.153 122.429 68.1257 121.858 67.8833 121.349C67.6957 120.951 67.3869 120.629 67.0038 120.415C65.9836 119.848 65.6239 118.581 66.1986 117.581C66.7771 116.586 68.071 116.23 69.0912 116.796C70.2482 117.436 71.1629 118.404 71.7258 119.591C72.449 121.104 72.5272 122.804 71.9447 124.378C71.3623 125.952 70.1896 127.208 68.6456 127.912C61.5508 131.178 54.4951 132.882 47.6779 132.974C47.4824 132.97 47.2792 132.97 47.0798 132.97Z" fill="#0070BB"/>
<mask id="mask3_1160_656" style="mask-type:luminance" maskUnits="userSpaceOnUse" x="0" y="83" width="97" height="42">
<path d="M0 83.6047H96.1214V124.775H0V83.6047Z" fill="white"/>
</mask>
<g mask="url(#mask3_1160_656)">
<path d="M47.5955 124.599C21.3547 124.599 0.0078125 107.184 0.0078125 85.7835C0.0078125 84.6348 0.95769 83.7043 2.13038 83.7043H93.0646C94.2373 83.7043 95.1871 84.6348 95.1871 85.7835C95.1871 107.184 73.8364 124.599 47.5955 124.599ZM4.33112 87.8627C5.67972 106.009 24.5717 120.437 47.5955 120.437C70.6193 120.437 89.5113 106.009 90.8599 87.8627H4.33112Z" fill="#0070BB"/>
</g>
<path d="M54.5911 87.8622C53.4184 87.8622 52.4685 86.9318 52.4685 85.783V58.8492C52.4685 55.7821 51.2411 52.8912 49.013 50.7086C46.7849 48.526 43.8297 47.3237 40.6986 47.3237C37.5714 47.3237 34.6163 48.526 32.3882 50.7086C30.6213 52.4393 29.4877 54.6104 29.089 56.9615H31.8878C32.2513 55.3341 33.0879 53.8255 34.327 52.6116C36.0391 50.9383 38.3024 50.0194 40.6947 50.0194C43.0948 50.0194 45.3581 50.9422 47.0624 52.6116C48.7745 54.2888 49.7127 56.502 49.7127 58.8492V85.783C49.7127 86.9318 48.7628 87.8622 47.5901 87.8622C46.4174 87.8622 45.4675 86.9318 45.4675 85.783V58.8492C45.4675 57.6124 44.9672 56.4407 44.0603 55.5524C43.1534 54.664 41.9573 54.1777 40.6947 54.1777C39.436 54.1777 38.2321 54.6679 37.3291 55.5524C36.4183 56.4446 35.9219 57.6124 35.9219 58.8492C35.9219 58.9564 35.918 59.056 35.914 59.1556C35.8515 60.2583 34.9212 61.1199 33.7954 61.1199H26.814C25.6843 61.1199 24.754 60.2583 24.6953 59.1556C24.6914 59.056 24.6836 58.9526 24.6836 58.8492C24.6836 54.6717 26.3527 50.7392 29.3861 47.7678C32.4155 44.8003 36.4378 43.1653 40.6986 43.1653C44.9672 43.1653 48.9817 44.8003 52.0151 47.7678C55.0445 50.7392 56.7136 54.6717 56.7136 58.8492V85.783C56.7136 86.9318 55.7638 87.8622 54.5911 87.8622Z" fill="#0070BB"/>
<path d="M26.3218 87.863C25.1491 87.863 24.1992 86.9325 24.1992 85.7838V75.315C24.1992 74.1701 25.1491 73.2358 26.3218 73.2358C27.4906 73.2358 28.4444 74.1701 28.4444 75.315V85.7838C28.4444 86.9325 27.4906 87.863 26.3218 87.863Z" fill="#0070BB"/>
<path d="M31.6612 77.3942H20.9741C19.8014 77.3942 18.8516 76.4638 18.8516 75.315C18.8516 74.1701 19.8014 73.2358 20.9741 73.2358H31.6612C32.8339 73.2358 33.7838 74.1701 33.7838 75.315C33.7838 76.4638 32.8378 77.3942 31.6612 77.3942Z" fill="#0070BB"/>
<path d="M68.8765 87.863C67.7038 87.863 66.7539 86.9325 66.7539 85.7838V75.315C66.7539 74.1701 67.7038 73.2358 68.8765 73.2358C70.0453 73.2358 70.999 74.1701 70.999 75.315V85.7838C70.999 86.9325 70.0453 87.863 68.8765 87.863Z" fill="#0070BB"/>
<path d="M74.2159 77.3942H63.5288C62.3561 77.3942 61.4062 76.4638 61.4062 75.315C61.4062 74.1701 62.3561 73.2358 63.5288 73.2358H74.2159C75.3886 73.2358 76.3385 74.1701 76.3385 75.315C76.3385 76.4638 75.3886 77.3942 74.2159 77.3942Z" fill="#0070BB"/>
<mask id="mask4_1160_656" style="mask-type:luminance" maskUnits="userSpaceOnUse" x="57" y="0" width="67" height="44">
<path d="M57.0938 0H123.14V43.4142H57.0938V0Z" fill="white"/>
</mask>
<g mask="url(#mask4_1160_656)">
<path d="M120.52 42.6457H60.1265C58.9538 42.6457 58.0039 41.7152 58.0039 40.5665V2.11093C58.0039 0.962207 58.9538 0.0317383 60.1265 0.0317383H120.52C121.693 0.0317383 122.643 0.962207 122.643 2.11093V40.5627C122.643 41.7152 121.693 42.6457 120.52 42.6457ZM62.249 38.4873H118.397V4.19013H62.249V38.4873Z" fill="#0070BB"/>
</g>
</svg>
