<svg width="177" height="128" viewBox="0 0 177 128" fill="none" xmlns="http://www.w3.org/2000/svg">
<path d="M135.703 100.35C136.395 100.35 137.087 100.087 137.615 99.558L140.067 97.1061H157.692C159.185 97.1061 160.395 95.8952 160.395 94.4028V76.778L163.208 73.9648C164.264 72.9093 164.264 71.1972 163.208 70.1424C162.152 69.086 160.441 69.086 159.385 70.1424L142.012 87.5149V78.7218H146.075C147.568 78.7218 148.778 77.5118 148.778 76.0185C148.778 74.5261 147.568 73.3152 146.075 73.3152H139.308C137.815 73.3152 136.605 74.5261 136.605 76.0185V92.9224L133.792 95.7347C132.736 96.7912 132.736 98.5024 133.792 99.558C134.319 100.087 135.011 100.35 135.703 100.35ZM154.988 91.6986H145.474L154.988 82.1855V91.6986Z" fill="#1374BA"/>
<mask id="mask0_1160_654" style="mask-type:luminance" maskUnits="userSpaceOnUse" x="0" y="0" width="177" height="128">
<path d="M0 0H177V127.093H0V0Z" fill="white"/>
</mask>
<g mask="url(#mask0_1160_654)">
<path d="M176.335 47.5519L162.717 31.1943C161.942 30.2633 160.643 29.9581 159.533 30.4469L148.633 35.2566L138.665 28.1821C137.847 27.602 136.776 27.5192 135.879 27.9675L124.895 33.4599L111.373 33.1375L100.936 23.6777C100.561 23.3371 100.097 23.1173 99.6031 23.0268C99.5048 23.0069 99.4074 22.9932 99.3091 22.9845C99.2953 22.9837 99.2815 22.9794 99.2669 22.9785L88.7035 22.3768L87.4466 15.1825L88.1802 13.5592H99.8186L111.666 25.407C112.197 25.9372 112.892 26.2019 113.586 26.2019C114.281 26.2019 114.977 25.9372 115.507 25.407C116.568 24.3458 116.568 22.6268 115.507 21.5664L107.5 13.5592H118.286L130.134 25.407C130.664 25.9372 131.359 26.2019 132.053 26.2019C132.748 26.2019 133.444 25.9372 133.974 25.407C135.035 24.3458 135.035 22.6268 133.974 21.5664L125.967 13.5592H136.692L148.571 25.4372C149.101 25.9674 149.796 26.2329 150.491 26.2329C151.186 26.2329 151.881 25.9674 152.412 25.4372C153.472 24.3768 153.472 22.6569 152.412 21.5965L139.738 8.92278C139.229 8.41327 138.538 8.12706 137.818 8.12706H90.6329L92.5735 3.83206C93.1908 2.46477 92.583 0.856083 91.2157 0.238818C90.8527 0.075018 90.4725 1.52208e-05 90.0975 1.52208e-05C90.0846 1.52208e-05 90.0717 -0.00170898 90.0587 -0.00170898H41.9672C41.9655 -0.00170898 41.9646 -0.00170898 41.9638 -0.00170898H41.8543C40.7766 -0.00170898 39.8482 0.626764 39.4094 1.53714L26.3804 17.0636C26.3666 17.08 26.3563 17.0964 26.3433 17.1128C26.3063 17.1584 26.2709 17.205 26.2373 17.2524C26.2166 17.2826 26.1968 17.3136 26.1769 17.3447C26.1502 17.386 26.1243 17.4283 26.0993 17.4714C26.0769 17.511 26.0562 17.5498 26.0364 17.5904C26.0183 17.6266 26.0002 17.6628 25.9838 17.6998C25.9631 17.7464 25.9442 17.7921 25.9261 17.8395C25.9131 17.8731 25.9011 17.9059 25.889 17.9404C25.8726 17.9895 25.8571 18.0404 25.8442 18.0904C25.8347 18.124 25.8261 18.1585 25.8174 18.1921C25.8062 18.2421 25.7959 18.2912 25.7873 18.3412C25.7812 18.3792 25.7752 18.4171 25.77 18.455C25.764 18.5007 25.7597 18.5464 25.7554 18.593C25.7519 18.6361 25.7502 18.6801 25.7485 18.724C25.7467 18.7645 25.7467 18.8051 25.7476 18.8456C25.7485 18.8939 25.7502 18.943 25.7536 18.9913C25.7554 19.0283 25.7588 19.0654 25.7631 19.1025C25.7683 19.1525 25.7752 19.2025 25.783 19.2525C25.7899 19.2896 25.7959 19.3258 25.8036 19.3628C25.814 19.4103 25.8252 19.4585 25.8373 19.5059C25.8485 19.5465 25.8605 19.5861 25.8726 19.6258C25.8855 19.668 25.8993 19.7094 25.9149 19.7508C25.9321 19.7973 25.9511 19.8439 25.9709 19.8896C25.9856 19.9232 26.0002 19.9568 26.0166 19.9896C26.0416 20.0422 26.0692 20.0922 26.0976 20.143C26.108 20.162 26.1157 20.1801 26.1269 20.1982L29.7029 26.2045L27.6865 32.4599C27.4744 33.1177 27.521 33.8315 27.8167 34.4557L30.1495 39.3817L24.9674 43.4741C23.7906 44.4035 23.5889 46.1113 24.5191 47.2881C25.0545 47.9674 25.8493 48.3217 26.652 48.3217C27.2416 48.3217 27.8356 48.1303 28.3339 47.7372L35.2135 42.3051C36.2066 41.5215 36.5273 40.155 35.9851 39.011L33.1867 33.1039L34.4195 29.2787L39.8085 30.9935C40.0766 31.0788 40.3551 31.1211 40.6318 31.1211C41.0499 31.1211 41.4663 31.0245 41.8465 30.8348L46.9157 28.3003C48.2571 27.6295 48.8011 25.9984 48.1304 24.6561C47.4597 23.3147 45.8294 22.7707 44.4871 23.4423L40.4042 25.4829L34.4712 23.5958L31.7815 19.0775L41.9715 6.93391L77.1315 48.6631L67.4165 54.7021L60.1076 53.4314C59.3912 53.3073 58.6549 53.4754 58.0635 53.8969L50.9141 59.004L43.1328 60.6955C41.6672 61.0145 40.737 62.4602 41.056 63.9266C41.3327 65.1974 42.4569 66.0664 43.7069 66.0655C43.8983 66.0655 44.0923 66.0457 44.2863 66.0035L48.7002 65.0431L48.2726 67.6104C48.0261 69.0898 49.0261 70.489 50.5055 70.7355C50.6563 70.7614 50.8072 70.7735 50.9546 70.7735C52.259 70.7735 53.409 69.8312 53.6306 68.5036L54.5324 63.0947L60.2964 58.9782L64.4396 59.698L62.8482 64.6991C62.6335 65.3733 62.6904 66.1043 63.0068 66.7371L65.5414 71.8063C66.0173 72.758 66.9768 73.3089 67.9725 73.308C68.3812 73.308 68.795 73.2158 69.1855 73.021C70.5269 72.3503 71.0709 70.7192 70.4002 69.3777L68.3588 65.2948L70.2545 59.3342L78.4954 54.2116V121.613H56.4514V101.236C56.4514 99.7358 55.2358 98.5194 53.7358 98.5194C52.2357 98.5194 51.0201 99.7358 51.0201 101.236V121.613H32.9151V116.769L60.3257 82.0524C61.255 80.8747 61.0542 79.1669 59.8765 78.2376C58.7006 77.3082 56.9928 77.5082 56.0626 78.6858L53.1616 82.3601H30.1986C28.6986 82.3601 27.483 83.5766 27.483 85.0766V114.883L22.169 121.613H5.43906V50.2804L23.1941 29.2089C24.1605 28.0623 24.0139 26.3485 22.8673 25.382C21.7207 24.4156 20.0077 24.5622 19.0405 25.7088L0.646631 47.5389C0.233683 48.0295 0.0078125 48.6485 0.0078125 49.289V124.327C0.0078125 125.826 1.22338 127.043 2.72344 127.043H23.482C23.4829 127.043 23.4837 127.043 23.4846 127.043C23.4855 127.043 23.4863 127.043 23.4872 127.043H98.3504C98.3539 127.043 98.3573 127.044 98.3608 127.044C98.3634 127.044 98.366 127.043 98.3694 127.043H174.248C175.749 127.043 176.965 125.826 176.965 124.327V49.289C176.964 48.6545 176.741 48.0398 176.335 47.5519ZM95.0917 28.1804L92.9433 33.3358C92.3657 34.7203 93.0209 36.3101 94.4055 36.8877C94.7469 37.0299 95.1003 37.0972 95.4486 37.0972C96.5124 37.0972 97.5228 36.4678 97.9573 35.4247L100.109 30.2598L108.472 37.8411C108.955 38.2791 109.58 38.5282 110.232 38.5438L125.44 38.9058C125.885 38.9179 126.322 38.8188 126.72 38.6196L136.849 33.5548L146.745 40.5783C147.526 41.1318 148.539 41.2344 149.414 40.849L159.852 36.2437L168.401 46.5113H103.457C101.957 46.5113 100.741 47.7269 100.741 49.2269C100.741 50.727 101.957 51.9426 103.457 51.9426H171.533V120.107C169.483 118.949 166.288 117.279 161.246 114.74L164.085 110.009C164.4 109.482 164.529 108.863 164.448 108.253L163.724 102.822C163.525 101.336 162.157 100.291 160.673 100.489C159.186 100.687 158.142 102.053 158.34 103.539L158.938 108.029L156.809 111.578L153.832 108.8C152.735 107.777 151.017 107.835 149.993 108.932C148.97 110.028 149.029 111.747 150.126 112.771L155.557 117.84C155.587 117.868 155.619 117.893 155.65 117.918C155.68 117.944 155.709 117.971 155.74 117.994C155.791 118.035 155.846 118.072 155.899 118.108C155.919 118.121 155.938 118.136 155.958 118.149C156.04 118.201 156.125 118.249 156.211 118.291C158.386 119.379 160.653 120.531 162.743 121.611H101.992L104.211 114.088C104.446 113.29 104.303 112.429 103.822 111.749L98.6979 104.514L103.135 97.2055H120.114C121.614 97.2055 122.83 95.99 122.83 94.4899V76.0228C122.83 74.5228 121.614 73.3063 120.114 73.3063H101.646C100.146 73.3063 98.9306 74.5228 98.9306 76.0228V85.0749C98.9306 86.5749 100.146 87.7905 101.646 87.7905C103.146 87.7905 104.362 86.5749 104.362 85.0749V78.7384H117.398V91.7743H101.686C101.666 91.7743 101.647 91.7769 101.627 91.7769C100.703 91.7708 99.7988 92.2338 99.285 93.0804L93.7753 102.155L83.9266 103.801V50.133C84.1921 49.3821 84.1283 48.5217 83.6749 47.7924C83.4309 47.401 83.1033 47.0932 82.73 46.8768L47.8062 5.42954H85.8913L82.1524 13.7083C81.9283 14.2049 81.8584 14.7575 81.9515 15.2937L83.7223 25.432C83.9395 26.6752 84.9835 27.6054 86.2431 27.677L95.0917 28.1804ZM83.9266 121.611V109.308L94.2184 107.588L98.628 113.814L96.328 121.611H83.9266ZM32.9143 87.7905H48.8718L32.9143 108.003V87.7905Z" fill="#1374BA"/>
</g>
</svg>
