<svg width="215" height="144" viewBox="0 0 215 144" fill="none" xmlns="http://www.w3.org/2000/svg">
<mask id="mask0_1159_449" style="mask-type:luminance" maskUnits="userSpaceOnUse" x="0" y="0" width="215" height="144">
<path d="M0 0H215V143.06H0V0Z" fill="white"/>
</mask>
<g mask="url(#mask0_1159_449)">
<path d="M7.45027 71.6712C7.46463 71.5384 7.51369 71.4127 7.56993 71.3086C6.35296 69.3641 5.29035 67.3789 4.52809 65.268C4.52809 66.4359 4.50057 67.5823 4.45151 68.749C5.25564 70.5811 6.23449 72.3569 7.32462 74.0633C7.38804 73.2723 7.35932 72.4753 7.45027 71.6712ZM11.1144 52.9774C11.1144 52.9283 11.1347 52.8936 11.1491 52.8518C10.4155 51.8933 9.72985 50.936 9.08008 49.9499C8.98914 51.9567 8.92571 53.9766 9.06572 55.9905C9.09324 56.3328 9.04418 56.6128 8.92571 56.8569C8.88383 57.0388 8.82041 57.2075 8.73066 57.3822C9.12196 58.4939 9.58267 59.5912 10.114 60.6466C10.4287 58.0882 11.0438 55.5705 11.1144 52.9774ZM12.5467 78.474C12.5467 78.4597 12.5467 78.4465 12.5467 78.4465C12.4426 78.3065 12.3373 78.1737 12.2392 78.0337C11.24 76.636 10.2336 75.2515 9.26197 73.8526C9.22607 74.4677 9.17102 75.0624 9.03102 75.6572C8.97478 75.8869 8.84913 76.0413 8.70912 76.1466C9.75139 77.6496 10.8762 79.1106 12.0154 80.5574C12.2392 79.8729 12.4845 79.1872 12.5467 78.474ZM14.8119 57.8297C14.1765 56.9418 13.5327 56.0599 12.883 55.1792C12.5611 57.752 11.9388 60.29 11.8766 62.8903C11.8622 63.1213 11.7857 63.3031 11.666 63.4431C12.1973 64.3239 12.7645 65.1771 13.3724 66.0159C13.9037 63.4707 14.8478 60.9757 14.666 58.3611C14.6588 58.1433 14.721 57.9757 14.8119 57.8297ZM17.721 84.8497C17.721 84.8365 17.7353 84.8222 17.7353 84.8018C16.4693 83.3886 15.2391 81.9562 14.0509 80.4389C13.8822 81.0193 13.6871 81.6068 13.5543 82.2003C13.5471 82.2769 13.5052 82.326 13.4777 82.3894C14.7844 84.0109 16.0923 85.6263 17.3368 87.2406C17.5115 86.458 17.6922 85.6682 17.721 84.8497ZM18.1613 62.9537C18.1757 62.8771 18.1123 62.8065 18.147 62.73C17.581 61.933 16.8953 61.1289 16.3221 60.3116C16.1689 61.6326 15.7286 62.9262 15.3301 64.2329C14.9244 65.5408 14.5678 66.8344 14.5678 68.1758C15.8614 69.2528 16.504 70.301 17.3991 71.3361C17.4756 68.5252 17.5247 65.7227 18.1613 62.9537ZM20.3631 48.1179C20.2028 46.0836 20.3212 44.1199 20.7066 42.2735C17.5534 39.8755 14.2531 37.7084 11.4985 34.8628C11.6457 38.2325 12.9105 41.5891 14.7354 44.7901C16.5602 45.9927 18.4473 47.0972 20.3631 48.1179ZM21.6495 54.271C21.342 53.3543 21.056 52.4246 20.8525 51.4816C20.776 51.1454 20.7341 50.8175 20.6707 50.4812C19.4824 49.8662 18.3013 49.2164 17.1406 48.5451C18.5598 50.5518 20.1118 52.4605 21.6495 54.271ZM21.902 68.1758C21.902 67.9736 21.9642 67.812 22.0552 67.6864C21.7548 67.3238 21.4473 66.9732 21.1601 66.6106C20.685 66.0159 20.2447 65.408 19.7899 64.7989C19.4058 67.6517 19.7133 70.532 19.413 73.3919C20.1681 74.2164 20.8872 75.0349 21.6148 75.8391C21.6782 73.2866 21.811 70.7282 21.902 68.1758ZM23.9016 34.779C23.6562 34.5349 23.3978 34.2896 23.1525 34.0455C20.7484 31.6403 18.0847 29.4935 16.3855 26.5785C14.5403 28.389 13.1067 30.3814 12.0154 32.5701C14.6935 35.6251 18.0428 37.7922 21.2379 40.2117C21.8601 38.2888 22.7683 36.4783 23.9016 34.779ZM24.2151 91.8763C24.2438 91.771 24.2785 91.7088 24.3204 91.625C22.6355 89.9892 20.9925 88.3319 19.4058 86.6327C19.2443 87.3602 19.0636 88.0734 19.0145 88.8213C19.0002 88.9613 18.9655 89.1073 18.902 89.2198C20.4541 91.2122 22.0408 93.1555 23.6706 95.0713C23.8657 94.0087 24.0475 92.9317 24.2151 91.8763ZM26.3894 81.2921C26.5437 78.3209 26.4384 75.3556 26.4253 72.3844C26.4253 72.3712 26.4253 72.3569 26.4253 72.3425C25.523 71.4618 24.6279 70.5607 23.7747 69.6369C23.6562 72.3006 23.5306 74.9787 23.5162 77.6567C23.5162 77.7477 23.4744 77.8314 23.4672 77.9152C24.4329 79.0269 25.4177 80.1517 26.3894 81.2921ZM31.487 27.3061C29.935 24.7955 28.3267 22.2862 26.649 19.8175C25.1592 20.4757 23.6981 21.2308 22.2514 22.1187C20.5941 23.1179 19.133 24.1601 17.8251 25.2646C19.3292 28.2215 22.237 30.969 24.9498 33.3455C26.7256 31.0946 28.9202 29.0819 31.487 27.3061ZM30.641 97.7494C30.6194 97.7207 30.5919 97.6931 30.55 97.6656C29.0112 96.1686 27.4735 94.6932 25.949 93.2321C25.7539 94.4634 25.5433 95.6864 25.2849 96.9165C25.2777 96.9165 25.2777 96.9309 25.2777 96.9309C26.649 98.4973 28.0539 100.035 29.4934 101.552C29.9972 100.426 30.2844 99.2452 30.5285 98.015C30.55 97.9025 30.5919 97.826 30.641 97.7494ZM31.2273 86.9199C31.493 83.4173 31.0179 79.9076 30.9557 76.4051C30.0881 75.6775 29.2218 74.9296 28.3829 74.1674C28.4176 76.9854 28.4942 79.8023 28.2489 82.6132C28.2358 82.8573 28.1305 83.0392 28.0048 83.1792C29.0674 84.4237 30.1372 85.6825 31.2273 86.9199ZM33.9401 54.9698C34.0035 54.18 34.1076 53.4178 34.2764 52.6699C30.0606 49.6915 26.1309 46.524 22.0695 43.3158C22.0695 43.3086 22.0552 43.3086 22.0408 43.2943C21.8733 44.5244 21.8601 45.8048 22.0276 47.1331C22.1317 47.8319 22.2717 48.5164 22.4046 49.202C26.229 51.1597 30.1516 52.9559 33.9401 54.9698ZM40.6664 73.2519C37.883 69.5747 35.7159 65.6031 34.5911 61.4508C34.1854 59.955 33.982 58.5286 33.9126 57.1441C30.3466 55.2079 26.649 53.4872 23.0137 51.6767C23.9147 54.8442 25.2992 57.7807 27.1241 60.4444C31.3255 65.0718 35.8068 69.3641 40.6664 73.2519ZM34.8627 50.7265C35.339 49.3983 35.9816 48.1322 36.8 46.944C32.9062 43.2943 28.9346 39.6876 25.103 35.9613C23.9434 37.5756 23.0412 39.3095 22.4955 41.1834C22.803 41.4275 23.1249 41.6728 23.4397 41.9457C27.1516 45.0497 30.927 47.9504 34.8627 50.7265ZM36.1287 92.3023C35.8559 88.1225 35.8068 81.7325 35.8068 80.257C34.8352 79.5223 33.891 78.7816 32.9481 78.0337C33.1013 81.5925 33.4507 85.1369 32.9613 88.6957C32.9613 88.7447 32.9337 88.7866 32.9194 88.8213C33.9688 89.9952 35.0374 91.1631 36.1287 92.3023ZM37.8339 23.5929C36.6325 21.4605 35.4431 19.315 34.3182 17.1263C32.339 17.6433 30.3813 18.2799 28.4595 19.0421C30.0738 21.4186 31.6127 23.8239 33.1013 26.2435C34.6389 25.285 36.234 24.4114 37.8339 23.5929ZM36.751 103.67C36.751 103.656 36.7582 103.643 36.7713 103.628C35.248 102.195 33.7307 100.748 32.2349 99.287C31.9333 100.594 31.5636 101.86 30.9126 103.062C32.4024 104.586 33.9269 106.103 35.479 107.593C35.5556 107.669 35.6321 107.746 35.7159 107.809C36.2197 106.481 36.4925 105.069 36.751 103.67ZM37.9608 45.3776C38.7506 44.4275 39.6456 43.5527 40.6305 42.7139C37.883 38.0925 35.248 33.5142 32.5077 28.9837C30.1934 30.6052 28.0323 32.43 26.2565 34.499C26.8022 34.9609 27.3191 35.4156 27.8086 35.856C31.2764 38.9744 34.5767 42.1898 37.9608 45.3776ZM40.2535 66.3653C40.1769 65.834 40.1279 65.3099 40.0992 64.7786C39.9532 61.8277 40.5467 59.3459 41.638 57.1716C39.7988 56.1999 37.9536 55.2845 36.0869 54.4313C35.8415 56.3962 36.0378 58.5142 36.8348 60.8357C37.457 62.6534 38.2611 64.4148 39.1622 66.1344C39.526 66.1978 39.8898 66.2887 40.2535 66.3653ZM41.2886 84.2143C40.0992 83.3886 38.9181 82.5498 37.743 81.6966C37.7574 86.032 37.8064 89.5477 38.1702 93.5049C38.1977 93.7849 38.1068 94.0087 37.9608 94.1619C38.7362 94.9385 39.526 95.6864 40.3301 96.4271C40.3588 96.4415 40.372 96.4558 40.3864 96.463C40.1279 92.5751 41.0014 88.7028 41.078 84.7731C41.078 84.5422 41.169 84.3603 41.2886 84.2143ZM42.7916 113.71C42.7916 112.158 43.0213 110.592 43.0213 109.025C41.729 107.76 40.0082 106.481 38.6249 105.18C38.3377 106.579 37.9883 107.942 37.4223 109.243C39.1766 110.914 40.9667 112.584 42.7988 114.234C42.7916 114.059 42.7916 113.885 42.7916 113.71ZM48.8382 49.5658C47.2371 47.3915 45.5319 45.3214 43.5395 43.4762C40.3935 45.8108 37.7921 48.6492 36.6325 52.062C36.7582 52.2427 36.8276 52.4389 36.8132 52.6412C38.7506 53.5231 40.6939 54.4804 42.6229 55.4867C44.1821 53.1593 46.3707 51.2435 48.8382 49.5658ZM45.6372 20.1538C44.9096 18.5384 44.2527 16.9026 43.6508 15.2392C41.1618 15.6377 38.6871 16.0781 36.2544 16.6513C37.3314 18.6927 38.443 20.7055 39.5822 22.7266C41.5602 21.7824 43.5742 20.9292 45.6372 20.1538ZM46.0357 101.301C46.0069 96.6377 46.5873 91.9529 45.8047 87.3255C44.8677 86.6889 43.9236 86.0523 42.9938 85.4097C42.7988 89.7164 41.6727 94.0231 42.5535 98.3154C42.5535 98.3297 42.5535 98.3429 42.5535 98.3573C43.707 99.3505 44.8606 100.35 46.0357 101.301ZM46.2654 38.8691C46.4892 38.7507 46.7201 38.6454 46.9511 38.5341C44.7277 35.8285 43.1266 32.661 41.3508 29.6479C40.4845 28.1868 39.6313 26.7113 38.7924 25.2503C37.2548 26.04 35.674 26.9279 34.122 27.914C36.8348 32.3882 39.4494 36.9186 42.155 41.4838C43.4198 40.5396 44.7912 39.6589 46.2654 38.8691ZM50.2933 120.82C50.2933 119.491 50.2789 117.254 50.1736 115.324C48.2446 113.821 46.3707 112.284 44.5315 110.697C44.5111 112.402 44.4693 114.109 44.6368 115.814C44.6511 115.905 44.6224 115.968 44.6164 116.045C46.4617 117.68 48.3631 119.268 50.2933 120.82ZM48.7544 37.639C50.0204 37.0167 51.314 36.4364 52.6064 35.8979C50.9777 31.0324 48.5941 26.4876 46.427 21.859C45.0628 22.3771 43.707 22.9216 42.3859 23.5163C41.778 23.7892 41.169 24.0692 40.5395 24.3839C41.0924 25.3412 41.638 26.3057 42.1897 27.2702C44.2383 30.7308 46.0835 34.5768 48.7544 37.639ZM51.88 91.4216C50.6499 90.5971 49.4257 89.7655 48.1812 88.9266C48.1046 88.8704 48.0137 88.807 47.9371 88.7579C48.3906 93.274 47.8593 97.7984 47.979 102.335C47.9862 102.502 47.9503 102.65 47.888 102.775C48.9997 103.656 50.1245 104.538 51.2434 105.39C51.6215 100.783 51.9219 96.183 51.8513 91.5616C51.8513 91.5125 51.88 91.4707 51.88 91.4216ZM51.9075 63.0171C51.9362 62.9884 51.9422 62.9812 51.9566 62.9537C49.1672 61.3383 46.3073 59.6953 43.4198 58.1157C43.0213 58.9833 42.721 59.8712 42.5953 60.8213C42.2734 62.9262 42.4003 64.9952 42.8406 67.0151C45.1406 67.6732 47.4058 68.4487 49.7057 69.1343C49.7751 67.0019 50.4464 64.9318 51.9075 63.0171ZM52.0128 17.9652C51.9985 17.9029 52.0128 17.8395 52.0128 17.7761C51.5725 16.5807 51.1453 15.3792 50.7396 14.1766C49.0069 14.4351 47.3005 14.6792 45.5941 14.9377C46.1541 16.4766 46.7692 17.9939 47.4333 19.4825C48.9435 18.9512 50.468 18.4342 52.0128 17.9652ZM51.0687 80.6208C52.7751 81.7325 54.5222 82.8298 56.2776 83.9067C53.0826 79.9495 50.3842 75.4884 49.8098 71.1758C47.6643 70.5739 45.5522 69.8475 43.4198 69.2109C44.8821 73.5032 47.7409 77.439 51.0687 80.6208ZM53.292 61.4783C54.2362 60.5485 55.3335 59.7097 56.5014 58.9402C54.4528 56.6128 52.3347 54.417 50.5099 51.8801C50.3411 51.6348 50.1736 51.4038 49.9917 51.1597C47.7133 52.7189 45.7341 54.466 44.3927 56.4452C47.4058 58.0739 50.3842 59.7934 53.292 61.4783ZM54.4037 35.1572C55.9557 34.5349 57.5221 33.9677 59.1089 33.4364C56.6055 29.04 54.5293 24.4318 52.7332 19.7134C51.2231 20.1813 49.7189 20.6707 48.2231 21.2021C50.3842 25.8031 52.7464 30.3192 54.4037 35.1572ZM57.2206 94.8894C56.0742 94.1619 54.935 93.4283 53.7958 92.6733C53.7958 97.3712 53.4739 102.062 53.0826 106.747C54.3893 107.704 55.6973 108.663 57.0183 109.606C56.9418 104.768 56.5014 99.944 57.144 95.1204C57.1583 95.0294 57.2002 94.966 57.2206 94.8894ZM57.9338 126.399C57.7387 124.35 57.6334 122.295 57.5221 120.24C55.6829 119.163 53.8999 118.017 52.1804 116.785C52.2294 118.583 52.2294 120.408 52.2294 121.309C52.2438 121.665 52.0894 121.911 51.8932 122.064C53.858 123.588 55.8791 125.035 57.9338 126.399ZM57.053 45.0007C57.7315 44.6644 58.41 44.3784 59.0873 44.0565C57.7806 41.7494 56.6833 39.2676 54.7256 37.4571C54.0543 37.7299 53.383 38.0028 52.7188 38.2888C50.2227 39.4148 47.5877 40.743 45.1681 42.337C47.1605 44.2109 48.8669 46.3074 50.468 48.5164C52.5788 47.2372 54.8297 46.0836 57.053 45.0007ZM58.9198 71.4414C59.682 70.3645 60.8081 69.3437 62.3876 68.3577C60.2133 66.4981 58.0881 64.5823 55.9557 62.6534C54.1033 64.2616 52.9007 66.0159 52.4735 68.0227C54.6897 69.029 56.8089 70.2101 58.9198 71.4414ZM67.1203 53.9634C64.8132 51.3907 62.1495 48.6983 60.199 45.8251C57.3678 47.0278 54.3618 48.4398 51.6491 50.0971C53.7049 52.823 55.9414 55.3336 58.1791 57.9195C61.0869 56.3052 64.2962 55.0464 67.1203 53.9634ZM62.317 98.252C62.3314 98.161 62.3733 98.0988 62.3948 98.015C61.2484 97.3712 60.1224 96.6868 58.9964 96.0011C58.4938 100.762 58.9341 105.53 58.9688 110.319C58.9688 110.535 58.9054 110.704 58.8013 110.864C59.5002 111.354 60.199 111.843 60.905 112.333C61.2975 112.606 61.6888 112.878 62.0873 113.164C62.0095 108.186 61.6744 103.202 62.317 98.252ZM60.9756 32.801C62.4989 32.2972 64.0162 31.8222 65.5407 31.3531C62.9261 27.1661 61.2484 22.5172 60.1715 17.7067C58.3119 18.1614 56.4451 18.6508 54.5987 19.1821C56.3961 23.8658 58.4651 28.4453 60.9756 32.801ZM69.8474 64.9952C67.9173 62.6187 66.0577 60.1572 64.1706 57.752C63.0171 58.2976 61.891 58.8505 60.765 59.444C59.5636 60.0938 58.4938 60.7651 57.5078 61.4508C59.6964 63.4575 61.8707 65.5121 64.1419 67.4004C66.0158 66.4563 67.9173 65.6665 69.8474 64.9952ZM65.8902 130.979C66.2121 129.125 66.1211 127.209 65.9045 125.35C65.8902 125.273 65.9105 125.189 65.9105 125.126C65.3098 124.742 64.6875 124.365 64.0509 123.987C62.548 123.113 61.0378 122.26 59.5277 121.394C59.6402 123.448 59.7443 125.49 59.9896 127.531C60.0039 127.602 59.9896 127.636 59.9752 127.706C61.9054 128.881 63.8702 129.978 65.8902 130.979ZM63.2899 87.9825C64.2197 88.4851 65.1494 88.9888 66.0864 89.4783C61.6325 84.438 56.3195 78.5375 57.9481 73.3632C56.0957 72.2037 54.2218 71.0633 52.306 70.106C52.3204 70.1969 52.3479 70.3154 52.3479 70.3992C52.3622 70.4698 52.3694 70.5045 52.3694 70.5739C52.5645 72.4478 53.3554 74.5311 54.8584 76.8945C57.3821 80.8517 60.1439 84.5637 63.2899 87.9825ZM66.443 100.168C65.6808 99.7765 64.9329 99.378 64.1838 98.9723C63.6106 103.992 64.0031 109.054 64.0378 114.094C64.0378 114.262 64.0031 114.416 63.9325 114.535C64.7091 115.129 65.4989 115.737 66.303 116.359C66.303 110.486 66.303 100.615 66.303 100.615C66.303 100.441 66.3521 100.293 66.443 100.168ZM67.8263 76.5235C69.0217 76.0556 70.1968 75.5794 71.3707 75.0696C69.2036 73.0557 66.3796 71.6293 64.0653 69.7985C62.8208 70.6373 61.7379 71.5814 60.9612 72.65C63.1499 74.0142 65.4642 75.5794 67.8263 76.5235ZM70.7281 102.133C70.7281 102.118 70.7281 102.118 70.7281 102.104C70.1059 101.845 69.498 101.587 68.8889 101.314C68.8889 106.334 68.8889 112.038 68.8889 117.436C68.8889 117.716 68.7489 117.926 68.5395 118.079C69.2527 118.625 69.9659 119.149 70.6863 119.68C70.3991 113.836 70.6863 107.977 70.7281 102.133ZM67.4278 30.7943C68.9799 30.3324 70.5187 29.8788 72.0708 29.4169C71.7979 24.6914 69.7696 20.3357 68.3576 15.8471C66.2611 16.3018 64.1562 16.7625 62.0585 17.252C63.108 21.9787 64.751 26.5019 67.3513 30.6052C67.4003 30.6686 67.4003 30.7308 67.4278 30.7943ZM72.0983 133.572C72.1892 131.943 72.3149 130.279 71.9164 128.685C71.902 128.636 71.9164 128.594 71.902 128.552C70.5319 127.909 69.2252 127.161 67.9316 126.37C68.0848 128.168 68.0716 129.964 67.7294 131.754C67.7294 131.776 67.715 131.789 67.7007 131.803C69.1486 132.453 70.6097 133.055 72.0983 133.572ZM73.6503 38.3797C72.7421 36.3107 71.8745 34.213 70.9866 32.1297C66.1702 33.5142 61.3597 34.8975 56.6893 36.6733C58.4651 38.5963 59.4439 41.0159 60.8356 43.238C65.086 41.3366 69.358 39.7223 73.6503 38.3797ZM71.7979 64.3382C73.5869 63.765 75.3842 63.2756 77.2091 62.7994C75.748 59.9131 74.245 57.0388 72.4621 54.3404C70.2591 55.117 68.0848 55.969 65.9667 56.9131C67.8969 59.3949 69.8055 61.9055 71.7979 64.3382ZM79.8166 49.7333C77.6985 46.8112 76.0268 43.6305 74.5454 40.3721C72.1617 41.1343 69.784 41.9732 67.4003 42.9305C65.8902 43.5396 64.0378 44.2384 62.0585 45.0497C64.0234 47.7685 66.4981 50.3556 68.6867 52.8027C68.8267 52.9559 68.8758 53.1102 68.9176 53.2778C72.4824 51.922 76.1321 50.7265 79.8166 49.7333ZM75.3567 137.515C75.3567 137.207 75.3567 136.914 75.3567 136.614C59.3326 132.334 45.7341 120.275 34.1076 108.963C27.5297 102.559 21.4963 95.9102 15.9523 88.6047C12.0298 83.4305 7.45027 78.3831 4.25526 72.65C4.2062 73.5595 4.15115 74.4749 4.11645 75.3975C4.10209 75.6153 4.05303 75.8247 3.98363 76.0066C7.45027 83.1792 11.7366 90.0861 16.4549 96.518C21.7967 103.789 28.6761 109.074 35.814 114.472C43.0213 119.904 63.0589 139.962 75.3567 137.515ZM75.3567 130.37C75.3567 130.16 75.4333 130.006 75.5374 129.86C75.0205 129.734 74.5035 129.58 74.0141 129.412C74.196 130.999 74.0632 132.607 73.9997 134.194C74.4545 134.341 74.902 134.481 75.3567 134.607C75.3567 133.082 75.3567 131.636 75.3567 130.37ZM75.4608 12.3027C75.4608 11.897 75.4477 11.4986 75.3842 11.1144C75.1748 10.9601 75.0205 10.7507 74.902 10.5269C74.5945 10.2194 74.3839 9.77901 74.3839 9.213C74.3839 7.5066 74.4401 5.66738 73.8956 4.01124C66.729 4.72444 59.3326 6.06586 53.2154 10.01C53.6761 10.0375 54.1165 10.345 54.1165 10.9457C54.1309 13.1068 54.2218 15.2524 53.949 17.3992C57.6896 16.309 61.4782 15.3924 65.2404 14.5536C68.6448 13.7913 72.0492 13.0231 75.4608 12.3027ZM76.4193 123.357C76.88 120.149 76.3631 116.576 76.3415 113.395C76.3284 110.348 76.3284 104.496 76.3284 104.496C76.3284 104.369 76.3559 104.265 76.3906 104.16C75.1258 103.761 73.8669 103.348 72.6511 102.881C72.6021 108.816 72.3005 114.744 72.6643 120.666C72.6643 120.806 72.644 120.925 72.6152 121.03C73.8525 121.883 75.1389 122.673 76.4193 123.357ZM73.2734 74.2308C74.4545 73.6995 75.6152 73.161 76.7687 72.6153C74.7273 70.672 72.8318 68.603 71.0357 66.4419C69.3018 67.0642 67.4913 67.8264 65.8339 68.7215C66.2121 69.0218 66.5758 69.3162 66.9456 69.5879C69.0852 71.1124 71.4617 72.3425 73.2734 74.2308ZM79.5581 126.902C78.7468 126.616 77.9295 126.279 77.1325 125.903C76.7891 125.903 76.4397 125.763 76.265 125.477C69.8187 122.246 63.7302 116.681 58.1156 112.766C50.9083 107.704 43.6304 102.502 37.3661 96.2883C30.0881 89.0451 23.3068 81.0121 16.7421 73.1191C12.9739 68.5887 9.01666 63.8488 6.99674 58.2701C6.17107 58.2976 5.60506 58.6327 5.22693 59.1508C5.57754 65.8268 9.77891 72.2037 14.1131 77.6843C14.2675 77.7896 14.3859 77.9152 14.4494 78.1103C15.6029 79.5438 16.7493 80.9283 17.8394 82.235C23.0268 88.4719 29.3331 93.7993 35.1702 99.4402C40.1973 104.307 45.35 109.494 51.0412 113.723C51.4815 113.681 51.9422 113.927 52.0332 114.458C53.1592 115.262 54.2984 116.045 55.4807 116.758C61.842 120.639 69.3161 126.51 76.5869 128.14C76.7269 128.168 76.8453 128.23 76.9363 128.301C77.8026 127.804 78.6558 127.315 79.5581 126.902ZM77.7404 27.7045C78.7468 27.3827 79.7819 27.0608 80.8158 26.7257C79.6143 22.4681 77.8517 18.3289 76.7125 14.0641C74.5526 14.5117 72.4058 14.9796 70.2591 15.4343C71.6579 19.881 73.5869 24.1876 73.9722 28.8581C75.2299 28.48 76.4815 28.0958 77.7404 27.7045ZM79.4947 95.6517C79.3547 95.5189 79.2087 95.3789 79.0687 95.246C73.5031 90.219 67.4566 85.9757 62.6808 80.1027C62.122 79.4182 62.2967 78.4322 63.1846 78.1521C63.8559 77.9427 64.52 77.7118 65.177 77.488C63.394 76.6492 61.6744 75.6572 59.968 74.6077C59.256 76.8598 59.8639 79.5438 62.6952 82.7317C65.3242 85.6885 68.0644 88.5628 70.4828 91.7088C73.4409 93.128 76.454 94.4634 79.4947 95.6517ZM80.5298 134.516C80.5298 132.453 80.5298 130.175 80.5298 128.581C79.6 128.985 78.7193 129.503 77.8517 130.006C77.9079 130.118 77.9426 130.224 77.9426 130.37C77.9426 131.831 77.9426 133.523 77.9426 135.284C78.4321 135.424 78.6068 135.837 78.5517 136.25C79.2506 135.802 79.9075 135.215 80.5298 134.516ZM78.6068 71.7346C79.4947 71.3086 80.4041 70.8814 81.292 70.441C80.1038 68.4343 79.0196 66.3653 77.9714 64.282C76.3415 64.7786 74.6986 65.2393 73.0915 65.7503C73.07 65.7574 73.0281 65.7718 73.0005 65.785C74.7273 67.8061 76.5103 69.7422 78.4739 71.5527C78.523 71.6161 78.5517 71.6855 78.6068 71.7346ZM83.4519 134.452C83.5285 125.091 84.4727 115.521 83.3885 106.208C81.6833 105.712 79.9769 105.222 78.2645 104.733C78.2645 108.543 78.2645 112.493 78.3064 116.485C78.3411 119.142 78.6558 121.687 78.2155 124.26C79.174 124.7 80.1313 125.091 81.1101 125.386C81.3339 125.448 81.4739 125.581 81.578 125.721C81.6067 125.748 81.6271 125.777 81.6414 125.812C81.6833 125.868 81.7037 125.917 81.718 125.966C81.7886 126.112 81.8233 126.279 81.8233 126.49C81.8233 129.251 81.8233 131.363 81.8233 133.754C82.3821 133.719 82.9206 133.977 83.3119 134.403C83.361 134.418 83.4029 134.439 83.4519 134.452ZM85.0805 60.6394C84.9274 60.4157 84.7599 60.2134 84.6198 59.9897C82.9482 57.6263 81.6977 54.131 79.4456 52.1948C77.7404 52.6412 76.0268 53.1449 74.3492 53.705C76.1321 56.4584 77.6351 59.3674 79.1177 62.2968C81.1029 61.7726 83.0953 61.2342 85.0805 60.6394ZM87.7443 24.5933C87.4236 20.3704 85.759 16.4897 84.4727 12.4978C82.5078 12.8687 80.5573 13.2744 78.5936 13.6728C79.7184 17.8742 81.4739 21.9499 82.6622 26.1453C84.3327 25.614 86.0319 25.0827 87.7443 24.5933ZM87.7095 67.4914C88.3462 67.2185 88.9756 66.96 89.6254 66.7016C88.3952 65.1352 87.2058 63.5616 86.0391 61.9545C83.9689 62.5277 81.8999 63.1213 79.8441 63.716C80.8648 65.7084 81.9143 67.6864 83.0678 69.6166C84.6055 68.889 86.1432 68.1627 87.7095 67.4914ZM90.9464 34.4571C90.4151 31.8078 89.9185 29.1585 89.5344 26.4804C85.6681 27.5777 81.8999 28.8294 78.3555 29.9411C76.5306 30.5286 74.6986 31.0599 72.8462 31.584C73.7269 33.6542 74.5945 35.7375 75.5027 37.7922C80.6063 36.2964 85.759 35.1847 90.9464 34.4571ZM90.1291 137.158C90.2057 127.455 90.8411 117.771 89.9114 108.082C88.3952 107.669 86.8922 107.229 85.3821 106.789C86.3885 116.178 85.4096 125.812 85.3821 135.242C86.9473 135.928 88.5137 136.655 90.1291 137.158ZM91.5615 58.6961C91.1355 57.9757 90.737 57.2625 90.4151 56.5912C89.4578 54.5223 88.5627 52.4246 87.6952 50.3137C85.6406 50.705 83.5991 51.1454 81.578 51.6348C82.7806 53.0959 83.5848 54.8442 84.6198 56.5003C85.3677 57.7029 86.185 58.878 87.0107 60.0591C88.5209 59.6055 90.0514 59.1365 91.5615 58.6961ZM91.4849 65.9668C92.4841 65.5899 93.4917 65.2189 94.5124 64.8695C94.218 63.3378 93.3864 61.7655 92.4841 60.2206C90.9811 60.6119 89.4925 61.0248 87.9967 61.4364C89.1359 62.9812 90.3098 64.4914 91.4849 65.9668ZM92.7151 47.1043C93.0788 47.0553 93.4283 47.0134 93.7777 46.9643C92.9316 43.4977 92.1072 40.037 91.3724 36.5405C86.3538 37.2405 81.3686 38.3103 76.3906 39.7989C77.8936 43.0214 79.5581 46.1542 81.6977 49.0345C81.7467 49.0967 81.7599 49.1673 81.7886 49.2296C85.3821 48.3357 89.0306 47.6153 92.7151 47.1043ZM96.3085 138.088C97.2802 128.672 96.6723 119.247 96.5957 109.802C95.015 109.438 93.4498 109.04 91.8834 108.627C92.7498 118.275 92.1347 127.951 92.0725 137.62C92.1347 137.633 92.1981 137.647 92.2603 137.662C93.6245 137.871 94.9659 137.997 96.3085 138.088ZM97.4202 22.2371C96.8051 18.4055 96.8398 14.2807 95.2747 10.722C92.3034 11.1204 89.3382 11.617 86.3885 12.1483C87.633 16.0781 89.1994 19.9085 89.6254 24.0476C92.1981 23.3344 94.8128 22.7122 97.4202 22.2371ZM98.4828 56.8222C97.4346 54.2638 96.4557 51.6767 95.4553 49.0907C93.5192 49.3349 91.5615 49.628 89.6254 49.9643C90.7514 52.7189 91.8978 55.5777 93.3241 58.221C95.0437 57.7388 96.7633 57.2625 98.4828 56.8222ZM101.188 62.73C100.49 61.3598 99.8398 59.9681 99.2307 58.5561C97.553 58.9546 95.8825 59.3674 94.2049 59.7934C95.1059 61.2689 95.9388 62.6318 96.3373 64.2473C97.9384 63.716 99.5598 63.2266 101.188 62.73ZM104.489 71.6161C102.622 69.8332 101.007 67.8061 99.427 65.7574C96.8542 66.5616 94.309 67.4279 91.7853 68.3864C91.729 68.414 91.6812 68.4283 91.6249 68.4343C89.3106 69.3162 87.0382 70.2592 84.7874 71.3361C83.2988 72.0493 81.8233 72.7553 80.3335 73.4685C82.2637 74.9021 83.8301 76.8167 85.0674 78.8653C88.7159 78.1521 92.1706 76.9076 95.6372 75.5662C98.6647 74.3768 101.783 73.4195 104.489 71.6161ZM102.238 138.304C102.531 129.203 102.88 120.211 102.846 111.081C101.392 110.823 99.9726 110.55 98.5462 110.242C98.6372 119.582 99.2104 128.901 98.2387 138.207C99.5598 138.255 100.888 138.298 102.238 138.304ZM105.572 33.3742C105.104 30.1648 104.74 26.9567 104.656 23.7329C100.244 23.9148 95.7772 24.7955 91.4083 25.9634C91.7996 28.7313 92.3166 31.4727 92.8694 34.213C97.0708 33.6961 101.301 33.4089 105.572 33.3742ZM104.782 21.293C104.811 17.6433 105.069 14.0079 105.089 10.3725C103.594 10.2613 102.076 10.1847 100.581 10.1847C100.231 10.1847 99.8948 10.205 99.5454 10.205C98.7832 10.2816 98.0149 10.3869 97.2383 10.4778C98.6372 14.0857 98.6791 18.1123 99.3217 21.9224C101.161 21.6496 102.986 21.4749 104.811 21.4055C104.796 21.3696 104.782 21.3277 104.782 21.293ZM95.7007 46.7202C99.7489 46.2523 103.67 45.9867 107.502 46.007C107.047 42.5392 106.454 39.051 105.894 35.5688C101.678 35.5688 97.4765 35.8069 93.2954 36.3107C94.0505 39.7845 94.8762 43.2524 95.7007 46.7202ZM103.062 62.1783C105.069 61.5836 107.076 60.996 109.074 60.4157C109.012 59.0455 108.739 57.6897 108.537 56.3471C106.075 56.9131 103.608 57.4791 101.132 58.0739C101.727 59.4584 102.377 60.8357 103.062 62.1783ZM108.983 138.592C109.116 137.271 109.221 135.955 109.312 134.649C107.642 134.481 105.97 134.39 104.307 134.362C104.265 135.697 104.216 137.025 104.174 138.361C105.768 138.395 107.369 138.486 108.983 138.592ZM109.425 132.705C109.48 131.607 109.516 130.495 109.543 129.398C107.851 129.356 106.166 129.112 104.474 129.076C104.432 130.202 104.405 131.314 104.37 132.425C106.061 132.453 107.746 132.537 109.425 132.705ZM109.571 116.087C109.558 114.702 109.543 113.319 109.529 111.949C107.928 111.809 106.348 111.612 104.782 111.381C104.782 112.842 104.769 114.29 104.754 115.737C106.272 115.856 107.782 116.024 109.312 116.037C109.41 116.037 109.48 116.059 109.571 116.087ZM109.585 127.455C109.606 126.343 109.606 125.231 109.62 124.105C107.949 124.105 106.285 124.029 104.614 124.015C104.587 125.049 104.565 126.099 104.538 127.147C106.215 127.189 107.9 127.433 109.585 127.455ZM109.62 122.169C109.606 120.757 109.592 119.338 109.585 117.926C109.501 117.939 109.41 117.975 109.312 117.975C107.782 117.96 106.272 117.793 104.74 117.68C104.733 119.149 104.691 120.617 104.671 122.078C106.306 122.085 107.964 122.169 109.62 122.169ZM110.473 53.9C110.41 52.0261 110.095 50.1737 110.075 48.3141C109.816 48.2866 109.558 48.2866 109.285 48.2723C108.97 48.4817 108.508 48.4685 108.159 48.2447C106.041 48.1957 103.866 48.2447 101.629 48.4398C100.231 48.5594 98.8322 48.6983 97.4346 48.8526C98.3919 51.362 99.3504 53.8581 100.384 56.3471C103.734 55.4796 107.096 54.6623 110.473 53.9ZM112.71 60.0316C112.829 58.8636 113.073 57.7029 113.319 56.5494C112.431 56.2909 111.417 56.2634 110.487 56.4105C110.669 57.5569 110.899 58.6961 110.99 59.8497C111.019 59.8353 111.032 59.8353 111.046 59.8353C111.248 59.7731 111.417 59.7731 111.585 59.7934C111.745 59.7731 111.907 59.7862 112.102 59.8353C112.311 59.8844 112.507 59.9681 112.71 60.0316ZM114.305 46.4127C114.598 42.8754 115.779 39.5261 116.374 36.0511C113.514 35.7926 110.682 35.6322 107.851 35.5832C108.39 39.0785 108.998 42.5811 109.452 46.0633C111.081 46.1123 112.696 46.2308 114.305 46.4127ZM114.654 22.3903C115.144 18.8746 114.745 15.2739 114.29 11.7714C111.899 11.2114 109.467 10.7997 107.033 10.5413C106.991 14.1276 106.747 17.6923 106.725 21.293C106.725 21.3145 106.712 21.3421 106.712 21.3696C109.403 21.3911 112.067 21.7202 114.654 22.3903ZM114.765 138.969C114.807 134.467 114.396 130.02 114.485 125.518C114.576 121.065 115.193 116.647 114.199 112.249C113.297 112.193 112.375 112.144 111.472 112.087C111.521 120.974 111.809 129.86 110.913 138.739C112.193 138.823 113.472 138.906 114.765 138.969ZM121.974 34.3949C119.052 33.1014 116.037 31.9131 112.891 30.8086C112.081 30.5286 111.676 29.8788 111.585 29.2075C111.068 28.3687 111.068 27.1242 112.102 26.4038C112.857 25.8725 113.563 25.2993 114.248 24.7046C111.752 24.0333 109.194 23.7257 106.592 23.6982C106.683 26.9208 107.047 30.1505 107.509 33.3814C112.298 33.4233 117.107 33.7583 121.974 34.3949ZM105.377 88.9613C109.012 87.6043 112.662 86.2629 116.31 84.9131C113.164 83.0954 106.956 82.3894 105.39 86.0032C104.964 86.9964 105.013 88.0172 105.377 88.9613ZM117.185 62.1783C118.261 61.1013 119.163 59.9131 120.009 58.6686C118.471 57.9626 116.877 57.3678 115.22 56.8569C114.947 58.1648 114.654 59.444 114.598 60.7794C115.493 61.2054 116.332 61.7092 117.149 62.2549C117.163 62.2262 117.171 62.2058 117.185 62.1783ZM116.758 91.485C118.388 89.9473 118.974 88.2134 117.869 86.4017C114.045 87.8149 110.215 89.2198 106.39 90.6462C107.551 92.002 109.285 92.9736 110.837 93.0514C112.891 93.1411 115.171 92.9736 116.758 91.485ZM116.696 139.046C117.68 139.074 118.659 139.074 119.645 139.059C119.569 130.482 118.919 121.394 119.436 112.773C119.45 112.633 119.492 112.522 119.541 112.416C118.415 112.389 117.289 112.36 116.177 112.326C117.031 116.738 116.31 121.05 116.423 125.518C116.541 130.069 116.786 134.516 116.696 139.046ZM121.05 57.0388C122.232 55.0883 123.315 53.0827 124.56 51.1669C120.533 49.7609 116.394 48.8526 112.025 48.4541C112.067 50.3903 112.389 52.3061 112.416 54.2494C112.542 54.2363 112.662 54.2219 112.801 54.2494C115.751 54.8298 118.471 55.8158 121.05 57.0388ZM121.456 18.3924C122.855 17.4339 124.287 16.4897 125.721 15.5324C122.687 14.2389 119.527 13.1415 116.297 12.2883C116.723 15.6999 117.031 19.1534 116.576 22.559C118.128 21.0979 119.674 19.6225 121.456 18.3924ZM124.687 68.1627C125.944 66.6382 127.301 65.1771 128.622 63.7016C126.399 62.1783 124.134 60.7447 121.75 59.5278C120.862 60.8979 119.876 62.2058 118.715 63.3941C119.764 64.1982 120.784 65.0586 121.841 65.925C122.778 66.7016 123.728 67.4423 124.687 68.1627ZM125.7 138.501C125.853 136.508 125.959 134.509 126.021 132.516C124.469 132.789 122.917 132.747 121.337 132.733C121.401 135.333 121.484 137.536 121.534 138.969C122.078 138.927 122.631 138.906 123.177 138.836C124.015 138.739 124.854 138.619 125.7 138.501ZM125.959 116.178C125.93 114.92 125.917 113.654 125.902 112.389C124.378 112.431 122.855 112.437 121.337 112.437C121.365 112.528 121.394 112.619 121.379 112.752C121.323 113.772 121.274 114.913 121.246 116.136C123.386 116.136 124.414 116.136 125.804 116.136C125.853 116.136 125.902 116.163 125.959 116.178ZM126.063 130.628C126.126 126.643 126.063 122.658 125.993 118.674C125.93 118.688 125.882 118.723 125.804 118.723C124.665 118.723 122.281 118.723 121.197 118.723C121.155 122.617 121.212 126.993 121.303 130.797C122.749 130.803 124.21 130.894 125.644 130.615C125.804 130.586 125.93 130.601 126.063 130.628ZM131.426 137.662C131.572 129.203 131.454 120.533 132.356 112.144C130.846 112.235 129.343 112.298 127.846 112.347C127.895 120.988 128.308 129.629 127.651 138.255C128.916 138.075 130.174 137.871 131.426 137.662ZM131.23 60.521C132.46 58.8146 133.418 57.2841 134.865 55.9415C132.09 54.326 129.279 52.9702 126.419 51.8514C125.113 53.8234 123.987 55.8924 122.778 57.9063C125.218 59.1855 127.545 60.6885 129.838 62.2824C130.314 61.7092 130.797 61.1289 131.23 60.521ZM131.299 45.9867C132.258 44.2528 133.111 42.4411 134.005 40.6653C132.398 39.6876 130.768 38.7363 129.112 37.8484C125.49 37.1627 121.883 36.6314 118.297 36.2401C117.744 39.7355 116.485 43.1124 116.219 46.6436C120.471 47.2515 124.638 48.3488 128.762 50.0552C129.37 48.5654 130.524 47.3915 131.299 45.9867ZM136.627 69.546C134.481 67.9592 132.349 66.345 130.174 64.7929C128.839 66.2887 127.496 67.7773 126.224 69.3294C128.21 70.7905 130.223 72.2037 132.258 73.587C133.781 72.315 135.243 70.9724 136.627 69.546ZM118.506 84.1162C123.924 82.1238 129.343 80.117 134.754 78.0971C134.236 77.7405 133.719 77.3767 133.202 77.0129C129.343 74.3492 125.539 71.6293 121.763 68.8471C118.373 66.3653 115.751 63.3031 111.556 62.1005C108.173 63.1213 104.769 64.1073 101.392 65.1352C102.88 67.0642 104.418 68.9524 106.215 70.6086C106.397 70.7773 106.481 70.9724 106.501 71.1542C106.823 71.5671 106.894 72.2659 106.348 72.6787C103.335 74.993 99.6651 76.0688 96.1554 77.4258C92.4985 78.8522 88.8703 80.1804 84.9968 80.8517C84.7599 80.9068 84.5564 80.8446 84.3817 80.7668C84.1161 80.7393 83.8576 80.6064 83.6901 80.3133C82.3403 77.9918 80.6063 75.8391 78.3064 74.4546C75.328 75.8738 72.3424 77.2583 69.2814 78.4597C69.0995 78.6906 68.8123 78.8235 68.4629 78.7684C67.4913 79.1453 66.5124 79.4948 65.512 79.831C69.4346 84.2418 74.0344 87.6331 78.4464 91.576C80.3622 93.2812 82.3199 95.246 84.4092 96.9943C84.4655 96.9584 84.5145 96.9034 84.578 96.8818C90.9046 94.3856 97.2527 91.9744 103.628 89.6111C103.53 89.2892 103.426 88.947 103.363 88.6047C101.845 80.3898 114.017 80.3133 118.506 84.1162ZM135.775 136.885C136.004 135.466 136.215 134.026 136.368 132.607C135.397 132.9 134.418 132.991 133.432 132.9C133.418 134.39 133.39 135.879 133.383 137.354C134.18 137.207 134.971 137.04 135.775 136.885ZM136.523 130.768C136.69 128.818 136.809 126.847 136.872 124.896C135.76 124.938 134.649 125.113 133.537 125.169C133.495 127.105 133.474 129.034 133.46 130.979C134.27 131.068 135.103 130.979 135.893 130.726C136.137 130.65 136.354 130.677 136.523 130.768ZM136.928 115.626C136.928 114.353 136.914 113.088 136.914 111.822C136.046 111.885 135.18 111.949 134.312 112.011C134.159 113.381 134.041 114.758 133.95 116.136C134.893 116.087 135.823 115.884 136.752 115.632C136.823 115.626 136.872 115.632 136.928 115.626ZM136.914 122.946C136.934 121.155 136.949 119.373 136.934 117.59C135.913 117.849 134.865 118.051 133.824 118.079C133.719 119.785 133.642 121.505 133.586 123.224C134.698 123.162 135.802 122.995 136.914 122.946ZM140.92 135.711C142.15 132.293 141.325 127.755 141.325 124.161C141.325 120.373 141.325 113.192 141.325 111.396C140.493 111.48 139.668 111.57 138.85 111.647C138.879 119.967 139.081 128.259 137.802 136.487C138.85 136.263 139.885 136.019 140.92 135.788C140.92 135.76 140.92 135.732 140.92 135.711ZM143.366 61.5417C142.758 61.1145 142.15 60.661 141.542 60.2338C139.899 59.0599 138.256 57.9757 136.613 56.9766C134.452 58.6961 133.146 61.2342 131.405 63.3797C133.572 64.9461 135.733 66.5616 137.935 68.1411C138.193 67.8408 138.466 67.5464 138.724 67.246C140.276 65.4008 141.584 63.1978 143.366 61.5417ZM144.611 48.2447C143.912 47.7062 143.213 47.1462 142.514 46.6018C140.262 44.8188 137.969 43.1902 135.655 41.686C134.88 43.238 134.145 44.8331 133.313 46.3564C132.502 47.8319 131.132 49.2296 130.538 50.845C132.775 51.8657 135.012 53.0684 137.236 54.5079C137.871 54.9064 138.48 55.3336 139.081 55.7464C141.877 54.466 142.954 50.845 144.611 48.2447ZM143.499 81.4596C144.8 80.117 146.135 78.7959 147.463 77.488C144.688 75.3843 141.863 73.3285 139.018 71.2942C138.739 71.092 138.452 70.8814 138.166 70.672C136.809 72.084 135.397 73.4266 133.908 74.6987C134.712 75.2443 135.502 75.7828 136.306 76.3285C138.759 77.9703 141.13 79.7185 143.499 81.4596ZM146.834 134.285C146.863 132.425 146.911 130.573 146.96 128.713C145.939 128.901 144.96 129.279 143.933 129.433C143.946 131.39 143.856 133.37 143.366 135.215C144.534 134.922 145.68 134.607 146.834 134.285ZM146.666 114.018C146.772 114.003 146.848 114.018 146.925 114.032C146.848 112.933 146.743 111.829 146.597 110.746C145.709 110.872 144.8 110.976 143.912 111.095C143.912 112.193 143.912 113.283 143.912 114.367C144.827 114.227 145.757 114.171 146.666 114.018ZM147.016 126.916C147.065 125.337 147.114 123.756 147.128 122.176C146.086 122.505 145.009 122.764 143.912 122.798C143.912 123.875 143.912 124.945 143.912 126.021C143.912 126.497 143.912 126.979 143.926 127.469C144.779 127.315 145.604 127 146.457 126.847C146.666 126.811 146.863 126.847 147.016 126.916ZM147.141 120.149C147.141 118.723 147.107 117.317 147.037 115.905C146.002 116.073 144.947 116.128 143.912 116.332C143.912 117.849 143.912 119.358 143.912 120.862C145.023 120.806 146.086 120.484 147.141 120.149ZM149.057 63.1356C150.931 60.8704 152.358 58.2701 154.594 56.3471C151.868 53.9491 149.008 51.6838 146.108 49.4258C144.416 51.9351 143.415 55.2845 140.842 56.9622C143.653 58.9342 146.366 61.0248 149.057 63.1356ZM148.862 76.0832C150.91 74.0908 152.965 72.1127 155.049 70.1551C151.693 67.6098 148.324 65.1136 144.96 62.6953C142.849 64.5333 141.416 67.1695 139.536 69.2672C139.521 69.2672 139.521 69.2672 139.521 69.2743C142.653 71.518 145.786 73.7557 148.862 76.0832ZM152.909 123.728C152.909 123.652 152.909 123.561 152.924 123.483C152.707 118.918 152.727 114.339 152.742 109.76C151.337 110.018 149.925 110.257 148.498 110.459C149.456 118.212 148.89 125.966 148.771 133.746C150.12 133.355 151.462 132.942 152.798 132.502C152.56 129.671 152.833 126.847 152.86 124.001C152.86 123.903 152.889 123.819 152.909 123.728ZM154.503 98.3297C154.49 98.2663 154.476 98.1969 154.476 98.1335C154.273 96.3505 154.259 94.1487 154.259 92.8552C154.259 92.4842 154.35 92.1695 154.476 91.911C151.462 89.2892 147.387 87.2059 144.338 84.9406C141.801 83.0679 139.256 81.243 136.683 79.4457C131.028 81.5637 125.351 83.6614 119.68 85.7448C121.743 89.793 118.429 93.9321 113.877 94.8751C110.347 95.6026 106.439 94.2947 104.489 91.3594C98.5115 93.5827 92.5619 95.8336 86.6326 98.161C90.4223 99.3361 94.2252 100.28 98.0568 100.903C108.097 102.531 118.199 102.062 128.322 102.133C137.585 102.209 145.722 100.685 154.503 98.3297ZM156.315 84.6199C155.566 83.9199 154.798 83.2354 154.014 82.5988C152.371 81.2562 150.7 79.9638 149.015 78.6703C147.701 79.9914 146.379 81.2921 145.072 82.6407C146.422 83.6196 147.764 84.6199 149.121 85.5844C150.001 86.2067 150.917 86.7942 151.854 87.3602C153.518 86.7093 154.965 85.7591 156.315 84.6199ZM156.677 113.549C156.615 112.053 156.545 110.55 156.531 109.054C155.916 109.18 155.307 109.298 154.685 109.411C154.685 110.99 154.685 112.571 154.685 114.143C155.329 113.927 156.006 113.759 156.677 113.549ZM156.846 131.117C156.846 129.782 156.846 127.496 156.846 126.749C156.091 126.419 155.405 125.993 154.748 125.532C154.685 127.636 154.567 129.762 154.699 131.867C155.405 131.621 156.133 131.377 156.846 131.117ZM156.846 121.505C156.894 119.513 156.846 117.52 156.755 115.542C156.055 115.737 155.342 115.905 154.685 116.206C154.699 118.212 154.734 120.198 154.811 122.204C155.496 121.987 156.182 121.75 156.846 121.505ZM161.383 89.276C160.089 88.2134 158.873 87.0599 157.656 85.8991C156.482 86.933 155.216 87.8628 153.79 88.5904C154.461 89.0307 155.098 89.4783 155.72 89.9749C155.922 89.8983 156.16 89.842 156.419 89.842C158.125 89.8277 159.768 89.6111 161.383 89.276ZM163.997 77.2164C161.564 75.23 159.097 73.2723 156.601 71.3505C154.517 73.3142 152.462 75.279 150.414 77.2858C150.826 77.6077 151.253 77.9152 151.672 78.2503C153.686 79.8442 155.629 81.6834 157.565 83.4939C159.74 81.4381 161.69 79.0819 163.997 77.2164ZM161.152 119.373C161.614 115.597 161.334 111.822 161.278 108.033C160.334 108.25 159.39 108.452 158.446 108.663C158.446 108.676 158.46 108.69 158.46 108.705C158.502 112.71 158.824 116.723 158.797 120.729C159.6 120.393 160.391 120.044 161.18 119.68C161.166 119.582 161.138 119.491 161.152 119.373ZM162.844 73.7414C163.606 72.084 164.619 70.3788 165.92 69.0709C163.145 64.7223 159.74 61.0248 156.028 57.6335C153.762 59.4093 152.371 62.1149 150.575 64.3239C153.182 66.3928 155.797 68.463 158.475 70.4554C159.936 71.5384 161.397 72.644 162.844 73.7414ZM165.899 117.317C165.899 116.15 165.899 114.675 165.899 113.206C165.081 113.577 164.228 113.863 163.347 113.941C163.362 115.542 163.313 117.136 163.158 118.723C164.075 118.261 164.99 117.793 165.899 117.317ZM165.92 106.851C165.032 107.096 164.123 107.327 163.207 107.551C163.222 109.04 163.271 110.529 163.313 112.011C164.123 111.9 164.878 111.57 165.627 111.214C165.718 111.158 165.808 111.144 165.899 111.13C165.899 108.892 165.899 107.082 165.899 107.082C165.899 106.991 165.913 106.929 165.92 106.851ZM173.324 85.2482C170.8 82.9482 168.185 80.6974 165.522 78.4884C163.082 80.3264 161.089 82.6275 158.929 84.724C160.495 86.1432 162.096 87.5002 163.788 88.6813C167.025 87.7443 170.143 86.4436 173.324 85.2482ZM170.569 114.898C170.178 111.822 170.583 108.718 170.129 105.65C169.57 105.83 169.003 105.999 168.458 106.152C168.004 106.285 167.542 106.411 167.074 106.543C167.137 106.683 167.192 106.851 167.192 107.082C167.192 109.48 167.192 113.241 167.192 116.632C167.787 116.318 168.367 116.01 168.961 115.688C169.492 115.402 170.038 115.157 170.569 114.898ZM173.66 108.145C173.66 106.698 173.66 105.362 173.66 104.447C173.1 104.656 172.534 104.845 171.988 105.04C172.17 106.257 172.226 107.488 172.234 108.725C172.736 108.572 173.233 108.417 173.66 108.145ZM173.66 113.437C173.66 112.48 173.66 111.368 173.66 110.242C173.617 110.257 173.582 110.277 173.526 110.291C173.08 110.438 172.639 110.564 172.247 110.808C172.247 111.871 172.289 112.948 172.401 113.99C172.82 113.808 173.247 113.633 173.66 113.437ZM178.162 90.5133C178.029 89.6111 177.918 88.7028 177.812 87.7862C171.213 89.8277 165.138 93.0789 158.202 93.6306C158.188 93.6593 158.167 93.7012 158.138 93.7215C158.153 94.7566 158.174 96.0645 158.265 97.2947C165.2 95.3298 171.87 93.2321 178.162 90.5133ZM176.246 112.298C177.232 111.885 178.211 111.459 179.204 111.032C179.141 108.194 178.533 105.432 178.253 102.622C177.574 102.908 176.903 103.188 176.246 103.454C176.246 106.76 176.246 109.165 176.246 112.298ZM180.413 77.482C182.35 76.0556 184.405 74.7334 186.167 73.0772C180.343 72.315 174.512 71.5252 168.486 71.518C167.787 71.518 167.298 71.2033 166.983 70.7773C165.899 71.9931 165.067 73.496 164.41 74.944C167.605 77.3971 170.737 79.922 173.771 82.5713C175.96 80.8446 178.162 79.131 180.413 77.482ZM180.525 105.328C181.022 105.118 181.511 104.915 181.999 104.705C181.951 103.454 181.923 102.195 181.91 100.944C181.287 101.238 180.671 101.538 180.049 101.818C180.085 101.902 180.112 101.978 180.127 102.062C180.218 103.167 180.371 104.251 180.525 105.328ZM182.168 109.76C182.223 109.725 182.259 109.683 182.314 109.647C182.223 108.69 182.154 107.719 182.09 106.747C181.664 106.914 181.224 107.111 180.811 107.327C180.937 108.277 181.042 109.243 181.098 110.2C181.391 110.075 181.706 109.942 181.999 109.802C182.063 109.774 182.119 109.774 182.168 109.76ZM184.719 112.969C184.817 112.892 184.923 112.815 185.027 112.738C184.328 112.298 183.594 111.92 182.853 111.536C177.952 113.759 173.038 115.71 168.276 118.261C165.054 119.995 161.837 121.638 158.475 122.966C158.307 123.113 158.083 123.19 157.88 123.204C157.196 123.463 156.496 123.707 155.811 123.938C156.44 124.392 157.09 124.805 157.838 125.064C167.361 122.267 175.806 117.38 184.65 113.059C184.677 113.032 184.692 112.997 184.719 112.969ZM185.167 118.142C185.418 117.031 185.545 115.892 185.622 114.744C176.966 118.974 168.668 123.707 159.432 126.588C159.432 127.496 159.432 128.93 159.432 130.16C160.684 129.678 161.928 129.203 163.18 128.699C169.794 125.966 177.847 123.616 183.657 119.323C184.16 118.932 184.663 118.548 185.167 118.142ZM186.453 111.396C186.348 110.333 186.229 109.285 186.18 108.277C185.985 105.146 185.852 102.027 185.803 98.8958C185.146 99.2727 184.482 99.6221 183.824 99.9727C183.824 100.007 183.839 100.035 183.853 100.077C183.853 103.439 183.964 106.774 184.293 110.109C185.027 110.515 185.754 110.914 186.453 111.396ZM187.823 101.909C188.509 101.51 189.193 101.098 189.879 100.692C189.746 99.3924 189.579 98.0844 189.39 96.7634C188.831 97.1271 188.264 97.4765 187.691 97.8116C187.705 97.8607 187.719 97.9169 187.732 97.9791C187.732 99.287 187.781 100.594 187.823 101.909ZM189.655 106.942C189.85 106.865 190.061 106.838 190.25 106.851C190.201 105.51 190.138 104.174 190.047 102.853C189.348 103.279 188.635 103.705 187.9 104.083C187.949 105.328 188.012 106.565 188.096 107.824C188.613 107.509 189.117 107.187 189.655 106.942ZM188.62 115.233C189.208 114.702 189.788 114.158 190.354 113.619C190.354 111.99 190.347 110.382 190.305 108.795C189.803 109.067 189.313 109.361 188.802 109.647C188.613 109.76 188.418 109.774 188.236 109.746C188.404 111.556 188.635 113.423 188.62 115.233ZM191.082 65.1005C193.808 65.128 196.542 65.3099 199.268 65.5265C195.709 53.0193 181.224 45.8395 172.079 37.6521C160.425 27.2151 147.352 19.455 132.006 15.8471C129.601 17.5954 127.091 19.224 124.665 20.8873C121.624 22.985 119.141 25.6344 116.359 27.963C126.916 31.8712 136.368 36.6805 145.269 43.8603C153.546 50.5518 161.928 56.6056 168.031 65.2537C168.171 65.0095 168.424 64.8408 168.808 64.8899C176.26 65.6593 183.615 65.0371 191.082 65.1005ZM181.804 88.8488C189.089 85.3188 195.787 80.774 201.673 74.4402C197.276 74.3983 192.927 73.9364 188.586 73.3919C188.586 73.3919 188.586 73.4051 188.571 73.4195C186.977 75.23 184.992 76.5235 183.049 77.9284C180.413 79.8585 177.798 81.8366 175.24 83.8708C175.429 84.0324 175.611 84.2071 175.806 84.3746C176.54 84.1305 177.295 83.878 178.056 83.6758C179.077 82.7807 181.251 83.2558 181.42 85.095C181.539 86.3539 181.664 87.6043 181.804 88.8488ZM192.284 111.718C192.843 111.144 193.396 110.577 193.941 109.998C193.745 104.831 192.843 99.7418 192.619 94.5747C192.116 94.9385 191.613 95.3023 191.095 95.6517C191.131 95.7283 191.173 95.8049 191.2 95.9102C192.012 101.132 192.235 106.362 192.284 111.718ZM197.031 95.3932C196.85 94.1344 196.633 92.8827 196.373 91.6382C195.751 92.1695 195.116 92.6733 194.479 93.1842C194.493 93.2321 194.508 93.2812 194.508 93.3518C194.535 94.4347 194.597 95.5189 194.675 96.609C195.521 96.323 196.29 95.8826 197.031 95.3932ZM197.625 101.098C197.548 99.8949 197.443 98.6995 197.317 97.5112C196.542 97.966 195.709 98.3644 194.843 98.5882C194.948 99.6855 195.067 100.797 195.192 101.902C196.06 101.86 196.821 101.419 197.625 101.098ZM197.821 105.586C197.792 104.768 197.765 103.958 197.73 103.139C196.968 103.461 196.227 103.761 195.402 103.825C195.542 105.208 195.674 106.592 195.773 107.991C196.193 107.522 196.604 107.062 197.003 106.579C197.29 106.257 197.548 105.921 197.821 105.586ZM202.435 97.9241C202.295 95.6242 202.05 93.323 201.659 91.0447C201.442 89.7655 201.078 88.5341 200.82 87.2836C199.939 88.2756 199.009 89.2341 198.031 90.1568C198.031 90.1699 198.038 90.1699 198.038 90.1771C199.024 94.4215 199.477 98.7282 199.666 103.062C200.771 101.405 201.659 99.6855 202.435 97.9241ZM203.966 93.7359C205.35 89.1432 205.945 84.3052 206.175 79.3416C205.176 81.4596 203.924 83.4664 202.435 85.3535C202.463 85.4229 202.492 85.4588 202.492 85.521C202.68 87.8915 203.512 90.219 203.82 92.5895C203.875 92.9736 203.911 93.3649 203.966 93.7359ZM209.874 66.2887C207.455 60.1847 201.917 55.3755 197.667 50.5518C192.375 44.5316 186.488 39.2461 180.245 34.2406C173.002 28.4309 165.276 24.2642 156.803 20.5248C150.001 17.5248 142.835 15.4343 136.033 12.5121C135.928 12.7012 135.788 12.8831 135.578 13.065C135.061 13.5053 134.53 13.917 134.005 14.3298C149.91 18.3924 162.781 26.9698 175.079 37.7299C184.328 45.8108 197.947 52.6974 201.275 65.4355C201.295 65.5265 201.289 65.6174 201.289 65.694C204.148 65.9393 207.001 66.1703 209.874 66.2887ZM210.887 69.8475C210.796 69.3019 210.678 68.7706 210.531 68.2536C204.029 68.0358 197.59 66.96 191.082 67.0366C183.957 67.1204 176.868 67.5464 169.752 66.911C169.765 66.9385 169.779 66.96 169.779 66.9876V67.6589C183.691 67.9592 196.891 72.3712 210.887 69.8475ZM214.943 71.4127C215.012 72.4753 214.335 73.0772 213.538 73.2376C213.405 73.301 213.251 73.3501 213.083 73.3919C212.111 73.587 211.153 73.7557 210.188 73.8945C210.112 85.6263 209.175 98.4686 201.142 107.733C196.926 112.584 192.466 117.597 187.278 121.428C181.692 125.567 175.001 127.922 168.64 130.601C154.608 136.487 140.751 140.702 125.581 142.436C117.562 143.366 109.438 142.36 101.392 142.213C94.2252 142.101 88.9612 140.521 82.4037 138.179C70.7629 149.379 50.2933 130.755 41.2252 123.512C32.7518 116.758 22.8318 110.808 15.987 102.251C9.93208 94.6513 4.55681 86.221 0.390141 77.4533C0.130472 76.922 0.130472 76.4051 0.284837 75.9503C0.250135 75.7828 0.221416 75.6009 0.235776 75.3975C0.438007 70.4698 0.0538874 65.0718 0.850844 60.1991C1.30556 57.3678 2.70323 55.3467 5.15034 54.6623C5.04623 51.3273 5.36693 48.0138 5.40881 44.6788C5.40881 44.4203 5.45788 44.1822 5.53566 43.9799C5.83601 34.8628 8.66724 26.4876 16.6093 21.1255C26.8369 14.2042 37.2895 12.3518 49.0978 10.5269C49.111 10.5197 49.111 10.5197 49.111 10.5054C49.1397 10.1428 49.1672 9.79217 49.1672 9.42959C49.1672 9.18428 49.2163 8.94017 49.3072 8.7164C49.3838 8.24014 49.6423 7.78662 50.1245 7.42284C57.2206 2.31921 66.1833 0.843759 74.7129 0.0539826C74.8673 0.039623 75.0205 0.039623 75.1533 0.0539826C75.7827 0.0121004 76.4193 0.270573 76.8178 1.01129C77.9079 3.05274 78.1808 5.3048 78.243 7.57003C87.8352 7.32472 97.4202 5.50703 107.005 6.71683C114.654 7.66695 121.896 9.54806 128.93 12.7155C129.112 12.7921 129.252 12.8962 129.385 13.0015C130.573 12.1483 131.74 11.2676 132.838 10.3235C132.929 10.0794 133.069 9.85559 133.264 9.6737C133.341 9.59712 133.432 9.54806 133.509 9.47147C133.872 8.69486 134.725 8.08697 135.718 8.24014C136.159 8.2545 136.592 8.42203 136.934 8.69486C145.968 12.7574 155.553 15.4834 164.543 19.8044C172.611 23.6839 179.608 28.5566 186.453 34.3315C193.655 40.4068 200.275 47.1749 206.406 54.3404C210.713 59.3674 214.495 64.6111 214.943 71.4127ZM123.603 106.012C113.228 106.076 102.391 106.481 92.3034 103.594C92.1706 103.552 92.0437 103.517 91.9109 103.475C91.7721 103.503 91.6034 103.503 91.4359 103.461C90.5695 103.257 89.7366 102.944 88.9265 102.593C81.243 100.231 73.5869 97.2803 66.1702 93.7634C65.9392 93.7359 65.6939 93.6737 65.4773 93.463C65.4498 93.4355 65.4079 93.4008 65.3732 93.3649C55.1372 88.43 45.4409 82.3894 36.9042 75.2515C29.7387 69.2528 23.3068 62.499 17.6444 55.0464C14.6791 51.1454 11.4638 47.1881 9.47138 42.7977C9.4295 43.4486 9.40796 44.1056 9.39479 44.7769C9.39479 45.0425 9.33855 45.2591 9.26197 45.4614C9.24761 45.7629 9.24761 46.0489 9.23325 46.3421C11.1 50.2156 14.2184 53.1868 16.5327 56.7947C19.5458 61.4783 22.7408 66.1068 26.8931 69.8607C35.0661 77.2583 43.8255 83.7524 53.0467 89.7511C57.2493 92.4986 61.2688 95.6864 65.7358 98.0079C71.141 100.797 76.7544 102.167 82.5222 103.887C92.2747 106.816 101.887 109.984 112.193 110.151C129.398 110.438 147.736 109.76 164.41 105.271C179.077 101.314 200.016 91.8763 205.427 76.0269C192.528 90.6593 173.296 97.1762 155.147 102.195C144.31 105.195 134.845 105.95 123.603 106.012Z" fill="#1374BA"/>
</g>
</svg>
