<svg width="223" height="216" viewBox="0 0 223 216" fill="none" xmlns="http://www.w3.org/2000/svg">
<path d="M188.802 178.125C186.606 178.125 184.476 176.995 183.315 174.974L156.575 131.374C154.846 128.382 155.521 124.63 158.544 122.911L189.852 104.161C190.837 103.605 192.981 103.125 194.043 103.125C196.243 103.125 198.288 104.361 199.449 106.382L219.068 138.393L220.103 152.345C221.833 155.337 214.054 159.742 211.021 161.454L191.924 177.3C190.943 177.864 189.863 178.125 188.802 178.125Z" fill="#183E00"/>
<path d="M144.595 196.875C141.103 196.875 138.282 194.079 138.282 190.622V153.126C138.282 149.669 141.103 146.873 144.595 146.873H207.738C219.42 146.873 217.525 135.743 217.525 135.743C217.525 135.743 219.593 139.254 219.894 139.81C221.958 143.649 223.328 149.513 220.11 155.467L200.605 193.73C199.687 195.537 197.502 196.875 195.111 196.875H144.595Z" fill="#77B255"/>
<path d="M138.282 215.626C136.641 215.626 135.025 214.986 133.817 213.793L95.9306 176.293C93.4626 173.85 93.4626 169.899 95.9306 167.456L133.817 129.956C135.025 128.764 136.641 128.124 138.282 128.124C139.098 128.124 139.917 128.277 140.699 128.6C143.06 129.564 144.596 131.85 144.596 134.376V209.373C144.596 211.899 143.06 214.186 140.699 215.149C139.917 215.473 139.098 215.626 138.282 215.626Z" fill="#77B255"/>
<path d="M129.398 17.4952C130.394 19.4327 130.346 21.8174 129.057 23.7694L101.95 67.1439C100.036 70.0375 96.3564 71.1353 93.4367 69.245L62.3449 50.1569C61.3974 49.5353 59.9834 47.8631 59.506 46.9325C58.5071 44.995 58.6907 42.6322 59.9797 40.6801L79.8813 8.84354L91.9677 1.5987C93.8811 -1.29487 101.373 3.56895 104.296 5.47013L127.224 15.1178C128.186 15.7358 128.917 16.5682 129.398 17.4952Z" fill="#183E00"/>
<path d="M166.344 47.9693C167.927 51.0519 166.704 54.807 163.583 56.381L129.821 73.408C126.714 74.9675 122.913 73.7497 121.334 70.6744L92.6547 14.9877C87.3588 4.68206 78.1958 11.4071 78.1958 11.4071C78.1958 11.4071 80.4177 7.99368 80.785 7.47021C83.3043 3.90778 87.9501 0.0436217 94.7774 0.174487L138.088 0C140.133 0 142.322 1.30502 143.417 3.42067L166.344 47.9693Z" fill="#77B255"/>
<path d="M186.088 45.032C186.834 46.4752 186.992 48.1873 186.467 49.7941L169.918 100.239C168.842 103.518 165.283 105.314 161.96 104.248L111.003 87.8576C109.376 87.3378 108.076 86.2 107.323 84.7568C106.952 84.0444 106.717 83.2446 106.647 82.4049C106.445 79.8821 107.808 77.4938 110.081 76.3488L177.594 42.302C179.867 41.1497 182.614 41.4623 184.56 43.1127C185.211 43.6507 185.721 44.3123 186.088 45.032Z" fill="#77B255"/>
<path d="M20.6799 150.263C21.822 148.405 23.897 147.202 26.2475 147.271L77.7771 147.3C81.2697 147.405 84.149 149.925 84.0608 153.374L83.9727 189.595C83.9396 190.718 83.2419 192.794 82.691 193.681C81.5488 195.538 79.4151 196.632 77.0646 196.563L39.241 196.513L26.6588 190.144C23.1772 190.038 23.4196 181.176 23.5077 177.733L19.7617 153.331C19.7874 152.215 20.129 151.157 20.6799 150.263Z" fill="#183E00"/>
<mask id="mask0_910_100" style="mask-type:luminance" maskUnits="userSpaceOnUse" x="0" y="99" width="72" height="99">
<path d="M0 99.2998H71.7471V197.012H0V99.2998Z" fill="white"/>
</mask>
<g mask="url(#mask0_910_100)">
<path d="M27.4739 103.135C29.2845 100.187 33.1664 99.2488 36.1485 101.041L68.5148 120.536C71.5005 122.328 72.4444 126.167 70.6301 129.122L37.8159 182.519C31.7525 192.392 42.3441 196.58 42.3441 196.58C42.3441 196.58 38.2382 196.492 37.5992 196.456C33.2068 196.216 27.4409 194.322 23.9667 188.51L1.07194 152.136C-0.00779322 150.417 -0.0261567 147.872 1.21884 145.848L27.4739 103.135Z" fill="#77B255"/>
</g>
<path d="M14.565 88.0573C15.4244 86.6578 16.8089 85.6326 18.4689 85.2182L70.5311 72.6806C73.9209 71.8555 77.329 73.913 78.159 77.2682L90.8293 128.793C91.2333 130.443 90.9358 132.13 90.0838 133.526C89.6688 134.205 89.1069 134.823 88.4164 135.325C86.3598 136.812 83.5944 136.924 81.4092 135.612L16.6877 96.6435C14.5026 95.3239 13.3347 92.8375 13.7277 90.3438C13.8525 89.5077 14.1427 88.7443 14.565 88.0573Z" fill="#77B255"/>
</svg>
