<svg width="94" height="198" viewBox="0 0 94 198" fill="none" xmlns="http://www.w3.org/2000/svg">
<mask id="mask0_910_116" style="mask-type:luminance" maskUnits="userSpaceOnUse" x="26" y="0" width="44" height="92">
<path d="M26.0471 0H69.5484V91.917H26.0471V0Z" fill="white"/>
</mask>
<g mask="url(#mask0_910_116)">
<path d="M28.3629 90.0145C43.2165 79.8222 61.6852 67.141 69.1553 44.6907V0H26.5703V91.2473C27.1634 90.8408 27.7598 90.4277 28.3629 90.0145Z" fill="#002F1F"/>
</g>
<path d="M50.1768 164.758L49.8636 164.975C45.4789 167.984 32.5611 176.853 32.7444 194.126H69.1553V150.098C64.3007 154.363 58.0701 159.314 50.1768 164.758Z" fill="#002F1F"/>
<path d="M18.3439 187.449C18.3439 187.449 -20.9092 136.161 15.4251 103.462C30.5086 89.8878 61.6285 77.4799 72.1507 45.3804C72.1507 45.3804 113.43 86.446 81.7432 132.3C81.7432 132.3 73.9899 144.624 48.4509 162.233C44.2593 165.125 28.013 175.744 29.8289 197.038C29.8289 197.038 4.51983 134.539 63.9309 84.81C63.9275 84.81 4.96297 116.766 18.3439 187.449Z" fill="#5FA35A"/>
</svg>
