<svg width="179" height="204" viewBox="0 0 179 204" fill="none" xmlns="http://www.w3.org/2000/svg">
<mask id="mask0_910_86" style="mask-type:luminance" maskUnits="userSpaceOnUse" x="0" y="0" width="160" height="181">
<path d="M0 0H159.658V180.027H0V0Z" fill="white"/>
</mask>
<g mask="url(#mask0_910_86)">
<path d="M94.5004 168.71C91.8766 160.299 90.9459 152.345 91.722 145.027C61.3724 144.666 39.9006 121.446 39.9006 89.9081V89.4102C39.9006 59.8607 61.9562 35.2774 89.7129 35.2774C109.787 35.2774 121.684 41.7341 135.064 52.9061L159.101 23.8547C141.009 8.45833 122.178 0.0131836 90.9527 0.0131836C38.417 0.0131836 0.00341797 40.4908 0.00341797 89.9081V90.4027C0.00341797 141.805 37.1772 179.8 91.2 179.8C93.7517 179.8 96.2589 179.717 98.7179 179.563C97.1896 176.273 95.7197 172.615 94.5004 168.71Z" fill="#002F1F"/>
</g>
<mask id="mask1_910_86" style="mask-type:luminance" maskUnits="userSpaceOnUse" x="93" y="66" width="86" height="138">
<path d="M93.7175 66.6108H179V203.097H93.7175V66.6108Z" fill="white"/>
</mask>
<g mask="url(#mask1_910_86)">
<path d="M110.632 194.514C110.632 194.514 75.4568 148.589 108.018 119.311C121.536 107.153 149.423 96.0431 158.851 67.3008C158.851 67.3008 195.842 104.073 167.447 145.134C167.447 145.134 160.499 156.169 137.612 171.936C133.855 174.526 119.297 184.035 120.925 203.1C120.925 203.1 98.244 147.136 151.484 102.606C151.484 102.606 98.6424 131.222 110.632 194.514Z" fill="#5FA35A"/>
</g>
<path d="M72 67V117.089H111.453C113.255 115.833 115.094 114.568 116.969 113.286C133.51 101.943 153.354 88.3281 165.568 67H72Z" fill="#002F1F"/>
</svg>
