<svg xmlns="http://www.w3.org/2000/svg" xmlns:xlink="http://www.w3.org/1999/xlink" width="1920" zoomAndPan="magnify" viewBox="0 0 1440 809.999993" height="1080" preserveAspectRatio="xMidYMid meet" version="1.0"><defs><clipPath id="e262ddb8ab"><path d="M 558.882812 243 L 881.382812 243 L 881.382812 567 L 558.882812 567 Z M 558.882812 243 " clip-rule="nonzero"/></clipPath></defs><g clip-path="url(#e262ddb8ab)"><path fill="#23395b" d="M 834.132812 290.210938 C 803.847656 259.890625 763.570312 243.164062 720.65625 243.164062 C 632.230469 243.164062 560.261719 315.117188 560.226562 403.574219 C 560.226562 431.84375 567.609375 459.457031 581.644531 483.773438 L 558.882812 566.898438 L 643.929688 544.585938 C 667.367188 557.375 693.746094 564.097656 720.589844 564.113281 L 720.65625 564.113281 C 809.0625 564.113281 881.050781 492.144531 881.066406 403.703125 C 881.066406 360.835938 864.417969 320.542969 834.117188 290.210938 Z M 720.65625 537.03125 L 720.605469 537.03125 C 696.691406 537.03125 673.207031 530.59375 652.734375 518.445312 L 647.867188 515.546875 L 597.398438 528.785156 L 610.859375 479.578125 L 607.691406 474.535156 C 594.339844 453.3125 587.296875 428.769531 587.3125 403.574219 C 587.34375 330.070312 647.164062 270.25 720.703125 270.25 C 756.320312 270.25 789.792969 284.144531 814.972656 309.355469 C 840.152344 334.550781 853.996094 368.054688 853.980469 403.6875 C 853.949219 477.210938 794.128906 537.03125 720.640625 537.03125 Z M 793.792969 437.175781 C 789.792969 435.175781 770.085938 425.472656 766.40625 424.144531 C 762.722656 422.800781 760.066406 422.144531 757.390625 426.144531 C 754.71875 430.164062 747.035156 439.191406 744.699219 441.863281 C 742.359375 444.539062 740.023438 444.875 736.007812 442.859375 C 732.003906 440.855469 719.085938 436.613281 703.765625 422.960938 C 691.859375 412.332031 683.804688 399.207031 681.46875 395.1875 C 679.132812 391.167969 681.230469 389.007812 683.230469 387.007812 C 685.023438 385.214844 687.230469 382.316406 689.25 379.980469 C 691.25 377.644531 691.921875 375.960938 693.25 373.289062 C 694.59375 370.617188 693.921875 368.277344 692.914062 366.261719 C 691.90625 364.261719 683.902344 344.523438 680.554688 336.503906 C 677.308594 328.691406 673.992188 329.75 671.542969 329.621094 C 669.207031 329.507812 666.535156 329.476562 663.859375 329.476562 C 661.1875 329.476562 656.847656 330.46875 653.167969 334.488281 C 649.484375 338.503906 639.144531 348.207031 639.144531 367.925781 C 639.144531 387.648438 653.503906 406.710938 655.519531 409.402344 C 657.523438 412.074219 683.789062 452.558594 724 469.925781 C 733.558594 474.054688 741.03125 476.519531 746.859375 478.378906 C 756.464844 481.4375 765.203125 481.003906 772.101562 479.964844 C 779.800781 478.808594 795.808594 470.261719 799.15625 460.898438 C 802.5 451.535156 802.5 443.515625 801.492188 441.832031 C 800.484375 440.152344 797.8125 439.160156 793.808594 437.144531 Z M 793.792969 437.175781 " fill-opacity="1" fill-rule="evenodd"/></g></svg>