<svg width="153" height="153" viewBox="0 0 153 153" fill="none" xmlns="http://www.w3.org/2000/svg">
<mask id="mask0_1038_779" style="mask-type:luminance" maskUnits="userSpaceOnUse" x="44" y="123" width="110" height="31">
<path d="M44.0386 123.251H153.002V153.001H44.0386V123.251Z" fill="white"/>
</mask>
<g mask="url(#mask0_1038_779)">
<path d="M53.9755 128.998L83.9045 123.387H113.518L143.445 128.998C148.986 130.039 153 134.875 153 140.512V153.001H44.4204V140.512C44.4204 134.875 48.4361 130.039 53.9755 128.998Z" fill="#CC5D52"/>
</g>
<path d="M92.2014 133.259H105.221C109.803 133.259 113.518 129.544 113.518 124.962V106.114H83.9043V124.962C83.9043 129.544 87.6194 133.259 92.2014 133.259Z" fill="#D8BF9C"/>
<path d="M80.2908 106.73L90.1448 113C95.3706 116.327 102.05 116.327 107.278 113L117.13 106.73C122.61 103.244 126.082 97.3371 126.464 90.8532L128.323 56.759H69.0977L70.9589 90.8532C71.3389 97.3371 74.8104 103.244 80.2908 106.73Z" fill="#FFE2B8"/>
<path d="M64.1616 64.1617H113.704C128.592 64.1617 140.662 52.0923 140.662 37.2025V34.5481H87.4426C74.5856 34.5481 64.1616 44.9721 64.1616 57.8291V64.1617Z" fill="#3E455B"/>
<path d="M135.727 74.0322C134.364 74.0322 133.259 72.9273 133.259 71.5641V54.291C133.259 35.2398 117.761 19.7413 98.7111 19.7413C79.6599 19.7413 64.1614 35.2398 64.1614 54.291V71.5641C64.1614 72.9273 63.0565 74.0322 61.6952 74.0322C60.332 74.0322 59.2271 72.9273 59.2271 71.5641V54.291C59.2271 32.519 76.9391 14.8069 98.7111 14.8069C120.483 14.8069 138.195 32.519 138.195 54.291V71.5641C138.195 72.9273 137.09 74.0322 135.727 74.0322Z" fill="#3E455B"/>
<path d="M132.396 93.7752H137.478C143.325 93.7752 148.066 89.0345 148.066 83.1871V74.7498C148.066 68.9023 143.325 64.1616 137.478 64.1616H132.396C130.147 64.1616 128.323 65.9841 128.323 68.2327V89.7023C128.323 91.9509 130.147 93.7752 132.396 93.7752Z" fill="#CC5D52"/>
<path d="M98.7132 108.58C98.6578 108.58 98.6025 108.578 98.5472 108.575L68.8875 106.599C63.4311 106.234 59.0317 102.024 58.4285 96.5882L56.7739 81.7077C56.6245 80.3537 57.6003 79.1326 58.9542 78.9831C60.31 78.8337 61.5293 79.8077 61.6806 81.1635L63.3334 96.0441C63.6728 99.1006 66.1464 101.469 69.2159 101.674L98.8755 103.651C100.235 103.742 101.264 104.919 101.174 106.278C101.087 107.582 100.001 108.58 98.7132 108.58Z" fill="#7A3831"/>
<path d="M65.0265 93.7752H59.9427C54.0953 93.7752 49.3564 89.0345 49.3564 83.1871V74.7498C49.3564 68.9023 54.0953 64.1616 59.9427 64.1616H65.0265C67.2751 64.1616 69.0976 65.9841 69.0976 68.2327V89.7023C69.0976 91.9509 67.2751 93.7752 65.0265 93.7752Z" fill="#CC5D52"/>
<path d="M59.2271 64.1856V93.7494C59.465 93.766 59.7011 93.7752 59.9428 93.7752H65.0265C67.2751 93.7752 69.0976 91.9509 69.0976 89.7023V68.2327C69.0976 65.9841 67.2751 64.1616 65.0265 64.1616H59.9428C59.7011 64.1616 59.465 64.1708 59.2271 64.1856Z" fill="#6A769C"/>
<path d="M138.195 64.1856V93.7494C137.957 93.766 137.719 93.7752 137.479 93.7752H132.396C130.147 93.7752 128.323 91.9509 128.323 89.7023V68.2327C128.323 65.9841 130.147 64.1616 132.396 64.1616H137.479C137.719 64.1616 137.957 64.1708 138.195 64.1856Z" fill="#6A769C"/>
<mask id="mask1_1038_779" style="mask-type:luminance" maskUnits="userSpaceOnUse" x="0" y="0" width="60" height="55">
<path d="M0 0H59.6218V54.3057H0V0Z" fill="white"/>
</mask>
<g mask="url(#mask1_1038_779)">
<path d="M8.57564 0H50.6514C55.3884 0 59.2271 3.83866 59.2271 8.57381V25.9741C59.2271 30.7093 55.3884 34.5479 50.6514 34.5479H44.8685L46.8884 54.2909L26.6972 34.5479H8.57564C3.8405 34.5479 0 30.7093 0 25.9741V8.57381C0 3.83866 3.8405 0 8.57564 0Z" fill="#F2D061"/>
</g>
<path d="M34.5497 12.3386H9.8724C8.50922 12.3386 7.4043 11.2336 7.4043 9.87045C7.4043 8.50727 8.50922 7.40234 9.8724 7.40234H34.5497C35.9129 7.40234 37.0178 8.50727 37.0178 9.87045C37.0178 11.2336 35.9129 12.3386 34.5497 12.3386Z" fill="#3E455B"/>
<path d="M49.3565 19.7413H9.8724C8.50922 19.7413 7.4043 18.6363 7.4043 17.275C7.4043 15.9118 8.50922 14.8069 9.8724 14.8069H49.3565C50.7178 14.8069 51.8228 15.9118 51.8228 17.275C51.8228 18.6363 50.7178 19.7413 49.3565 19.7413Z" fill="#3E455B"/>
<path d="M49.3565 27.1457H9.8724C8.50922 27.1457 7.4043 26.0408 7.4043 24.6776C7.4043 23.3144 8.50922 22.2095 9.8724 22.2095H49.3565C50.7178 22.2095 51.8228 23.3144 51.8228 24.6776C51.8228 26.0408 50.7178 27.1457 49.3565 27.1457Z" fill="#3E455B"/>
</svg>
