<svg width="202" height="140" viewBox="0 0 202 140" fill="none" xmlns="http://www.w3.org/2000/svg">
<path d="M164.953 94.8319H137.701C136.338 94.8319 135.274 93.6516 135.417 92.2947L137.201 75.3211C137.254 74.8064 137.718 74.3874 138.233 74.3874H148.977C150.402 74.3874 151.708 74.9531 152.609 75.9591L166.62 91.6184C167.684 92.8051 166.629 94.8319 164.953 94.8319ZM177.984 97.0969L156.663 73.2709C154.789 71.1781 152.073 70.002 149.113 70.002H134.011C132.731 70.002 131.506 70.4359 130.489 71.1611L131.259 63.8344C131.612 60.4848 128.985 57.5669 125.619 57.5669H19.2108C17.1649 57.5669 15.506 59.2258 15.506 61.2738C15.506 63.3198 17.1649 64.9786 19.2108 64.9786H72.5328C74.5788 64.9786 76.2376 66.6375 76.2376 68.6834C76.2376 70.7315 74.5788 72.3904 72.5328 72.3904H26.7204C24.6744 72.3904 23.0156 74.0493 23.0156 76.0952C23.0156 78.1411 24.6744 79.8021 26.7204 79.8021H68.862C70.908 79.8021 72.5668 81.4589 72.5668 83.5069C72.5668 85.5529 70.908 87.2117 68.862 87.2117H9.56809C7.52215 87.2117 5.86328 88.8706 5.86328 90.9166C5.86328 92.9646 7.52215 94.6235 9.56809 94.6235H51.5481C53.5962 94.6235 55.2551 96.2824 55.2551 98.3283C55.2551 100.374 53.5962 102.035 51.5481 102.035H25.5889C23.543 102.035 21.8841 103.694 21.8841 105.74C21.8841 107.786 23.543 109.445 25.5889 109.445H36.261L35.2146 119.394C34.8637 122.743 37.4881 125.659 40.8569 125.659H59.9998C59.9998 116.102 67.7753 108.326 77.3329 108.326C86.8905 108.326 94.6638 116.102 94.6638 125.659H131.095C131.095 116.102 138.871 108.326 148.428 108.326C157.984 108.326 165.759 116.102 165.759 125.659H170.261C174.675 125.659 178.628 122.08 179.092 117.667L180.425 104.989C180.736 102.029 179.857 99.1918 177.984 97.0969Z" fill="#23395B"/>
<mask id="mask0_1038_744" style="mask-type:luminance" maskUnits="userSpaceOnUse" x="133" y="111" width="30" height="29">
<path d="M133.888 111.172H162.948V140H133.888V111.172Z" fill="white"/>
</mask>
<g mask="url(#mask0_1038_744)">
<path d="M148.428 131.863C145.006 131.863 142.222 129.081 142.222 125.659C142.222 122.237 145.006 119.456 148.428 119.456C151.848 119.456 154.632 122.237 154.632 125.659C154.632 129.081 151.848 131.863 148.428 131.863ZM148.428 111.25C140.483 111.25 134.02 117.714 134.02 125.659C134.02 133.603 140.483 140.066 148.428 140.066C156.372 140.066 162.835 133.603 162.835 125.659C162.835 117.714 156.372 111.25 148.428 111.25Z" fill="#23395B"/>
</g>
<mask id="mask1_1038_744" style="mask-type:luminance" maskUnits="userSpaceOnUse" x="62" y="111" width="30" height="29">
<path d="M62.9116 111.172H91.8291V140H62.9116V111.172Z" fill="white"/>
</mask>
<g mask="url(#mask1_1038_744)">
<path d="M77.3331 131.863C73.9111 131.863 71.1293 129.081 71.1293 125.659C71.1293 122.237 73.9111 119.456 77.3331 119.456C80.755 119.456 83.5368 122.237 83.5368 125.659C83.5368 129.081 80.755 131.863 77.3331 131.863ZM77.3331 111.25C69.3875 111.25 62.9243 117.714 62.9243 125.659C62.9243 133.603 69.3875 140.066 77.3331 140.066C85.2765 140.066 91.7397 133.603 91.7397 125.659C91.7397 117.714 85.2765 111.25 77.3331 111.25Z" fill="#23395B"/>
</g>
<mask id="mask2_1038_744" style="mask-type:luminance" maskUnits="userSpaceOnUse" x="0" y="57" width="12" height="9">
<path d="M0 57.1077H11.9311V65.2744H0V57.1077Z" fill="white"/>
</mask>
<g mask="url(#mask2_1038_744)">
<path d="M11.7269 61.2741C11.7269 59.226 10.0681 57.5671 8.02212 57.5671H3.70481C1.65887 57.5671 0 59.226 0 61.2741C0 63.32 1.65887 64.9789 3.70481 64.9789H8.02212C10.0681 64.9789 11.7269 63.32 11.7269 61.2741Z" fill="#23395B"/>
</g>
<path d="M7.78809 76.0954C7.78809 78.1414 9.44696 79.8024 11.4929 79.8024H15.8102C17.8583 79.8024 19.5171 78.1414 19.5171 76.0954C19.5171 74.0495 17.8583 72.3906 15.8102 72.3906H11.4929C9.44696 72.3906 7.78809 74.0495 7.78809 76.0954Z" fill="#23395B"/>
<mask id="mask3_1038_744" style="mask-type:luminance" maskUnits="userSpaceOnUse" x="99" y="0" width="103" height="97">
<path d="M99.6426 0H201.718V96.8525H99.6426V0Z" fill="white"/>
</mask>
<g mask="url(#mask3_1038_744)">
<path d="M145.31 -0.00219727C126.576 -0.00219727 109.974 9.13222 99.7148 23.1879C109.887 13.2347 123.809 7.09691 139.166 7.09691C170.321 7.09691 195.576 32.3521 195.576 63.507C195.576 75.9251 191.563 87.4053 184.762 96.7227C195.225 86.4844 201.718 72.2054 201.718 56.4079C201.718 25.253 176.463 -0.00219727 145.31 -0.00219727Z" fill="#23395B"/>
</g>
<path d="M145.587 61.6291C145.587 63.675 143.928 65.3339 141.882 65.3339C139.834 65.3339 138.175 63.675 138.175 61.6291C138.175 59.581 139.834 57.9221 141.882 57.9221C143.928 57.9221 145.587 59.581 145.587 61.6291Z" fill="#23395B"/>
<path d="M175.362 44.1174C174.76 42.9626 173.335 42.5181 172.182 43.12L144.59 57.5522C145.908 58.4284 146.776 59.9277 146.776 61.6291C146.776 61.6632 146.774 61.6951 146.772 61.7291L174.366 47.2969C175.519 46.6951 175.966 45.2701 175.362 44.1174ZM136.906 38.1732C135.632 38.4433 134.819 39.6938 135.089 40.9677L138.686 57.9222C139.543 57.1821 140.659 56.7334 141.882 56.7334C142.374 56.7334 142.848 56.8078 143.297 56.9418L139.7 39.9894C139.43 38.7155 138.18 37.9031 136.906 38.1732Z" fill="#23395B"/>
<mask id="mask4_1038_744" style="mask-type:luminance" maskUnits="userSpaceOnUse" x="58" y="137" width="21" height="3">
<path d="M58.2222 137.352H78.152V140H58.2222V137.352Z" fill="white"/>
</mask>
<g mask="url(#mask4_1038_744)">
<path d="M77.967 137.452V140.066H58.3477L77.967 137.452Z" fill="#23395B"/>
</g>
<mask id="mask5_1038_744" style="mask-type:luminance" maskUnits="userSpaceOnUse" x="130" y="137" width="18" height="3">
<path d="M130.515 137.352H147.499V140H130.515V137.352Z" fill="white"/>
</mask>
<g mask="url(#mask5_1038_744)">
<path d="M147.452 137.452V140.066H130.515L147.452 137.452Z" fill="#23395B"/>
</g>
</svg>
