<svg width="152" height="152" viewBox="0 0 152 152" fill="none" xmlns="http://www.w3.org/2000/svg">
<mask id="mask0_1038_802" style="mask-type:luminance" maskUnits="userSpaceOnUse" x="0" y="0" width="152" height="152">
<path d="M0 0H152V152H0V0Z" fill="white"/>
</mask>
<g mask="url(#mask0_1038_802)">
<path fill-rule="evenodd" clip-rule="evenodd" d="M76.0358 3.51719C36.0184 3.51719 3.48381 36.0518 3.48381 76.0715C3.48381 116.091 36.0184 148.626 76.0358 148.626C116.055 148.626 148.59 116.086 148.59 76.0715C148.557 36.0518 116.022 3.51719 76.0358 3.51719ZM76.0358 152.072C55.7362 152.072 36.6384 144.176 22.2644 129.807C7.89282 115.44 0 96.3425 0 76.0358C0 55.7314 7.89759 36.6384 22.2644 22.2644C36.605 7.89282 55.7314 0 76.0358 0C96.3425 0 115.435 7.89521 129.807 22.2644C144.148 36.6384 152.072 55.7314 152.072 76.0358C152.072 96.3425 144.176 115.435 129.807 129.807C115.44 144.181 96.3377 152.072 76.0358 152.072Z" fill="#23395B"/>
</g>
<path fill-rule="evenodd" clip-rule="evenodd" d="M30.0385 118C29.5217 118 29.0383 117.795 28.6977 117.381C18.5406 105.091 13.3466 89.4933 14.0658 73.4858C14.7874 57.3735 21.4675 42.2258 32.8606 30.8317C44.2536 19.4376 59.4 12.7927 75.5108 12.0662C91.5168 11.3446 107.113 16.5391 119.366 26.6971C120.088 27.3187 120.228 28.4191 119.607 29.1407C118.987 29.8957 117.885 30.0005 117.165 29.3813C92.8623 9.27487 57.6781 10.9611 35.3064 33.304C13.3109 55.2705 11.5891 91.2153 31.384 115.178C32.0032 115.899 31.8985 117.004 31.1435 117.621C30.8339 117.862 30.4529 118 30.0385 118Z" fill="#23395B"/>
<path fill-rule="evenodd" clip-rule="evenodd" d="M77.5997 140C62.6239 140 48.1674 134.836 36.6331 125.296C35.9114 124.676 35.7733 123.576 36.3925 122.854C37.0141 122.132 38.1144 122.027 38.8361 122.613C50.1941 132.013 63.9291 136.663 77.5997 136.663C93.2281 136.663 108.754 130.636 120.667 118.723C143.009 96.3773 144.698 61.1895 124.592 36.8472C123.97 36.1255 124.075 35.0202 124.832 34.4032C125.587 33.7839 126.657 33.8887 127.274 34.6438C137.431 46.9353 142.626 62.4996 141.94 78.5119C141.218 94.6265 134.54 109.776 123.146 121.172C111.75 132.568 96.6052 139.247 80.491 139.969C79.5622 140 78.6 140 77.5997 140Z" fill="#23395B"/>
<path fill-rule="evenodd" clip-rule="evenodd" d="M29.7636 118C29.317 118 28.8657 117.83 28.5194 117.484C27.8269 116.791 27.8269 115.687 28.5194 115.033L46.4017 97.1429L52.1308 91.3755L56.6873 86.8195L56.7231 86.7836L57.2748 86.2676L86.2714 57.2588L89.1013 54.4611L97.6961 45.8626L107.194 36.3276L117.033 26.5178C117.723 25.8274 118.829 25.8274 119.481 26.5178C120.173 27.2107 120.173 28.3169 119.481 28.9691L109.677 38.7765L100.185 48.3091L91.5873 56.9076L88.7574 59.7029L59.7632 88.7475L59.7274 88.7809L59.1757 89.2994L54.6192 93.8578L48.8901 99.6252L31.0078 117.479C30.6616 117.826 30.215 118 29.7636 118Z" fill="#23395B"/>
<path fill-rule="evenodd" clip-rule="evenodd" d="M37.7643 126C37.3176 126 36.866 125.828 36.5196 125.482C35.8268 124.791 35.8268 123.685 36.5196 123.033L48.5724 111.016L91.8429 67.7446L99.5786 59.9729L102.273 57.3139L125.032 34.5196C125.724 33.8268 126.828 33.8268 127.48 34.5196C128.173 35.2125 128.173 36.3162 127.48 36.9708L104.725 59.7627L102.027 62.4241L94.2941 70.1934L51.0212 113.496L38.9708 125.513C38.6268 125.864 38.18 126 37.7643 126Z" fill="#23395B"/>
<path fill-rule="evenodd" clip-rule="evenodd" d="M113.22 120H44.7447C43.786 120 43 119.203 43 118.23C43 117.258 43.786 116.46 44.7447 116.46H111.508V48.7722C111.508 47.7973 112.294 47 113.253 47C114.214 47 115 47.7973 115 48.7722V118.266C114.929 119.239 114.179 120 113.22 120Z" fill="#23395B"/>
<path fill-rule="evenodd" clip-rule="evenodd" d="M43.0014 105C41.9003 105 41 104.203 41 103.229V53.7686C41 52.7967 41.9003 52 43.0014 52C44.0997 52 45 52.7967 45 53.7686V103.234C45 104.203 44.0942 105 43.0014 105Z" fill="#23395B"/>
<path fill-rule="evenodd" clip-rule="evenodd" d="M112.263 36H62.7685C61.7967 36 61 35.0997 61 34.0014C61 32.9003 61.7967 32 62.7685 32H112.231C113.203 32 114 32.9003 114 34.0014C114 35.0997 113.235 36 112.263 36Z" fill="#23395B"/>
<path fill-rule="evenodd" clip-rule="evenodd" d="M46.8846 51.5659H60.5993V37.8717L46.8846 51.5659ZM62.3013 55H42.7368C42.0541 55 41.4091 54.5887 41.1384 53.947C40.8653 53.3006 40.9995 52.5531 41.5127 52.0806L61.0748 32.5054C61.5503 32.0306 62.3013 31.8567 62.9439 32.1293C63.5889 32.402 63.9985 33.0131 63.9985 33.7254V53.2959C64.0386 54.2149 63.2523 55 62.3013 55Z" fill="#23395B"/>
<path fill-rule="evenodd" clip-rule="evenodd" d="M105.228 42H69.7722C68.7983 42 68 41.3247 68 40.499C68 39.6753 68.7983 39 69.7722 39H105.228C106.202 39 107 39.6753 107 40.499C107 41.3247 106.202 42 105.228 42Z" fill="#23395B"/>
<path fill-rule="evenodd" clip-rule="evenodd" d="M95.2122 52H69.7902C68.8054 52 68 51.3247 68 50.499C68 49.6753 68.8054 49 69.7902 49H95.2122C96.1946 49 97 49.6753 97 50.499C97 51.3532 96.1946 52 95.2122 52Z" fill="#23395B"/>
<path fill-rule="evenodd" clip-rule="evenodd" d="M105.18 62H101.823C100.82 62 100 61.3247 100 60.501C100 59.6753 100.82 59 101.823 59H105.18C106.18 59 107 59.6753 107 60.501C107 61.3247 106.18 62 105.18 62Z" fill="#23395B"/>
<path fill-rule="evenodd" clip-rule="evenodd" d="M85.2258 62H50.7766C49.7992 62 49 61.3247 49 60.501C49 59.6753 49.7992 59 50.7766 59H85.2258C86.2008 59 87 59.6753 87 60.501C86.9639 61.3207 86.2008 62 85.2258 62Z" fill="#23395B"/>
<path fill-rule="evenodd" clip-rule="evenodd" d="M105.213 72H91.7895C90.805 72 90 71.3178 90 70.5164C90 69.6822 90.805 69 91.7895 69H105.213C106.195 69 107 69.6822 107 70.5164C107 71.3178 106.195 72 105.213 72Z" fill="#23395B"/>
<path fill-rule="evenodd" clip-rule="evenodd" d="M75.2223 72H50.7802C49.8008 72 49 71.3178 49 70.5164C49 69.6822 49.8008 69 50.7802 69H75.2223C76.1992 69 77 69.6822 77 70.5164C77 71.3178 76.1992 72 75.2223 72Z" fill="#23395B"/>
<path fill-rule="evenodd" clip-rule="evenodd" d="M105.219 82H81.781C80.8023 82 80 81.3247 80 80.499C80 79.6753 80.8023 79 81.781 79H105.219C106.198 79 107 79.6753 107 80.499C107 81.3532 106.198 82 105.219 82Z" fill="#23395B"/>
<path fill-rule="evenodd" clip-rule="evenodd" d="M65.2148 82H50.7876C49.8042 82 49 81.3247 49 80.499C49 79.6753 49.8042 79 50.7876 79H65.2148C66.1958 79 67 79.6753 67 80.499C67 81.3532 66.1958 82 65.2148 82Z" fill="#23395B"/>
<path fill-rule="evenodd" clip-rule="evenodd" d="M105.224 92H71.7787C70.8002 92 70 91.3247 70 90.501C70 89.6753 70.8002 89 71.7787 89H105.224C106.2 89 107 89.6753 107 90.501C107 91.3207 106.2 92 105.224 92Z" fill="#23395B"/>
<path fill-rule="evenodd" clip-rule="evenodd" d="M55.1953 92H50.8072C49.813 92 49 91.3247 49 90.501C49 89.6753 49.813 89 50.8072 89H55.1953C56.187 89 57 89.6753 57 90.501C57 91.3247 56.187 92 55.1953 92Z" fill="#23395B"/>
<path fill-rule="evenodd" clip-rule="evenodd" d="M105.225 102H61.7775C60.7996 102 60 101.325 60 100.501C60 99.6753 60.7996 99 61.7775 99H105.225C106.2 99 107 99.6753 107 100.501C107 101.325 106.2 102 105.225 102Z" fill="#23395B"/>
<path fill-rule="evenodd" clip-rule="evenodd" d="M105.192 112H51.7745C50.7983 112 50 111.324 50 110.5C50 109.676 50.7983 109 51.7745 109H105.226C106.202 109 107 109.676 107 110.5C106.964 111.355 106.166 112 105.192 112Z" fill="#23395B"/>
</svg>
