<svg width="356" height="409" viewBox="0 0 356 409" fill="none" xmlns="http://www.w3.org/2000/svg">
  <path opacity="0.2" d="M278.613 -23.5038C279.555 -19.9894 282.279 -17.5826 284.205 -14.7015C285.462 -12.8217 287.109 -11.1924 287.861 -9.00218C288.291 -7.75275 289.026 -6.73296 289.942 -5.86133C293.989 -2.01724 297.216 2.55073 300.266 7.12324C303.866 12.5242 307.572 18.2005 308.672 24.6714C309.206 27.823 310.483 31.2127 309.429 34.6013C309.36 34.8297 309.329 35.123 309.413 35.3344C311.42 40.5774 308.96 45.9731 309.936 51.2491C310.027 51.7264 309.919 52.2625 309.817 52.751C308.914 57.1553 309.564 61.7669 308.021 66.0791C307.23 68.2986 308.758 70.6552 307.264 72.9634C306.345 74.3898 305.254 75.9687 305.985 78.2757C306.405 79.6242 305.271 81.7096 304.375 83.1853C302.67 86.009 302.778 89.9107 299.358 91.7098C296.732 97.8743 292.165 102.998 290.108 109.519C288.84 113.545 286.282 117.102 284.968 121.169C284.892 121.397 284.621 121.555 284.545 121.783C283.874 123.825 284.094 125.973 283.12 128.09C282.257 129.955 282.75 132.481 282.791 134.711C282.834 137.1 283.476 139.424 284.282 141.629C285.246 144.244 287.043 146.487 288.98 148.395C292.716 152.077 296.748 155.467 301.016 158.556C301.413 158.845 301.781 159.235 302.229 159.393C310.205 162.15 317.589 166.153 324.834 170.384C329.492 173.104 332.217 177.555 334.281 182.462C335.439 185.218 335.826 188.187 336.073 191.001C336.261 193.13 335.256 195.595 334.575 197.814C333.622 200.909 332.411 203.949 330.612 206.753C329.474 208.521 328.25 210.044 326.445 211.032C325.618 211.49 325.017 211.998 324.718 212.899C324.205 214.445 323.868 216.141 321.671 216.173C321.054 216.186 321.042 216.853 320.929 217.329C320.51 219.105 318.992 220.033 317.706 220.914C316.439 221.778 314.862 222.123 315.043 224.103C311.984 225.798 310.834 229.634 308.102 231.211C304.199 233.462 300.943 236.838 296.478 238.146C295.798 238.347 295.219 238.988 294.655 239.498C291.567 242.272 288.03 242.633 284.08 241.912C279.846 241.137 275.661 240.465 272.219 237.574C271.825 237.242 270.952 237.217 270.407 237.389C269.524 237.674 268.61 237.344 268.384 236.841C267.223 234.192 264.642 233.59 262.442 232.46C260.88 231.654 260.105 229.987 258.227 229.351C256.548 228.783 255.229 227.098 253.791 225.854C252.375 224.625 250.689 223.547 249.677 222.028C247.327 218.499 243.664 216.322 241.019 213.167C236.625 207.924 231.674 203.113 228.242 197.094C227.746 196.225 226.987 195.506 226.342 194.728C223.294 191.026 220.354 187.304 218.911 182.57C218.305 180.591 216.908 178.906 216.052 176.927C214.026 172.251 213.494 167.248 212.419 162.409C211.599 158.71 209.925 155.164 209.935 151.255C209.937 150.528 209.48 149.624 209.9 149.054C211.471 146.942 210.317 144.685 210.159 142.613C209.941 139.731 209.159 136.919 210.652 134.165C211.283 133.009 210.083 132.062 210.34 130.863C211.412 125.82 212.214 120.723 214.112 115.886C214.518 114.854 214.704 113.669 214.691 112.558C214.679 111.027 215.912 111.854 216.457 111.667C216.47 108.614 216.999 105.896 217.725 103.149C218.436 100.471 219.448 97.8178 219.447 94.9514C219.454 92.9709 221.087 91.5781 221.977 90.0246C223.499 87.3564 223.567 84.5051 224.113 81.744C224.44 80.0991 223.701 78.2527 225.413 76.9715C225.809 76.6807 225.605 76.3259 225.455 75.9705C224.739 74.2509 225.279 72.4928 225.239 70.7493C225.187 68.6326 225.918 66.0628 223.127 64.8732C223.024 62.8937 221.535 61.5133 220.942 59.7675C218.982 54.0071 215.15 49.4486 211.726 44.5743C208.364 39.7846 204.742 35.2271 200.754 30.9954C195.246 25.1601 188.773 22.4456 180.411 24.7427C174.339 26.4151 169.749 30.1501 164.928 33.6799C161.08 36.5021 157.701 40.0927 153.579 42.3716C150.432 44.1089 148.619 47.4686 145.081 48.5084C144.649 48.6348 144.21 49.0965 143.983 49.515C142.455 52.3415 139.593 53.8038 137.425 55.9663C135.994 57.3891 134.614 58.8075 133.411 60.4721C131.403 63.2599 128.428 65.2764 126.813 68.4114C124.322 73.2408 119.693 77.0732 120.034 83.5299C120.353 84.2086 121.399 84.7409 121.926 85.7857C123.506 88.9125 126.902 89.3807 129.723 90.6274C130.241 90.8563 130.99 90.5859 131.675 89.9613C134.979 86.975 140.08 85.3869 144.185 84.1214C147.336 83.1479 150.277 85.0545 153.206 83.7694C156.994 85.3115 161.007 86.4792 163.999 89.4916C169.857 95.3913 172.496 98.5163 175.399 106.666C177.304 112.029 180.102 117.195 180.772 122.926C181.214 126.662 181.518 130.62 180.76 134.246C179.582 139.852 177.396 145.219 174.778 150.399C172.338 155.224 168.909 159.307 165.89 163.707C165.153 164.783 164.528 165.765 163.301 166.314C162.752 166.559 162.079 166.985 161.876 167.494C159.966 172.287 155.17 173.973 151.559 176.842C150.334 177.816 149.235 179.033 147.861 179.894C142.243 183.423 136.447 186.579 130.132 188.677C127.835 189.441 125.395 189.397 123.027 189.331C118.95 189.218 114.912 188.477 110.796 188.594C109.366 188.634 107.659 188.104 106.524 187.246C104.475 185.682 102.381 184.813 99.8558 184.148C97.7807 183.604 95.9371 181.598 93.9302 180.317C92.0264 179.105 89.9124 178.338 87.9361 177.294C83.1165 174.76 79.9377 170.442 75.9396 167.028C74.0374 165.403 71.996 163.95 70.2962 162.012C67.6932 159.036 64.7251 156.379 61.8693 153.629C61.2227 153.006 60.8252 151.706 59.4667 152.429C58.285 151.103 57.1033 149.777 55.9181 148.447C56.4299 147.824 56.1597 147.262 55.7304 146.773C50.9766 141.361 46.2223 135.956 41.4374 130.572C41.0251 130.109 40.5396 130.34 40.2059 130.818C40.0361 130.628 39.8663 130.437 39.7 130.251C39.9422 129.951 40.1572 129.613 39.9352 129.239C38.3703 126.622 36.9242 123.927 35.3926 121.308C33.9724 118.87 32.8698 116.231 31.7661 113.741C30.6885 111.31 29.1489 108.894 28.9835 105.867C28.8483 103.343 29.0225 100.697 28.064 98.119C27.307 96.0798 27.4928 93.6816 26.9142 91.4903C26.7264 90.7786 26.4158 89.7648 26.7482 89.308C28.5438 86.8216 27.6243 83.9504 28.1523 81.31C28.8424 77.9042 29.0774 74.4575 30.8698 71.1925C33.0656 67.1982 36.0467 63.7249 38.0846 59.6551C38.3469 59.1353 39.0881 58.3701 39.445 58.4496C41.9046 58.9783 41.624 56.7378 42.4867 55.6549C44.5417 53.0838 46.7629 50.6366 48.669 47.961C49.981 46.1219 51.9669 45.0076 53.536 43.5743C55.1987 42.0504 57.0541 40.6409 58.4644 38.8259C62.2291 33.9774 66.1086 29.2499 70.8127 25.2596C71.8716 24.3576 72.8759 23.3788 73.8339 22.3714C77.8854 18.1186 81.4807 13.3305 87.2277 11.0897C87.526 10.9703 87.8391 10.5936 87.9273 10.2777C88.6882 7.43673 91.0754 6.14634 93.2455 4.65165C93.9525 4.16109 94.7891 3.91775 95.1403 2.94194C95.7337 1.28283 97.3081 0.591272 98.6624 -0.315814C101.175 -1.99003 103.929 -3.43273 106.087 -5.48882C109.119 -8.37265 111.458 -11.846 115.054 -14.3395C119.315 -17.3002 123.002 -21.1093 126.822 -24.6745C128.175 -25.9358 129.832 -26.7296 131.077 -28.2369C133.552 -31.2449 137.207 -33.1486 139.325 -36.5645C143.982 -38.4622 146.266 -43.2114 150.423 -45.7797C152.145 -46.8464 154.291 -47.6711 155.234 -49.8302C155.374 -50.1431 156.118 -50.3807 156.563 -50.3515C158.173 -50.2589 159.244 -51.2339 160.09 -52.2883C161.759 -54.3762 163.927 -55.8341 165.932 -57.5228C167.358 -58.7245 168.835 -59.5729 170.625 -59.7799C172.875 -60.0416 172.572 -62.5896 174.45 -63.5588C179.126 -65.9829 183.74 -68.525 188.586 -70.6257C191.019 -71.6848 193.537 -72.1081 196.166 -72.5399C199.172 -73.0348 201.697 -71.7903 204.489 -71.7811C209.081 -71.7643 213.252 -69.573 217.345 -67.8622C221.53 -66.1091 225.294 -63.3031 229.725 -61.9012C230.798 -61.5665 231.894 -61.1346 232.821 -60.5095C238.711 -56.5632 244.234 -52.151 249.171 -47.0421C249.784 -46.4092 250.475 -45.9084 251.189 -45.3804C258.423 -40.0436 266.364 -35.5957 272.434 -28.7616C272.968 -28.1628 273.823 -28.2133 274.559 -28.0529C275.91 -26.5365 277.262 -25.0201 278.613 -23.5038ZM384.352 322.085C383.596 321.182 384.522 320.782 384.906 320.21C385.897 318.747 387.592 318.081 388.567 316.458C390.444 313.327 394.464 311.92 395.596 308.086C398.155 307.341 398.53 303.895 401.379 303.428C401.859 303.348 402.41 302.62 402.615 302.075C403.284 300.25 404.681 298.929 405.687 297.341C408.052 293.6 409.714 289.586 410.413 285.196C410.659 283.672 410.822 281.937 410.191 280.72C408.694 277.819 408.368 274.51 406.551 271.72C404.372 268.367 403.364 264.402 400.916 261.093C398.955 258.438 398.776 254.433 394.804 253.327C394.659 253.289 394.571 252.955 394.506 252.741C393.157 248.215 388.627 246.357 386.111 242.767C384.574 240.572 382.092 239.15 380.489 236.874C379.008 234.782 376.889 233.14 374.995 231.5C372.662 229.478 370.342 227.212 366.933 226.385C363.572 225.565 360.476 224.808 357.212 226.413C356.79 226.621 356.211 226.488 355.707 226.54C353.22 226.796 350.61 226.576 348.388 228.005C346.324 229.328 343.153 228.925 342.192 232.027C342.061 232.451 341.299 232.223 340.797 232.224C340.049 232.221 339.402 232.568 338.825 233.11C336.361 235.418 333.708 237.545 331.444 240.03C330.522 241.04 329.217 240.71 328.369 241.857C324.542 247.026 319.088 250.701 315.213 255.864C313.432 258.233 310.905 259.962 309.378 262.593C307.867 265.195 305.293 266.987 304.296 270.073C302.919 274.328 301.674 278.473 302.211 283.06C302.524 285.76 303.869 288.028 304.702 290.474C305.463 292.705 308.477 294.059 307.529 297.129C308.282 297.7 309.166 296.625 309.939 297.312C309.74 298.208 308.491 299.195 309.952 299.909C310.931 300.39 311.152 300.974 311.135 301.981C311.119 302.832 311.415 303.657 311.973 304.408C313.637 306.643 315.297 308.889 316.8 311.233C320.447 316.914 328.057 325.64 333.282 329.976C333.666 330.297 334.101 330.621 334.342 331.041C337.268 336.108 342.649 337.409 347.493 339.322C351.573 340.932 355.635 338.54 359.74 338.307C360.169 338.28 360.561 337.749 360.996 337.494C366.127 334.436 371.402 331.611 376.218 328.044C376.688 327.694 377.13 327.705 377.52 328.174C379.798 326.143 382.073 324.116 384.352 322.085Z" fill="#CDC0A6"/>
</svg>
