<svg width="91" height="90" viewBox="0 0 91 90" fill="none" xmlns="http://www.w3.org/2000/svg">
<path d="M82.7102 52.4978L47.2428 16.2226C46.2796 15.2374 44.7193 15.2374 43.7572 16.2226L8.29082 52.4978C7.32764 53.483 5.76739 53.483 4.80527 52.4978L0.721589 48.3221C-0.24053 47.3369 -0.24053 45.7411 0.721589 44.757L43.7572 0.738862C44.7204 -0.246287 46.2807 -0.246287 47.2428 0.738862L90.2784 44.756C91.2405 45.7411 91.2405 47.3369 90.2784 48.3199L86.1947 52.4967C85.2316 53.483 83.6713 53.483 82.7102 52.4978Z" fill="#23395B"/>
<path d="M79.8099 53.9761C79.7588 53.9271 79.7088 53.8781 79.6598 53.8269L48.0142 21.4596C46.6253 20.0401 44.3733 20.0401 42.9865 21.4596L11.3409 53.828L11.3281 53.8411C10.4277 54.7598 9.92114 56.0084 9.92114 57.3103V87.2763C9.92114 88.7807 11.1121 89.9999 12.584 89.9999H31.075C32.1371 89.9999 32.9981 89.1192 32.9981 88.0328V61.8583C32.9981 60.1863 34.3232 58.8321 35.9569 58.8321H54.2999C55.9336 58.8321 57.2586 60.1863 57.2586 61.8583V88.0328C57.2586 89.1192 58.1197 89.9999 59.1818 89.9999H78.7073C80.0962 89.9999 81.2222 88.8482 81.2222 87.4276V57.3648C81.2211 56.0857 80.7199 54.8535 79.8099 53.9761Z" fill="#23395B"/>
<path d="M75.7551 23.9492V4.09708C75.7551 3.5528 75.323 3.11084 74.7908 3.11084H62.659C62.1268 3.11084 61.6958 3.5528 61.6958 4.09708V11.1695L74.6493 24.4184C75.0569 24.8342 75.7551 24.5403 75.7551 23.9492Z" fill="#23395B"/>
</svg>
