<svg width="100" height="90" viewBox="0 0 100 90" fill="none" xmlns="http://www.w3.org/2000/svg">
<mask id="mask0_1044_914" style="mask-type:luminance" maskUnits="userSpaceOnUse" x="0" y="0" width="100" height="90">
<path d="M0 0H100V90H0V0Z" fill="white"/>
</mask>
<g mask="url(#mask0_1044_914)">
<path d="M98.0482 7.88274C97.7357 7.28657 97.3885 6.71495 97.0086 6.16788C96.6288 5.62198 96.2184 5.1053 95.7786 4.61785C95.3378 4.13157 94.8706 3.67801 94.3761 3.25953C93.8826 2.83987 93.366 2.4588 92.8272 2.11395C92.2885 1.77028 91.7319 1.46635 91.1585 1.20217C90.584 0.939157 89.9958 0.717056 89.396 0.539375C88.7952 0.360526 88.1871 0.226096 87.5716 0.136087C86.955 0.0460775 86.3363 0.000488281 85.7144 0.000488281H14.2866C13.8184 0.000488281 13.3512 0.0250363 12.8862 0.0764702C12.42 0.127904 11.9581 0.203886 11.4994 0.304416C11.0406 0.406115 10.5871 0.532362 10.1389 0.683157C9.69171 0.833951 9.25189 1.00929 8.81944 1.20802C8.387 1.40674 7.96507 1.62884 7.55156 1.87432C7.1391 2.11863 6.73822 2.38632 6.34996 2.67505C5.96065 2.96378 5.58502 3.27239 5.22306 3.60203C4.86216 3.93285 4.51599 4.28119 4.18455 4.64824C3.85417 5.01646 3.53956 5.40105 3.24285 5.802C2.94613 6.20412 2.66835 6.62144 2.40846 7.05395C2.14857 7.48529 1.90762 7.93066 1.68771 8.39006C1.46675 8.84829 1.26684 9.31704 1.08796 9.79748C0.909091 10.2779 0.751263 10.7665 0.61553 11.2645C0.479798 11.7613 0.366162 12.2651 0.274621 12.7748C0.184133 13.2845 0.114689 13.7976 0.0694444 14.3155C0.0231484 14.8322 0 15.3512 0 15.8714V74.0653C0 74.5843 0.0231484 75.1034 0.0694444 75.62C0.114689 76.1379 0.184133 76.6511 0.274621 77.1607C0.366162 77.6704 0.479798 78.1742 0.61553 78.6722C0.751263 79.169 0.909091 79.6588 1.08796 80.138C1.26684 80.6185 1.46675 81.0884 1.68771 81.5466C1.90762 82.0049 2.14857 82.4502 2.40846 82.8827C2.66835 83.3141 2.94613 83.7314 3.24285 84.1335C3.53956 84.5356 3.85417 84.9202 4.18455 85.2873C4.51599 85.6555 4.86216 86.0038 5.22306 86.3335C5.58502 86.6631 5.96065 86.9729 6.34996 87.2616C6.73822 87.5504 7.1391 87.8169 7.55156 88.0624C7.96507 88.3067 8.387 88.5288 8.81944 88.7275C9.25189 88.9262 9.69171 89.1016 10.1389 89.2524C10.5871 89.4032 11.0406 89.5294 11.4994 89.6311C11.9581 89.7328 12.42 89.8088 12.8862 89.859C13.3512 89.9105 13.8184 89.9362 14.2866 89.9362H85.7144C86.1827 89.9362 86.6498 89.9105 87.1149 89.859C87.581 89.8088 88.0429 89.7328 88.5017 89.6311C88.9604 89.5294 89.4139 89.4032 89.8622 89.2524C90.3093 89.1016 90.7492 88.9262 91.1816 88.7275C91.6141 88.5288 92.036 88.3067 92.4495 88.0624C92.862 87.8169 93.2628 87.5504 93.6511 87.2616C94.0404 86.9729 94.416 86.6631 94.778 86.3335C95.1389 86.0038 95.4851 85.6555 95.8165 85.2873C96.1469 84.9202 96.4604 84.5356 96.7582 84.1335C97.0549 83.7314 97.3327 83.3141 97.5926 82.8827C97.8525 82.4502 98.0934 82.0049 98.3133 81.5466C98.5343 81.0884 98.7342 80.6185 98.9131 80.138C99.092 79.6588 99.2498 79.169 99.3855 78.6722C99.5213 78.1742 99.6349 77.6704 99.7264 77.1607C99.8169 76.6511 99.8853 76.1379 99.9316 75.62C99.9779 75.1034 100 74.5843 100 74.0653V15.8714C99.9989 14.4674 99.8327 13.0881 99.5013 11.7333C99.1698 10.3784 98.6858 9.09494 98.0482 7.88274ZM14.2866 10.5807H85.7144C86.1395 10.5842 86.5551 10.6496 86.9644 10.7771C87.3727 10.9033 87.7588 11.088 88.1229 11.33C88.487 11.572 88.8163 11.8619 89.1109 12.202C89.4055 12.5422 89.6538 12.9186 89.858 13.3312L50.1431 39.7835L10.1431 13.3312C10.3472 12.9186 10.5955 12.5422 10.8902 12.202C11.1848 11.8619 11.5141 11.572 11.8782 11.33C12.2422 11.088 12.6284 10.9033 13.0366 10.7771C13.4459 10.6496 13.8615 10.5842 14.2866 10.5807ZM90.4766 74.0653C90.4766 74.2383 90.4693 74.4113 90.4535 74.5832C90.4388 74.7562 90.4156 74.9268 90.3851 75.0975C90.3546 75.267 90.3167 75.4353 90.2715 75.6002C90.2262 75.7662 90.1736 75.9298 90.1147 76.09C90.0547 76.2489 89.9874 76.4056 89.9148 76.5587C89.8411 76.7118 89.7612 76.8603 89.6738 77.0041C89.5875 77.1479 89.495 77.287 89.396 77.4214C89.2971 77.5547 89.1919 77.6832 89.0814 77.806C88.972 77.9287 88.8563 78.0444 88.7353 78.1543C88.6153 78.2642 88.4901 78.3671 88.3607 78.4641C88.2302 78.56 88.0966 78.6488 87.9598 78.7306C87.822 78.8124 87.681 78.8861 87.5368 78.9527C87.3927 79.0194 87.2464 79.0766 87.097 79.1269C86.9476 79.1772 86.7971 79.2192 86.6435 79.2531C86.491 79.287 86.3363 79.3128 86.1816 79.3303C86.0259 79.3467 85.8712 79.3548 85.7144 79.3548H14.2866C14.1298 79.3548 13.9752 79.3467 13.8194 79.3303C13.6637 79.3128 13.5101 79.287 13.3575 79.2531C13.2039 79.2192 13.0535 79.1772 12.904 79.1269C12.7546 79.0766 12.6084 79.0194 12.4642 78.9527C12.3201 78.8861 12.1791 78.8124 12.0412 78.7306C11.9034 78.6488 11.7698 78.56 11.6404 78.4641C11.5109 78.3671 11.3857 78.2642 11.2658 78.1543C11.1448 78.0444 11.029 77.9287 10.9186 77.806C10.8091 77.6832 10.7039 77.5547 10.605 77.4214C10.5061 77.287 10.4135 77.1479 10.3272 77.0041C10.2399 76.8603 10.1599 76.7118 10.0863 76.5587C10.0126 76.4056 9.94634 76.2489 9.88636 76.09C9.82744 75.9298 9.77483 75.7662 9.72959 75.6002C9.68434 75.4353 9.64646 75.267 9.61595 75.0975C9.58544 74.9268 9.56229 74.7562 9.54756 74.5832C9.53178 74.4113 9.52441 74.2383 9.52441 74.0653V25.1821L45.3335 48.83C46.0596 49.287 46.8255 49.6319 47.6336 49.8657C48.4407 50.0983 49.2614 50.2117 50.0958 50.2058C50.9322 50.2035 51.754 50.0819 52.561 49.84C53.3691 49.598 54.134 49.2438 54.858 48.7774L90.4766 25.1821V74.0653Z" fill="#23395B"/>
</g>
</svg>
