<svg width="84" height="90" viewBox="0 0 84 90" fill="none" xmlns="http://www.w3.org/2000/svg">
<path d="M59.5011 90C57.5613 90 55.6693 89.6702 53.8285 89.0129C52.2967 88.4616 50.7804 87.8626 49.2809 87.2185C47.7813 86.5731 46.3006 85.8825 44.8377 85.1454C43.3748 84.4083 41.9331 83.6272 40.5124 82.802C39.0929 81.9757 37.6956 81.1076 36.3216 80.1955C34.9477 79.2834 33.6004 78.3297 32.2776 77.3342C30.9547 76.3388 29.6608 75.304 28.3947 74.2288C27.1274 73.1536 25.8913 72.0402 24.6841 70.8876C23.478 69.7362 22.303 68.5478 21.1603 67.3238C20.0175 66.0997 18.9093 64.8411 17.8343 63.548C16.7594 62.256 15.72 60.9308 14.7162 59.5733C13.7136 58.2171 12.7465 56.8299 11.8183 55.4129C10.8889 53.9959 9.99965 52.5516 9.14815 51.0799C8.29665 49.6081 7.48628 48.1114 6.71593 46.5896C5.94558 45.0679 5.21636 43.5235 4.52938 41.9577C3.8424 40.3907 3.19766 38.8034 2.59516 37.1972C1.99378 35.5897 1.43575 33.9667 0.921069 32.3247C0.713197 31.6567 0.539785 30.9792 0.400832 30.2909C0.26188 29.6027 0.159612 28.9073 0.0929145 28.2072C0.0251059 27.507 -0.00490775 26.8045 0.000650267 26.0996C0.00620857 25.3959 0.0473383 24.6945 0.125151 23.9944C0.202965 23.2954 0.316349 22.6036 0.465306 21.9177C0.615374 21.2319 0.798791 20.5567 1.01778 19.8923C1.23677 19.2279 1.48911 18.5789 1.77479 17.9455C2.06048 17.3108 2.3784 16.6952 2.72745 16.0986L9.16704 5.05226C9.26709 4.88199 9.37158 4.71409 9.47941 4.54977C9.58724 4.38545 9.70062 4.22351 9.81734 4.06634C9.93406 3.90916 10.0552 3.75437 10.1797 3.60433C10.3042 3.4543 10.4332 3.30784 10.5655 3.16496C10.6977 3.02207 10.8345 2.88394 10.9745 2.74939C11.1135 2.61484 11.2569 2.48386 11.4036 2.35883C11.5504 2.23262 11.7004 2.11116 11.8538 1.99447C12.0061 1.87778 12.1629 1.76585 12.3218 1.65868C12.4797 1.55152 12.642 1.44793 12.8065 1.35029C12.9699 1.25265 13.1366 1.15977 13.3056 1.07285C13.4757 0.984732 13.6469 0.902572 13.8203 0.825175C13.9937 0.747777 14.1693 0.676334 14.3461 0.608462C14.5228 0.541781 14.7018 0.481054 14.883 0.42509C15.0631 0.369126 15.2454 0.317925 15.4277 0.272677C15.6111 0.22862 15.7956 0.188135 15.9801 0.154795C16.1658 0.120263 16.3514 0.0916858 16.5382 0.0690622C16.7249 0.0464383 16.9117 0.0297684 17.0995 0.0178609C17.2874 0.00595349 17.4753 0 17.6631 0C17.851 0 18.0389 0.00595341 18.2256 0.0166702C18.4135 0.0273867 18.6013 0.0440569 18.7881 0.0666808C18.9748 0.0893047 19.1605 0.116691 19.3461 0.150032C19.5307 0.184563 19.7152 0.222666 19.8986 0.267914C20.082 0.311971 20.2632 0.361981 20.4444 0.417946C20.6245 0.47391 20.8035 0.534637 20.9813 0.601318C21.1581 0.666808 21.3337 0.739442 21.5071 0.815649C21.6816 0.893046 21.8528 0.975206 22.0218 1.06213C22.1908 1.14905 22.3586 1.24193 22.5231 1.33957C22.6865 1.43602 22.8488 1.53842 23.0078 1.64559C23.1668 1.75275 23.3235 1.86468 23.4769 1.98018C23.6303 2.09687 23.7804 2.21833 23.9271 2.34335C24.0738 2.46838 24.2172 2.59817 24.3573 2.73272C24.4974 2.86727 24.6341 3.0054 24.7664 3.14709L32.4832 11.4346C32.7745 11.7465 33.0501 12.0728 33.3114 12.4133C33.5715 12.7539 33.816 13.1075 34.045 13.4731C34.2729 13.8398 34.4841 14.2173 34.6775 14.6055C34.8721 14.9948 35.0477 15.3925 35.2045 15.7998C35.3623 16.207 35.5001 16.6214 35.6191 17.0429C35.7391 17.4644 35.8392 17.8907 35.9192 18.3229C35.9993 18.7552 36.0593 19.1898 36.0993 19.6292C36.1404 20.0673 36.1604 20.5067 36.1604 20.9473C36.1604 21.3879 36.1404 21.8272 36.0993 22.2654C36.0593 22.7036 35.9993 23.1394 35.9192 23.5717C35.8392 24.0039 35.7391 24.4302 35.6191 24.8517C35.5001 25.2732 35.3623 25.6876 35.2045 26.0948C35.0477 26.502 34.8721 26.8997 34.6775 27.2879C34.4841 27.6773 34.2729 28.0547 34.045 28.4203C33.816 28.787 33.5715 29.1407 33.3114 29.4812C33.0501 29.8218 32.7745 30.148 32.4832 30.46L28.5637 34.6585C29.0072 36.0957 29.5274 37.5008 30.1233 38.8737C30.7202 40.2454 31.3894 41.5767 32.1308 42.865C32.8723 44.1546 33.6804 45.3917 34.5575 46.5801C35.4334 47.7673 36.3717 48.8973 37.371 49.9677C38.3703 51.0382 39.4242 52.0432 40.5324 52.9814C41.6418 53.9209 42.7979 54.7866 44.0007 55.5808C45.2034 56.3762 46.4462 57.093 47.7268 57.7313C49.0085 58.3707 50.3191 58.9279 51.6619 59.403L55.5815 55.2045C55.8727 54.8926 56.1762 54.5973 56.4941 54.3174C56.8121 54.0376 57.1422 53.7757 57.4846 53.5304C57.8259 53.2851 58.1782 53.0588 58.5417 52.8517C58.9041 52.6433 59.2754 52.4551 59.6556 52.2873C60.0358 52.1182 60.4226 51.9693 60.8161 51.8419C61.2096 51.7145 61.6087 51.6073 62.0122 51.5216C62.4146 51.4347 62.8215 51.3704 63.2305 51.3275C63.6407 51.2835 64.0509 51.262 64.4622 51.262C64.8735 51.262 65.2837 51.2835 65.6928 51.3275C66.1018 51.3704 66.5087 51.4347 66.9122 51.5216C67.3157 51.6073 67.7137 51.7145 68.1083 51.8419C68.5018 51.9693 68.8887 52.1182 69.2677 52.2873C69.6479 52.4551 70.0192 52.6433 70.3827 52.8517C70.7451 53.0588 71.0975 53.2851 71.4398 53.5304C71.7811 53.7757 72.1113 54.0376 72.4292 54.3174C72.7471 54.5973 73.0517 54.8926 73.3418 55.2045L81.0598 63.4706C81.1921 63.6123 81.321 63.7587 81.4466 63.9088C81.5722 64.0588 81.6934 64.2124 81.8101 64.3696C81.9279 64.5267 82.0402 64.6875 82.1492 64.8518C82.2581 65.0161 82.3626 65.1828 82.4626 65.3531C82.5627 65.5246 82.6583 65.6972 82.7483 65.8735C82.8395 66.0497 82.9262 66.2283 83.0073 66.4093C83.0885 66.5915 83.1652 66.7748 83.2374 66.9606C83.3097 67.1464 83.3764 67.3345 83.4386 67.525C83.5009 67.7143 83.5576 67.906 83.6098 68.1001C83.661 68.293 83.7076 68.4883 83.7499 68.6848C83.7921 68.8812 83.8277 69.0777 83.8599 69.2766C83.8911 69.4754 83.9166 69.6743 83.9377 69.8743C83.9589 70.0744 83.9744 70.2744 83.9844 70.4756C83.9955 70.6769 84 70.8781 84 71.0793C84 71.2806 83.9944 71.4818 83.9833 71.6818C83.9733 71.8831 83.9566 72.0843 83.9355 72.2843C83.9144 72.4832 83.8877 72.6832 83.8566 72.8809C83.8244 73.0798 83.7877 73.2774 83.7454 73.4727C83.7032 73.6692 83.6565 73.8644 83.6043 74.0573C83.552 74.2502 83.4942 74.4419 83.432 74.6325C83.3697 74.8218 83.303 75.0099 83.2308 75.1957C83.1585 75.3814 83.0818 75.5648 82.9995 75.747C82.9173 75.928 82.8317 76.1066 82.7405 76.2816C82.6494 76.4578 82.5527 76.6317 82.4526 76.802C82.3526 76.9722 82.2481 77.1389 82.1391 77.3021C82.0302 77.4664 81.9168 77.6271 81.799 77.7843C81.6812 77.9415 81.56 78.0951 81.4344 78.2439C81.3088 78.394 81.1798 78.5404 81.0464 78.6821C80.913 78.8238 80.7763 78.9619 80.6362 79.0953C80.4962 79.2299 80.3517 79.3585 80.2049 79.4835C80.0571 79.6085 79.907 79.73 79.7536 79.8455C79.6002 79.9622 79.4435 80.0729 79.2845 80.1801L68.9709 87.078C67.5525 88.0305 66.0385 88.7557 64.4289 89.2522C62.8192 89.7488 61.1763 89.9976 59.5011 90ZM6.23349 30.4481C6.71259 31.9782 7.23394 33.494 7.79531 34.9919C8.35668 36.4911 8.95917 37.9711 9.59946 39.4333C10.2409 40.8944 10.9212 42.3351 11.6404 43.7545C12.3596 45.1738 13.1155 46.5706 13.9103 47.9435C14.704 49.3164 15.5344 50.6631 16.4014 51.9848C17.2674 53.3065 18.1689 54.6008 19.106 55.8666C20.042 57.1323 21.0113 58.3683 22.0151 59.5733C23.0178 60.7795 24.0527 61.9536 25.1188 63.0955C26.1848 64.2374 27.2808 65.346 28.4069 66.42C29.5319 67.494 30.6857 68.5324 31.8674 69.535C33.0501 70.5387 34.2574 71.5044 35.4912 72.432C36.7251 73.3608 37.9824 74.2502 39.2641 75.1004C40.5458 75.9518 41.8497 76.7615 43.1747 77.5319C44.4998 78.3011 45.8449 79.0298 47.2099 79.7169C48.5739 80.4039 49.9567 81.0481 51.3551 81.6494C52.7547 82.2507 54.1686 82.8092 55.5982 83.3224C56.4575 83.6308 57.3379 83.8344 58.2394 83.9344C59.1409 84.0333 60.0413 84.0261 60.9406 83.9106C61.841 83.7963 62.7181 83.5772 63.5729 83.2545C64.4266 82.9318 65.2381 82.5127 66.0063 81.9971L76.3221 75.0992C76.4621 75.004 76.5977 74.9016 76.7278 74.7908C76.8579 74.6801 76.9812 74.5622 77.0991 74.4372C77.2169 74.311 77.3281 74.1788 77.4315 74.0395C77.5348 73.9014 77.6315 73.7561 77.7205 73.6061C77.8083 73.4548 77.8894 73.3 77.9617 73.1393C78.0339 72.9797 78.0973 72.8154 78.1529 72.6475C78.2074 72.4796 78.254 72.3093 78.2907 72.1355C78.3274 71.9628 78.3563 71.7878 78.3741 71.6104C78.393 71.4342 78.403 71.2567 78.403 71.0781C78.403 70.9007 78.3941 70.7233 78.3752 70.5459C78.3574 70.3697 78.3296 70.1946 78.293 70.0208C78.2563 69.8469 78.2096 69.6766 78.1551 69.5088C78.1006 69.3409 78.0373 69.1765 77.965 69.0158C77.8928 68.8562 77.8127 68.7003 77.7249 68.549C77.636 68.399 77.5404 68.2537 77.437 68.1144C77.3336 67.9751 77.2236 67.8429 77.1057 67.7179L69.3889 59.4447C69.2277 59.2733 69.0588 59.1089 68.882 58.9541C68.7064 58.7993 68.523 58.6553 68.334 58.5195C68.1439 58.3838 67.9482 58.2588 67.7482 58.1433C67.547 58.0289 67.3413 57.9242 67.1301 57.8313C66.92 57.7384 66.7055 57.6562 66.4876 57.5848C66.2697 57.5146 66.0485 57.455 65.8251 57.4074C65.6016 57.3598 65.376 57.324 65.1492 57.3002C64.9224 57.2764 64.6957 57.2645 64.4678 57.2645C64.2399 57.2645 64.012 57.2764 63.7852 57.3002C63.5585 57.324 63.3339 57.3598 63.1105 57.4074C62.8871 57.455 62.6658 57.5146 62.448 57.5848C62.2301 57.6562 62.0155 57.7384 61.8043 57.8313C61.5942 57.9242 61.3886 58.0289 61.1874 58.1433C60.9862 58.2588 60.7905 58.3838 60.6016 58.5195C60.4115 58.6553 60.2292 58.7993 60.0524 58.9541C59.8768 59.1089 59.7078 59.2733 59.5466 59.4447L54.4221 64.9364C54.2453 65.1257 54.0486 65.2864 53.8318 65.4198C53.6151 65.552 53.3861 65.652 53.1448 65.7187C52.9025 65.7865 52.6568 65.8175 52.4067 65.8139C52.1577 65.8104 51.9132 65.7723 51.6731 65.6984C50.8138 65.4388 49.9634 65.1507 49.1208 64.8328C48.2793 64.5148 47.4478 64.1695 46.6263 63.7945C45.8048 63.4206 44.9956 63.0181 44.1985 62.5882C43.4015 62.1584 42.6178 61.7023 41.8475 61.2189C41.0782 60.7355 40.3223 60.2258 39.5831 59.6912C38.8439 59.1554 38.1202 58.5957 37.4143 58.0111C36.7074 57.4276 36.0193 56.8192 35.349 56.1881C34.6787 55.5558 34.0284 54.9021 33.397 54.227C32.7656 53.5506 32.1553 52.854 31.5661 52.136C30.9759 51.418 30.4089 50.681 29.8631 49.9249C29.3173 49.1675 28.7938 48.3936 28.2946 47.6017C27.7955 46.8087 27.3198 46.0002 26.8684 45.1762C26.4171 44.3511 25.9903 43.5116 25.589 42.6578C25.1877 41.8041 24.8119 40.9372 24.4618 40.0573C24.1116 39.1773 23.7893 38.2867 23.4925 37.3853C23.1957 36.4839 22.9255 35.573 22.6832 34.6526C22.6143 34.3954 22.5787 34.1334 22.5754 33.8655C22.572 33.5988 22.602 33.3356 22.6643 33.076C22.7277 32.8177 22.8199 32.5712 22.9444 32.339C23.0678 32.1068 23.2179 31.896 23.3946 31.7067L28.5214 26.2186C28.6826 26.046 28.8349 25.865 28.9794 25.6757C29.1239 25.4875 29.2595 25.2911 29.3862 25.0886C29.513 24.885 29.6297 24.6755 29.7364 24.4611C29.8442 24.2456 29.9409 24.0253 30.0277 23.7991C30.1155 23.574 30.1922 23.3442 30.2578 23.1108C30.3245 22.8775 30.3789 22.6405 30.4234 22.4012C30.4679 22.1618 30.5012 21.9201 30.5234 21.6772C30.5457 21.4343 30.5568 21.1914 30.5568 20.9473C30.5568 20.7032 30.5457 20.4591 30.5234 20.2162C30.5012 19.9733 30.4679 19.7327 30.4234 19.4934C30.3789 19.2541 30.3245 19.0171 30.2578 18.7837C30.1922 18.5504 30.1155 18.3205 30.0277 18.0943C29.9409 17.8693 29.8442 17.649 29.7364 17.4335C29.6297 17.2179 29.513 17.0096 29.3862 16.8059C29.2595 16.6023 29.1239 16.407 28.9794 16.2177C28.8349 16.0296 28.6826 15.8486 28.5214 15.6759L20.8101 7.40633C20.6923 7.28011 20.5689 7.16223 20.4388 7.05149C20.3088 6.94075 20.1743 6.83716 20.0331 6.74309C19.893 6.64784 19.7474 6.5621 19.5973 6.48471C19.4484 6.4085 19.295 6.34063 19.1383 6.28109C18.9804 6.22275 18.8214 6.17393 18.6591 6.13463C18.4968 6.09534 18.3334 6.06557 18.1689 6.04533C18.0033 6.02628 17.8377 6.01556 17.672 6.01675C17.5053 6.01675 17.3397 6.02627 17.1751 6.04652C17.0095 6.06676 16.8461 6.09653 16.6849 6.13701C16.5226 6.17631 16.3637 6.22632 16.2069 6.28585C16.0502 6.3442 15.8968 6.41326 15.7467 6.49066C15.5977 6.56806 15.4521 6.65379 15.3121 6.74905C15.172 6.84431 15.0364 6.9479 14.9063 7.05864C14.7774 7.17057 14.654 7.28845 14.5362 7.41466C14.4194 7.54088 14.3094 7.67424 14.206 7.81356C14.1026 7.95287 14.007 8.09814 13.9192 8.24936L7.47961 19.2993C6.99828 20.1221 6.60699 20.9902 6.30574 21.9058C6.00449 22.8215 5.79996 23.761 5.69324 24.7243C5.58653 25.6888 5.57874 26.6533 5.67212 27.6189C5.76438 28.5846 5.95447 29.5265 6.24127 30.4481H6.23349Z" fill="#23395B"/>
</svg>
