<svg xmlns="http://www.w3.org/2000/svg" width="1920" height="1080" viewBox="0 0 1440 810"><defs><clipPath id="a"><path d="M388.516 73.516h663v663h-663Zm0 0"/></clipPath><clipPath id="b"><path d="M388.516 75.016v659.968a1.5 1.5 0 0 0 1.5 1.5h659.968a1.5 1.5 0 0 0 1.5-1.5V75.016c0-.399-.156-.782-.437-1.063a1.5 1.5 0 0 0-1.063-.437H390.016a1.5 1.5 0 0 0-1.5 1.5m0 0"/></clipPath><clipPath id="c"><path d="M643.418 222.96h153.504v255.427H643.418Zm0 0"/></clipPath><clipPath id="d"><path d="M388.516 75.016v659.968a1.5 1.5 0 0 0 1.5 1.5h659.968a1.5 1.5 0 0 0 1.5-1.5V75.016c0-.399-.156-.782-.437-1.063a1.5 1.5 0 0 0-1.063-.437H390.016a1.5 1.5 0 0 0-1.5 1.5m0 0"/></clipPath><clipPath id="e"><path d="M468 499h40v41h-40Zm0 0"/></clipPath><clipPath id="f"><path d="M388.516 75.016v659.968a1.5 1.5 0 0 0 1.5 1.5h659.968a1.5 1.5 0 0 0 1.5-1.5V75.016c0-.399-.156-.782-.437-1.063a1.5 1.5 0 0 0-1.063-.437H390.016a1.5 1.5 0 0 0-1.5 1.5m0 0"/></clipPath><clipPath id="g"><path d="M517 500h26v40h-26Zm0 0"/></clipPath><clipPath id="h"><path d="M388.516 75.016v659.968a1.5 1.5 0 0 0 1.5 1.5h659.968a1.5 1.5 0 0 0 1.5-1.5V75.016c0-.399-.156-.782-.437-1.063a1.5 1.5 0 0 0-1.063-.437H390.016a1.5 1.5 0 0 0-1.5 1.5m0 0"/></clipPath><clipPath id="i"><path d="M547 499h43v41h-43Zm0 0"/></clipPath><clipPath id="j"><path d="M388.516 75.016v659.968a1.5 1.5 0 0 0 1.5 1.5h659.968a1.5 1.5 0 0 0 1.5-1.5V75.016c0-.399-.156-.782-.437-1.063a1.5 1.5 0 0 0-1.063-.437H390.016a1.5 1.5 0 0 0-1.5 1.5m0 0"/></clipPath><clipPath id="k"><path d="M599 500h28v40h-28Zm0 0"/></clipPath><clipPath id="l"><path d="M388.516 75.016v659.968a1.5 1.5 0 0 0 1.5 1.5h659.968a1.5 1.5 0 0 0 1.5-1.5V75.016c0-.399-.156-.782-.437-1.063a1.5 1.5 0 0 0-1.063-.437H390.016a1.5 1.5 0 0 0-1.5 1.5m0 0"/></clipPath><clipPath id="m"><path d="M631 500h38v40h-38Zm0 0"/></clipPath><clipPath id="n"><path d="M388.516 75.016v659.968a1.5 1.5 0 0 0 1.5 1.5h659.968a1.5 1.5 0 0 0 1.5-1.5V75.016c0-.399-.156-.782-.437-1.063a1.5 1.5 0 0 0-1.063-.437H390.016a1.5 1.5 0 0 0-1.5 1.5m0 0"/></clipPath><clipPath id="o"><path d="M676 500h27v40h-27Zm0 0"/></clipPath><clipPath id="p"><path d="M388.516 75.016v659.968a1.5 1.5 0 0 0 1.5 1.5h659.968a1.5 1.5 0 0 0 1.5-1.5V75.016c0-.399-.156-.782-.437-1.063a1.5 1.5 0 0 0-1.063-.437H390.016a1.5 1.5 0 0 0-1.5 1.5m0 0"/></clipPath><clipPath id="q"><path d="M726 499h39v41h-39Zm0 0"/></clipPath><clipPath id="r"><path d="M388.516 75.016v659.968a1.5 1.5 0 0 0 1.5 1.5h659.968a1.5 1.5 0 0 0 1.5-1.5V75.016c0-.399-.156-.782-.437-1.063a1.5 1.5 0 0 0-1.063-.437H390.016a1.5 1.5 0 0 0-1.5 1.5m0 0"/></clipPath><clipPath id="s"><path d="M772 500h26v40h-26Zm0 0"/></clipPath><clipPath id="t"><path d="M388.516 75.016v659.968a1.5 1.5 0 0 0 1.5 1.5h659.968a1.5 1.5 0 0 0 1.5-1.5V75.016c0-.399-.156-.782-.437-1.063a1.5 1.5 0 0 0-1.063-.437H390.016a1.5 1.5 0 0 0-1.5 1.5m0 0"/></clipPath><clipPath id="u"><path d="M800 500h39v40h-39Zm0 0"/></clipPath><clipPath id="v"><path d="M388.516 75.016v659.968a1.5 1.5 0 0 0 1.5 1.5h659.968a1.5 1.5 0 0 0 1.5-1.5V75.016c0-.399-.156-.782-.437-1.063a1.5 1.5 0 0 0-1.063-.437H390.016a1.5 1.5 0 0 0-1.5 1.5m0 0"/></clipPath><clipPath id="w"><path d="M841 499h30v41h-30Zm0 0"/></clipPath><clipPath id="x"><path d="M388.516 75.016v659.968a1.5 1.5 0 0 0 1.5 1.5h659.968a1.5 1.5 0 0 0 1.5-1.5V75.016c0-.399-.156-.782-.437-1.063a1.5 1.5 0 0 0-1.063-.437H390.016a1.5 1.5 0 0 0-1.5 1.5m0 0"/></clipPath><clipPath id="y"><path d="M876 499h30v41h-30Zm0 0"/></clipPath><clipPath id="z"><path d="M388.516 75.016v659.968a1.5 1.5 0 0 0 1.5 1.5h659.968a1.5 1.5 0 0 0 1.5-1.5V75.016c0-.399-.156-.782-.437-1.063a1.5 1.5 0 0 0-1.063-.437H390.016a1.5 1.5 0 0 0-1.5 1.5m0 0"/></clipPath><clipPath id="A"><path d="M918 500h6v40h-6Zm0 0"/></clipPath><clipPath id="B"><path d="M388.516 75.016v659.968a1.5 1.5 0 0 0 1.5 1.5h659.968a1.5 1.5 0 0 0 1.5-1.5V75.016c0-.399-.156-.782-.437-1.063a1.5 1.5 0 0 0-1.063-.437H390.016a1.5 1.5 0 0 0-1.5 1.5m0 0"/></clipPath><clipPath id="C"><path d="M935 499h39v41h-39Zm0 0"/></clipPath><clipPath id="D"><path d="M388.516 75.016v659.968a1.5 1.5 0 0 0 1.5 1.5h659.968a1.5 1.5 0 0 0 1.5-1.5V75.016c0-.399-.156-.782-.437-1.063a1.5 1.5 0 0 0-1.063-.437H390.016a1.5 1.5 0 0 0-1.5 1.5m0 0"/></clipPath><clipPath id="E"><path d="M597 566h9v12h-9Zm0 0"/></clipPath><clipPath id="F"><path d="M388.516 75.016v659.968a1.5 1.5 0 0 0 1.5 1.5h659.968a1.5 1.5 0 0 0 1.5-1.5V75.016c0-.399-.156-.782-.437-1.063a1.5 1.5 0 0 0-1.063-.437H390.016a1.5 1.5 0 0 0-1.5 1.5m0 0"/></clipPath><clipPath id="G"><path d="M613 566h11v13h-11Zm0 0"/></clipPath><clipPath id="H"><path d="M388.516 75.016v659.968a1.5 1.5 0 0 0 1.5 1.5h659.968a1.5 1.5 0 0 0 1.5-1.5V75.016c0-.399-.156-.782-.437-1.063a1.5 1.5 0 0 0-1.063-.437H390.016a1.5 1.5 0 0 0-1.5 1.5m0 0"/></clipPath><clipPath id="I"><path d="M631 566h2v12h-2Zm0 0"/></clipPath><clipPath id="J"><path d="M388.516 75.016v659.968a1.5 1.5 0 0 0 1.5 1.5h659.968a1.5 1.5 0 0 0 1.5-1.5V75.016c0-.399-.156-.782-.437-1.063a1.5 1.5 0 0 0-1.063-.437H390.016a1.5 1.5 0 0 0-1.5 1.5m0 0"/></clipPath><clipPath id="K"><path d="M640 566h8v12h-8Zm0 0"/></clipPath><clipPath id="L"><path d="M388.516 75.016v659.968a1.5 1.5 0 0 0 1.5 1.5h659.968a1.5 1.5 0 0 0 1.5-1.5V75.016c0-.399-.156-.782-.437-1.063a1.5 1.5 0 0 0-1.063-.437H390.016a1.5 1.5 0 0 0-1.5 1.5m0 0"/></clipPath><clipPath id="M"><path d="M654 566h11v12h-11Zm0 0"/></clipPath><clipPath id="N"><path d="M388.516 75.016v659.968a1.5 1.5 0 0 0 1.5 1.5h659.968a1.5 1.5 0 0 0 1.5-1.5V75.016c0-.399-.156-.782-.437-1.063a1.5 1.5 0 0 0-1.063-.437H390.016a1.5 1.5 0 0 0-1.5 1.5m0 0"/></clipPath><clipPath id="O"><path d="M672 566h2v12h-2Zm0 0"/></clipPath><clipPath id="P"><path d="M388.516 75.016v659.968a1.5 1.5 0 0 0 1.5 1.5h659.968a1.5 1.5 0 0 0 1.5-1.5V75.016c0-.399-.156-.782-.437-1.063a1.5 1.5 0 0 0-1.063-.437H390.016a1.5 1.5 0 0 0-1.5 1.5m0 0"/></clipPath><clipPath id="Q"><path d="M681 566h11v12h-11Zm0 0"/></clipPath><clipPath id="R"><path d="M388.516 75.016v659.968a1.5 1.5 0 0 0 1.5 1.5h659.968a1.5 1.5 0 0 0 1.5-1.5V75.016c0-.399-.156-.782-.437-1.063a1.5 1.5 0 0 0-1.063-.437H390.016a1.5 1.5 0 0 0-1.5 1.5m0 0"/></clipPath><clipPath id="S"><path d="M699 565h11v14h-11Zm0 0"/></clipPath><clipPath id="T"><path d="M388.516 75.016v659.968a1.5 1.5 0 0 0 1.5 1.5h659.968a1.5 1.5 0 0 0 1.5-1.5V75.016c0-.399-.156-.782-.437-1.063a1.5 1.5 0 0 0-1.063-.437H390.016a1.5 1.5 0 0 0-1.5 1.5m0 0"/></clipPath><clipPath id="U"><path d="M727 566h12v12h-12Zm0 0"/></clipPath><clipPath id="V"><path d="M388.516 75.016v659.968a1.5 1.5 0 0 0 1.5 1.5h659.968a1.5 1.5 0 0 0 1.5-1.5V75.016c0-.399-.156-.782-.437-1.063a1.5 1.5 0 0 0-1.063-.437H390.016a1.5 1.5 0 0 0-1.5 1.5m0 0"/></clipPath><clipPath id="W"><path d="M745 566h12v12h-12Zm0 0"/></clipPath><clipPath id="X"><path d="M388.516 75.016v659.968a1.5 1.5 0 0 0 1.5 1.5h659.968a1.5 1.5 0 0 0 1.5-1.5V75.016c0-.399-.156-.782-.437-1.063a1.5 1.5 0 0 0-1.063-.437H390.016a1.5 1.5 0 0 0-1.5 1.5m0 0"/></clipPath><clipPath id="Y"><path d="M762 566h10v12h-10Zm0 0"/></clipPath><clipPath id="Z"><path d="M388.516 75.016v659.968a1.5 1.5 0 0 0 1.5 1.5h659.968a1.5 1.5 0 0 0 1.5-1.5V75.016c0-.399-.156-.782-.437-1.063a1.5 1.5 0 0 0-1.063-.437H390.016a1.5 1.5 0 0 0-1.5 1.5m0 0"/></clipPath><clipPath id="aa"><path d="M779 566h8v12h-8Zm0 0"/></clipPath><clipPath id="ab"><path d="M388.516 75.016v659.968a1.5 1.5 0 0 0 1.5 1.5h659.968a1.5 1.5 0 0 0 1.5-1.5V75.016c0-.399-.156-.782-.437-1.063a1.5 1.5 0 0 0-1.063-.437H390.016a1.5 1.5 0 0 0-1.5 1.5m0 0"/></clipPath><clipPath id="ac"><path d="M794 566h9v12h-9Zm0 0"/></clipPath><clipPath id="ad"><path d="M388.516 75.016v659.968a1.5 1.5 0 0 0 1.5 1.5h659.968a1.5 1.5 0 0 0 1.5-1.5V75.016c0-.399-.156-.782-.437-1.063a1.5 1.5 0 0 0-1.063-.437H390.016a1.5 1.5 0 0 0-1.5 1.5m0 0"/></clipPath><clipPath id="ae"><path d="M810 566h2v12h-2Zm0 0"/></clipPath><clipPath id="af"><path d="M388.516 75.016v659.968a1.5 1.5 0 0 0 1.5 1.5h659.968a1.5 1.5 0 0 0 1.5-1.5V75.016c0-.399-.156-.782-.437-1.063a1.5 1.5 0 0 0-1.063-.437H390.016a1.5 1.5 0 0 0-1.5 1.5m0 0"/></clipPath><clipPath id="ag"><path d="M818 566h12v12h-12Zm0 0"/></clipPath><clipPath id="ah"><path d="M388.516 75.016v659.968a1.5 1.5 0 0 0 1.5 1.5h659.968a1.5 1.5 0 0 0 1.5-1.5V75.016c0-.399-.156-.782-.437-1.063a1.5 1.5 0 0 0-1.063-.437H390.016a1.5 1.5 0 0 0-1.5 1.5m0 0"/></clipPath><clipPath id="ai"><path d="M836 566h8v12h-8Zm0 0"/></clipPath><clipPath id="aj"><path d="M388.516 75.016v659.968a1.5 1.5 0 0 0 1.5 1.5h659.968a1.5 1.5 0 0 0 1.5-1.5V75.016c0-.399-.156-.782-.437-1.063a1.5 1.5 0 0 0-1.063-.437H390.016a1.5 1.5 0 0 0-1.5 1.5m0 0"/></clipPath><clipPath id="ak"><path d="M526 475h122v4H526Zm0 0"/></clipPath><clipPath id="al"><path d="M388.516 75.016v659.968a1.5 1.5 0 0 0 1.5 1.5h659.968a1.5 1.5 0 0 0 1.5-1.5V75.016c0-.399-.156-.782-.437-1.063a1.5 1.5 0 0 0-1.063-.437H390.016a1.5 1.5 0 0 0-1.5 1.5m0 0"/></clipPath><clipPath id="am"><path d="M526 571h62v3h-62Zm0 0"/></clipPath><clipPath id="an"><path d="M388.516 75.016v659.968a1.5 1.5 0 0 0 1.5 1.5h659.968a1.5 1.5 0 0 0 1.5-1.5V75.016c0-.399-.156-.782-.437-1.063a1.5 1.5 0 0 0-1.063-.437H390.016a1.5 1.5 0 0 0-1.5 1.5m0 0"/></clipPath><clipPath id="ao"><path d="M848 571h62v3h-62Zm0 0"/></clipPath><clipPath id="ap"><path d="M388.516 75.016v659.968a1.5 1.5 0 0 0 1.5 1.5h659.968a1.5 1.5 0 0 0 1.5-1.5V75.016c0-.399-.156-.782-.437-1.063a1.5 1.5 0 0 0-1.063-.437H390.016a1.5 1.5 0 0 0-1.5 1.5m0 0"/></clipPath><clipPath id="aq"><path d="M781 461h143v32H781Zm0 0"/></clipPath><clipPath id="ar"><path d="M388.516 75.016v659.968a1.5 1.5 0 0 0 1.5 1.5h659.968a1.5 1.5 0 0 0 1.5-1.5V75.016c0-.399-.156-.782-.437-1.063a1.5 1.5 0 0 0-1.063-.437H390.016a1.5 1.5 0 0 0-1.5 1.5m0 0"/></clipPath></defs><g clip-path="url(#a)"><g clip-path="url(#b)"><path fill="#fff" d="M322.215 7.215h795.601v795.601H322.215Zm0 0"/><path fill="#01402e" d="M322.215 7.215h795.601v795.601H322.215Zm0 0"/></g></g><g clip-path="url(#c)"><g clip-path="url(#d)"><path fill="#d8ded2" fill-rule="evenodd" d="m654.945 372.445.903 52.903.914 52.902h-3.649l.907-52.902Zm9.633-6.152.906 55.973.91 55.984h-3.644l.918-55.984Zm18.36-112.281.91 112.12.91 112.118h-3.645l.91-112.117Zm9.078-4.043.906 114.14.91 114.141h-3.644l.91-114.14Zm9.082-5.649.906 116.965.91 116.965h-3.644l.902-116.965Zm9.082-3.632.906 118.78.91 118.782h-3.644l.902-118.781Zm9.074-4.84.906 121.203.91 121.199h-3.644l.906-121.2Zm38.332 84.136.902 79.133.914 79.133h-3.648l.906-79.133Zm9.273 5.657.914 76.3.903 76.309h-3.645l.91-76.309Zm9.282 5.043.914 73.785.902 73.789h-3.644l.91-73.79Zm9.285 4.03.902 71.766.914 71.77h-3.648l.906-71.77Zm9.281 3.235.91 70.153.906 70.156h-3.64l.906-70.156Zm-64.914-106.316 1.824 101.605h-3.652l.91-50.8Zm9.234-4.938 1.825 101.856h-3.649l.906-50.93Zm9.235-3.734.906 50.223.91 50.214h-3.64l.906-50.214ZM645.309 376.535l.906 50.856.91 50.859h-3.637l.903-50.86Zm0 0"/></g></g><g clip-path="url(#e)"><g clip-path="url(#f)"><path fill="#d8ded2" d="M507.578 521.688h-11.02v2.292h6.243v10.086c-1.68 1.07-3.39 1.864-5.14 2.375-1.731.516-3.716.774-5.938.774q-4.426 0-7.707-1.328-3.295-1.323-5.47-3.7-2.156-2.373-3.233-5.636c-.72-2.168-1.079-4.559-1.079-7.156 0-2.555.34-4.915 1.024-7.07q1.015-3.236 3.066-5.555c1.383-1.56 3.067-2.77 5.055-3.618q2.98-1.296 6.933-1.297 2.625 0 4.891.579c1.527.375 2.879.851 4.063 1.437 1.191.594 2.168 1.27 2.925 2.043.774.762 1.274 1.52 1.493 2.293h4.007c-.332-.809-.906-1.719-1.714-2.734-.793-1.028-1.88-1.989-3.258-2.871-1.367-.899-3.063-1.66-5.086-2.266q-3.04-.914-7.153-.914c-3.152 0-6.05.441-8.703 1.328-2.652.883-4.945 2.168-6.879 3.84-1.933 1.676-3.445 3.726-4.53 6.16-1.071 2.43-1.602 5.188-1.602 8.258 0 2.64.414 5.195 1.242 7.68a19.5 19.5 0 0 0 3.84 6.632q2.59 2.902 6.605 4.668c2.664 1.16 5.863 1.739 9.586 1.739 2.774 0 5.246-.301 7.402-.91 2.153-.61 3.938-1.286 5.36-2.044v2.293h4.777Zm0 0"/></g></g><g clip-path="url(#g)"><g clip-path="url(#h)"><path fill="#d8ded2" d="M517.61 539.066v-38.98h5.054V536h20.11v3.066Zm0 0"/></g></g><g clip-path="url(#i)"><g clip-path="url(#j)"><path fill="#d8ded2" d="M547.242 519.563c0 2.085.39 4.3 1.188 6.656.785 2.363 2.043 4.543 3.754 6.547 1.714 2.011 3.882 3.675 6.52 5 2.632 1.304 5.788 1.96 9.476 1.96 2.488 0 4.738-.3 6.77-.91 2.023-.609 3.84-1.421 5.44-2.457q2.428-1.574 4.2-3.593a20.5 20.5 0 0 0 2.93-4.309 21.6 21.6 0 0 0 1.738-4.531q.581-2.294.582-4.364c0-2.058-.438-4.269-1.3-6.628-.849-2.38-2.169-4.559-3.95-6.551q-2.656-3.002-6.77-4.973-4.087-1.987-9.64-1.988c-3.688 0-6.844.656-9.477 1.96-2.637 1.294-4.805 2.93-6.52 4.919-1.71 1.976-2.968 4.144-3.753 6.52-.797 2.374-1.188 4.628-1.188 6.741m5.442 0q-.001-3.895 1.187-7.157c.809-2.168 1.906-4.031 3.285-5.578a14.9 14.9 0 0 1 4.946-3.648q2.841-1.325 6.187-1.325c2.191 0 4.258.442 6.191 1.325a16 16 0 0 1 5.137 3.648c1.473 1.547 2.633 3.41 3.48 5.578.844 2.176 1.27 4.559 1.27 7.157q-.002 3.925-1.27 7.183c-.847 2.152-2.007 4.016-3.48 5.578a15.8 15.8 0 0 1-5.137 3.649c-1.933.867-4 1.297-6.19 1.297q-3.347.002-6.188-1.297a14.76 14.76 0 0 1-4.946-3.649c-1.379-1.562-2.476-3.426-3.285-5.578q-1.188-3.258-1.187-7.183m0 0"/></g></g><g clip-path="url(#k)"><g clip-path="url(#l)"><path fill="#d8ded2" d="M599.309 539.066h13.98c2.484 0 4.57-.32 6.27-.968 1.71-.664 3.078-1.504 4.117-2.543a9.1 9.1 0 0 0 2.265-3.535q.715-1.99.715-3.977 0-3.169-1.379-5.055c-.906-1.273-1.988-2.238-3.261-2.902-1.254-.676-2.555-1.133-3.895-1.352-1.324-.222-2.402-.347-3.23-.386v-.223a9.1 9.1 0 0 0 3.672-.746 10.7 10.7 0 0 0 3.039-1.934 9.3 9.3 0 0 0 2.101-2.789 7.7 7.7 0 0 0 .774-3.398q-.001-1.542-.664-3.149-.664-1.63-2.043-2.957-1.36-1.348-3.508-2.21c-1.426-.567-3.098-.856-5.032-.856H599.31Zm5.054-2.46v-17.043h6.133c1.824 0 3.399.246 4.727.746q2.01.719 3.312 1.96a7.6 7.6 0 0 1 1.961 2.817 9.2 9.2 0 0 1 .637 3.398c0 1.313-.235 2.457-.692 3.453a8 8 0 0 1-1.879 2.57c-.773.704-1.699 1.227-2.761 1.575a10.5 10.5 0 0 1-3.344.523Zm0-19.477v-14.613h6.797c1.45 0 2.688.214 3.703.636 1.028.407 1.864.938 2.512 1.602a6.1 6.1 0 0 1 1.41 2.293 7.5 7.5 0 0 1 .469 2.57 6.94 6.94 0 0 1-.664 3.012 7 7 0 0 1-1.766 2.375 8.8 8.8 0 0 1-2.625 1.574c-.98.371-2.031.55-3.148.55Zm0 0"/></g></g><g clip-path="url(#m)"><g clip-path="url(#n)"><path fill="#d8ded2" d="m657.781 527.602 5.36 11.464h5.386l-18.152-38.98h-2.79l-16.491 38.98h2.57l4.918-11.464Zm-1.16-2.516H639.63l8.012-18.758h.222Zm0 0"/></g></g><g clip-path="url(#o)"><g clip-path="url(#p)"><path fill="#d8ded2" d="M676.887 539.066v-38.98h5.058V536h20.11v3.066Zm0 0"/></g></g><g clip-path="url(#q)"><g clip-path="url(#r)"><path fill="#d8ded2" d="M762.7 531.883q-5.669 5.332-13.481 5.332-4.344.001-7.68-1.492c-2.234-.996-4.09-2.328-5.582-4.008-1.477-1.668-2.598-3.602-3.371-5.8a20.8 20.8 0 0 1-1.133-6.849q0-3.785 1.188-6.937c.808-2.098 1.933-3.899 3.37-5.414a15.35 15.35 0 0 1 5.169-3.563c1.988-.863 4.148-1.297 6.492-1.297 1.601 0 3.05.192 4.363.579 1.324.375 2.492.851 3.508 1.437 1.027.594 1.863 1.27 2.516 2.043.64.762 1.09 1.52 1.351 2.293h4.145a16.5 16.5 0 0 0-2.157-3.48c-.867-1.082-1.953-2.016-3.257-2.79-1.313-.789-2.84-1.41-4.586-1.851q-2.602-.663-5.942-.664c-3.222 0-6.172.465-8.84 1.383-2.652.925-4.93 2.25-6.82 3.976-1.879 1.735-3.344 3.813-4.394 6.246-1.036 2.43-1.547 5.149-1.547 8.149q0 3.894 1.242 7.625a18.7 18.7 0 0 0 3.867 6.574q2.625 2.849 6.688 4.613 4.06 1.74 9.695 1.739 3.564 0 6.383-.66c1.879-.446 3.508-.981 4.886-1.633q2.097-.99 3.485-2.098c.937-.734 1.64-1.387 2.125-1.961Zm0 0"/></g></g><g clip-path="url(#s)"><g clip-path="url(#t)"><path fill="#d8ded2" d="M772.176 539.066v-38.98h5.058V536h20.11v3.066Zm0 0"/></g></g><g clip-path="url(#u)"><g clip-path="url(#v)"><path fill="#d8ded2" d="m827.363 527.602 5.36 11.464h5.386l-18.152-38.98h-2.789l-16.492 38.98h2.57l4.918-11.464Zm-1.16-2.516h-16.992l8.012-18.758h.222Zm0 0"/></g></g><g clip-path="url(#w)"><g clip-path="url(#x)"><path fill="#d8ded2" d="M841.855 529.203q.105 2.405 1.247 4.363 1.124 1.94 3.093 3.317c1.325.906 2.88 1.601 4.668 2.097q2.674.748 5.856.747c2.156 0 4.09-.262 5.8-.774 1.727-.508 3.208-1.25 4.422-2.207 1.23-.976 2.184-2.144 2.844-3.512.68-1.379 1.024-2.906 1.024-4.586q0-3.445-1.743-5.632-1.717-2.208-4.308-3.676a30 30 0 0 0-5.637-2.485 78 78 0 0 1-5.605-2.128c-1.735-.73-3.176-1.582-4.336-2.54-1.149-.976-1.715-2.265-1.715-3.87q0-1.325.582-2.485c.398-.789.98-1.473 1.738-2.043.754-.566 1.688-1.031 2.79-1.383q1.681-.55 3.866-.55 3.62 0 6.133 1.546c1.696 1.016 2.688 2.618 2.985 4.805h3.785a8.6 8.6 0 0 0-1.492-3.672c-.774-1.105-1.762-2.031-2.954-2.793q-1.776-1.159-4.035-1.738a19 19 0 0 0-4.695-.582q-2.572.001-4.89.664c-1.532.441-2.887 1.098-4.063 1.96a9.5 9.5 0 0 0-2.79 3.235q-1.024 1.937-1.023 4.446.001 3.293 1.66 5.304 1.678 1.986 4.2 3.317a36 36 0 0 0 5.496 2.293 43 43 0 0 1 5.496 2.152c1.695.797 3.094 1.77 4.2 2.93 1.12 1.144 1.687 2.672 1.687 4.586 0 2.43-.887 4.199-2.653 5.304q-2.653 1.658-7.047 1.657-3.51-.001-5.632-.91-2.104-.914-3.235-2.184-1.106-1.294-1.492-2.653c-.262-.918-.406-1.691-.441-2.32Zm0 0"/></g></g><g clip-path="url(#y)"><g clip-path="url(#z)"><path fill="#d8ded2" d="M876.664 529.203q.105 2.405 1.242 4.363 1.13 1.94 3.094 3.317c1.328.906 2.883 1.601 4.672 2.097q2.673.748 5.855.747c2.157 0 4.09-.262 5.801-.774 1.727-.508 3.203-1.25 4.422-2.207 1.227-.976 2.18-2.144 2.844-3.512.676-1.379 1.023-2.906 1.023-4.586q-.001-3.445-1.742-5.632-1.718-2.208-4.309-3.676a30 30 0 0 0-5.636-2.485 78 78 0 0 1-5.606-2.128c-1.734-.73-3.18-1.582-4.34-2.54-1.144-.976-1.71-2.265-1.71-3.87q-.002-1.325.578-2.485a5.86 5.86 0 0 1 1.742-2.043c.754-.566 1.683-1.031 2.789-1.383q1.68-.55 3.867-.55c2.41 0 4.457.515 6.133 1.546q2.538 1.524 2.984 4.805h3.785a8.7 8.7 0 0 0-1.492-3.672c-.773-1.105-1.762-2.031-2.957-2.793-1.18-.773-2.527-1.351-4.031-1.738a19 19 0 0 0-4.7-.582q-2.566.001-4.886.664c-1.535.441-2.887 1.098-4.063 1.96a9.5 9.5 0 0 0-2.789 3.235q-1.024 1.937-1.023 4.446.001 3.293 1.66 5.304c1.117 1.324 2.52 2.43 4.195 3.317a36 36 0 0 0 5.5 2.293 43 43 0 0 1 5.496 2.152c1.692.797 3.094 1.77 4.2 2.93 1.117 1.144 1.683 2.672 1.683 4.586q0 3.646-2.648 5.304-2.653 1.658-7.047 1.657-3.511-.001-5.633-.91-2.103-.914-3.234-2.184-1.107-1.294-1.492-2.653-.391-1.377-.442-2.32Zm0 0"/></g></g><g clip-path="url(#A)"><g clip-path="url(#B)"><path fill="#d8ded2" d="M918.324 500.086v38.98h5.055v-38.98Zm0 0"/></g></g><g clip-path="url(#C)"><g clip-path="url(#D)"><path fill="#d8ded2" d="M971.766 531.883c-3.778 3.554-8.274 5.332-13.48 5.332-2.895 0-5.458-.496-7.68-1.492-2.231-.996-4.09-2.328-5.583-4.008-1.476-1.668-2.593-3.602-3.367-5.8-.761-2.188-1.133-4.474-1.133-6.849 0-2.523.391-4.836 1.188-6.937.809-2.098 1.934-3.899 3.371-5.414a15.4 15.4 0 0 1 5.164-3.563q2.982-1.296 6.492-1.297c1.602 0 3.051.192 4.364.579 1.328.375 2.496.851 3.507 1.437 1.032.594 1.868 1.27 2.516 2.043.64.762 1.09 1.52 1.355 2.293h4.141q-.856-1.875-2.152-3.48c-.871-1.082-1.957-2.016-3.262-2.79-1.312-.789-2.836-1.41-4.586-1.851q-2.603-.663-5.937-.664c-3.227 0-6.176.465-8.84 1.383-2.653.925-4.934 2.25-6.824 3.976-1.88 1.735-3.344 3.813-4.395 6.246-1.035 2.43-1.547 5.149-1.547 8.149q.002 3.894 1.246 7.625a18.6 18.6 0 0 0 3.867 6.574c1.746 1.898 3.977 3.438 6.684 4.613q4.062 1.74 9.695 1.739c2.38 0 4.504-.22 6.383-.66 1.879-.446 3.508-.981 4.89-1.633q2.092-.99 3.481-2.098 1.406-1.1 2.125-1.961Zm0 0"/></g></g><g clip-path="url(#E)"><g clip-path="url(#F)"><path fill="#d8ded2" d="M602.508 577.871c2.148 0 3.398-1.285 3.398-3.172 0-1.406-1.035-2.691-2.285-2.886 1.07-.227 2.059-1.215 2.059-2.692 0-1.762-1.25-3-3.297-3h-5.227v11.75Zm-3.887-10.441h3.516c1.324 0 2.027.84 2.027 1.898 0 1.078-.703 1.883-2.027 1.883h-3.516Zm0 5.09h3.59c1.445 0 2.184.953 2.184 2.023 0 1.25-.81 2.023-2.184 2.023h-3.59Zm0 0"/></g></g><g clip-path="url(#G)"><g clip-path="url(#H)"><path fill="#d8ded2" d="M613.504 573.313c0 2.886 1.601 4.773 4.785 4.773 3.191 0 4.793-1.875 4.793-4.793v-7.172h-1.465v7.156c0 2.149-1.16 3.5-3.328 3.5-2.16 0-3.32-1.351-3.32-3.5v-7.156h-1.465Zm0 0"/></g></g><g clip-path="url(#I)"><g clip-path="url(#J)"><path fill="#d8ded2" d="M632.566 577.871v-11.75h-1.464v11.75Zm0 0"/></g></g><g clip-path="url(#K)"><g clip-path="url(#L)"><path fill="#d8ded2" d="M647.512 577.871v-1.305h-5.457v-10.445h-1.465v11.75Zm0 0"/></g></g><g clip-path="url(#M)"><g clip-path="url(#N)"><path fill="#d8ded2" d="M658.855 577.871c3.649 0 6.024-2.523 6.024-5.863 0-3.328-2.375-5.887-6.024-5.887h-4.011v11.75Zm-2.546-10.441h2.546c2.91 0 4.512 2.043 4.512 4.578 0 2.52-1.656 4.558-4.512 4.558h-2.546Zm0 0"/></g></g><g clip-path="url(#O)"><g clip-path="url(#P)"><path fill="#d8ded2" d="M673.906 577.871v-11.75h-1.465v11.75Zm0 0"/></g></g><g clip-path="url(#Q)"><g clip-path="url(#R)"><path fill="#d8ded2" d="M691.648 577.871v-11.75h-1.457v9.285l-6.761-9.285h-1.5v11.75h1.465v-9.476l6.843 9.476Zm0 0"/></g></g><g clip-path="url(#S)"><g clip-path="url(#T)"><path fill="#d8ded2" d="M699.191 572.008c0 3.644 2.696 6.09 6.043 6.09 1.922 0 3.524-.809 4.614-2.024v-4.246h-5.496v1.305h4.03v2.394c-.577.582-1.737 1.266-3.148 1.266-2.574 0-4.53-2.004-4.53-4.785 0-2.797 1.956-4.774 4.53-4.774 1.41 0 2.66.672 3.399 1.625l1.16-.726c-1.035-1.285-2.488-2.203-4.559-2.203-3.347 0-6.043 2.43-6.043 6.078m0 0"/></g></g><g clip-path="url(#U)"><g clip-path="url(#V)"><path fill="#d8ded2" d="M738.816 577.871v-11.75h-2.101l-3.66 8.953-3.645-8.953h-2.094v11.75h1.465v-9.773l3.977 9.773h.594l4-9.773v9.773Zm0 0"/></g></g><g clip-path="url(#W)"><g clip-path="url(#X)"><path fill="#d8ded2" d="m756.887 577.871-4.739-11.75h-1.816l-4.715 11.75h1.621l1.035-2.605h5.954l1.039 2.605Zm-3.102-3.91h-5.09l2.555-6.531Zm0 0"/></g></g><g clip-path="url(#Y)"><g clip-path="url(#Z)"><path fill="#d8ded2" d="M768.055 577.871V567.43h3.734v-1.309h-8.906v1.309h3.715v10.441Zm0 0"/></g></g><g clip-path="url(#aa)"><g clip-path="url(#ab)"><path fill="#d8ded2" d="M786.695 577.871v-1.305h-6.23v-4.046h6.105v-1.31h-6.105v-3.78h6.23v-1.309H779v11.75Zm0 0"/></g></g><g clip-path="url(#ac)"><g clip-path="url(#ad)"><path fill="#d8ded2" d="m802.816 577.871-3.171-4.793c1.601-.14 3.046-1.3 3.046-3.414 0-2.168-1.535-3.543-3.68-3.543h-4.718v11.75h1.465v-4.668h2.34l2.992 4.668Zm-1.636-8.207c0 1.32-.953 2.254-2.344 2.254h-3.078v-4.488h3.078c1.39 0 2.344.918 2.344 2.234m0 0"/></g></g><g clip-path="url(#ae)"><g clip-path="url(#af)"><path fill="#d8ded2" d="M811.734 577.871v-11.75h-1.46v11.75Zm0 0"/></g></g><g clip-path="url(#ag)"><g clip-path="url(#ah)"><path fill="#d8ded2" d="m829.816 577.871-4.738-11.75h-1.816l-4.719 11.75h1.625l1.035-2.605h5.953l1.035 2.605Zm-3.101-3.91h-5.09l2.555-6.531Zm0 0"/></g></g><g clip-path="url(#ai)"><g clip-path="url(#aj)"><path fill="#d8ded2" d="M843.54 577.871v-1.305h-5.458v-10.445h-1.465v11.75Zm0 0"/></g></g><g clip-path="url(#ak)"><g clip-path="url(#al)"><path fill="none" stroke="#d8ded2" stroke-width="2.652" d="M527.469 477.281h119.133"/></g></g><g clip-path="url(#am)"><g clip-path="url(#an)"><path fill="none" stroke="#d8ded2" stroke-width="2.652" d="M527.469 572.566h58.234"/></g></g><g clip-path="url(#ao)"><g clip-path="url(#ap)"><path fill="none" stroke="#d8ded2" stroke-width="2.652" d="M849.93 572.566h58.234"/></g></g><g clip-path="url(#aq)"><g clip-path="url(#ar)"><path fill="none" stroke="#d8ded2" stroke-width="2.652" d="m796.605 477.281 111.56-.336"/></g></g></svg>