<svg xmlns="http://www.w3.org/2000/svg" width="500" height="500" viewBox="0 0 375 375"><defs><clipPath id="a"><path d="M96.426 115.234h182.25v69H96.426Zm0 0"/></clipPath><clipPath id="b"><path d="M226.43 154.172h34.5v28.5h-34.5Zm0 0"/></clipPath><clipPath id="c"><path d="M0 0h251v41H0z"/></clipPath></defs><g clip-path="url(#a)"><path fill="#b48e2e" d="m130.105 121.102-29.558 29.554v33.528h-4.121v-35.235l11.039-11.047v-14.617h6.246v8.375l16.394-16.39 36.696 36.703h-5.832Zm-23.78 61.156V153.05l23.78-23.781 22.704 22.703h2.722l-25.426-25.426-25.707 25.707v31.934H278.57v-1.926H106.324Zm0 0"/></g><g clip-path="url(#b)"><path fill="#282828" fill-rule="evenodd" d="M246.438 180.637c0 .297-.008.593-.008.894 0 .371-.051.426-.422.457h-.086q-.281-.007-.563-.008h-6.156c-.308 0-.406-.097-.406-.414q-.001-.448.004-.898c.004-.34.097-.434.433-.434.446 0 .891-.011 1.336 0 .172.008.192-.062.2-.207.011-.175-.083-.152-.188-.152-1.184-.004-2.367-.012-3.547-.004-.246 0-.41-.07-.527-.289-.102-.187-.235-.36-.344-.543-.05-.09-.11-.125-.21-.125q-1.172.011-2.34.004c-.134-.004-.188.035-.16.168.019.117-.083.285.171.273.406-.02.809-.004 1.21 0 .306 0 .388.07.435.36.09.547.09.547.628.547q.832.002 1.668.004c.348.003.461.113.477.457.012.285.016.57.027.855.008.129.004.254-.117.336-.094.062-.008.11.016.152.12.192.25.38.39.594h-.914c-.105 0-.14-.07-.172-.148q-.139-.258-.273-.516a.3.3 0 0 0-.047.027c.09.188.184.375.274.567-.02.086-.082.09-.157.09-.136 0-.273-.043-.414-.004-.289.082-.347-.14-.426-.332-.05-.13-.085-.262-.203-.356.02.13.067.246.133.356l.012.058c.016.082.121.211.047.235-.121.043-.281.093-.399-.043q-.119-.305-.238-.61-.03.017-.059.028l.223.593c-.008.032-.008.067-.059.067a13 13 0 0 0-.68 0c-.07 0-.093-.031-.116-.09q-.066-.152-.133-.297l-.035-.09q-.028-.058-.055-.117c-.012-.027-.004-.09-.059-.062-.035.02.008.062.02.097l.047.121q.013.047.031.086c.031.113.066.223.102.348-.239 0-.461-.008-.68.004-.121.004-.172-.031-.207-.145-.035-.11-.047-.238-.172-.336-.012.14.059.23.09.328.039.13.004.165-.117.149-.082-.008-.168.023-.243-.031q-.099-.311-.199-.618c.012.13.055.25.086.375.024.09.102.18.028.282-.153-.04-.352.066-.45-.047-.093-.11-.093-.297-.136-.45q-.025-.074-.055-.156c-.012-.007-.04-.023-.043-.02-.02.02-.012.044.004.067q.034.225.062.45c.008.035.024.09.008.101-.137.11-.297.02-.45.047-.077.012-.108-.024-.108-.106q-.014-.264-.028-.535h-.058c0 .168-.008.336.004.504.007.18-.11.133-.208.137-.109.008-.171-.016-.152-.145.016-.086.012-.175.02-.304-.106.101-.102.195-.106.273-.008.149-.074.176-.21.176-.387-.008-.387 0-.305-.367q.01-.075.023-.145c0-.004-.008-.012-.039-.05-.05.156-.106.285-.137.421-.027.114-.078.145-.187.137-.215-.008-.43 0-.653 0 .032-.234.141-.438.192-.66-.078-.016-.098.027-.113.074q-.049.147-.102.293c-.113.32-.113.32-.473.27.024-.083.043-.16.067-.239q.006-.022.011-.05c.059-.11.118-.22.098-.36q-.07.157-.133.309c-.008.023-.02.047-.027.066-.066.254-.23.34-.48.297a1.3 1.3 0 0 0-.329.004c-.129.016-.136-.043-.101-.137.008-.035.054-.082.012-.105-.055-.035-.051.035-.067.062-.074.156-.254.238-.394.176-.106-.05.007-.117-.008-.176q.04-.106.082-.207a1 1 0 0 1 .031-.086q.016-.046.031-.094c.032-.027.059-.07.016-.093-.027-.016-.047.031-.059.062q-.018.046-.03.086l-.036.09a3 3 0 0 0-.09.203c-.047.18-.152.246-.344.223-.164-.024-.332-.012-.5-.004-.097.004-.101-.04-.074-.11q.122-.27.238-.539c-.011-.007-.027-.011-.039-.02-.086.185-.168.368-.254.552-.039.078-.086.144-.191.12-.191-.038-.383 0-.574 0-.133 0-.145-.038-.082-.14.066-.11.117-.222.18-.328.081-.133.187-.258.011-.398-.031-.028-.023-.106-.023-.16l.011-.962c.008-.289.133-.417.426-.417.75-.004 1.504-.008 2.254.003.14 0 .195-.043.223-.171.031-.157.082-.309.117-.465q.064-.286.355-.278c.07 0 .141-.007.211 0 .149.02.207-.015.215-.191.008-.219-.058-.262-.262-.25-.355.02-.71.004-1.066.004-.46-.004-.726-.262-.726-.719q.001-1.161.003-2.316c.004-.16.02-.309.153-.414.039-.032.039-.07.047-.11.097-.629.183-1.261.297-1.886.148-.844.316-1.688.48-2.532.07-.375.137-.75.227-1.12.234-1.009 1.043-1.716 2.074-1.837q3.714-.442 7.43-.883c.464-.054.925-.117 1.386-.167.106-.012.156-.06.2-.149.152-.36.316-.71.464-1.07.086-.196.211-.305.434-.328.422-.043.84-.114 1.262-.16.117-.016.18-.032.18-.184-.009-.598.003-.606.597-.606h2.71c.321 0 .423.102.427.426.004.356.004.356.367.356q.656.007 1.312.004c.215-.004.36.078.453.27.016.03.036.058.047.089.118.3.243.484.653.394a.83.83 0 0 1 .941.426c.043.082.082.047.129.028a3.8 3.8 0 0 1 1.047-.27c.082-.012.12-.039.156-.11 1.527-3.136 3.063-6.273 4.594-9.41.004-.011 0-.027 0-.058-.215.055-.418.105-.625.16-.422.11-.809-.11-.906-.512-.106-.441.132-.836.57-.933 1.117-.254 2.234-.5 3.348-.77.449-.11.878-.281 1.343-.347.692-.098 1.086.351.973 1.035-.055.332-.09.656-.215.972-.371.957-1.047 1.606-1.988 1.989q-.574.226-1.164.39c-.086.024-.156.051-.203.149-1.297 2.656-2.594 5.312-3.899 7.969-.07.144-.066.242.012.39.25.457.344.965.375 1.48.066 1.106-.07 2.18-.531 3.2-.172.383-.387.738-.711 1.015a1.5 1.5 0 0 1-.621.329c-.137.03-.11.109-.114.199-.004.117.075.11.153.117q.11.012.226.035c.551.094.774.383.727.945a5 5 0 0 1-.059.41c-.086.532-.39.883-.886 1.063-.141.055-.168.121-.168.258.007.77.003 1.543.003 2.312 0 .512-.167.942-.578 1.258-.117.09-.054.192-.047.285.008.114.11.036.168.047.04.008.082-.004.125 0 .504.004.555.043.707.52.016.047.012.113.086.137.04-.13.016-.262.02-.391.008-.274.11-.383.375-.387.5 0 1 0 1.5.004.242.004.351.121.355.367v.27c.004.176-.054.379.262.344.137-.012.227.132.227.277q.012.408.004.816-.012.322-.375.317-1.442-.001-2.88-.008c-.292 0-.585-.008-.878.004-.215.008-.36-.074-.434-.297a2.6 2.6 0 0 1-1.156.64 2.507 2.507 0 0 1-3.047-1.867q-.02-.07-.039-.14c-.012-.223-.04-.446 0-.664.016-.086-.02-.11-.102-.106q-.562.005-1.125.004c-.18-.004-.093.129-.105.207-.016.082-.02.16.117.152.235-.007.473 0 .707 0 .336.004.41.07.446.407m-17.583 1.718q.077-.174.153-.343c-.133.062-.145.187-.188.293-.011.03-.047.062-.007.086.027.02.042-.008.042-.036m10.282-6.976v-.004c2.48 0 4.965-.004 7.445.004a.41.41 0 0 0 .34-.152c.695-.782 1.398-1.551 2.09-2.332a.77.77 0 0 1 .492-.27c.621-.09 1.234-.195 1.855-.29.114-.015.149-.046.149-.163-.004-1.125.008-2.254-.004-3.379-.008-.606-.395-1.066-.977-1.227a2.3 2.3 0 0 0-.558-.058c-.809 0-1.614.004-2.422-.004a.36.36 0 0 0-.313.152 393 393 0 0 1-2.007 2.453c-.079.102-.157.18-.301.188-2.16.144-4.317.297-6.473.441-2.02.137-4.039.266-6.058.395-.13.008-.188.039-.211.183a448 448 0 0 1-.688 3.88c-.027.144-.016.187.149.187 2.496-.008 4.992-.004 7.492-.004m12.355-2.453q-.936.16-1.87.308a.3.3 0 0 0-.192.106c-.676.758-1.364 1.504-2.024 2.273a.96.96 0 0 1-.804.371c-5.055-.007-10.11-.004-15.165-.007-.167 0-.19.054-.19.199.007.644.01 1.293 0 1.937 0 .176.062.2.21.2 2.246-.004 4.492.003 6.738.003.157 0 .282.043.395.157.226.23.465.457.695.687a.31.31 0 0 0 .254.102c2.172-.004 4.34-.008 6.512.004.242 0 .351-.07.465-.286.492-.933 1.261-1.5 2.328-1.554 1.09-.055 1.91.437 2.476 1.36.024.038.028.1.098.093.105-.262.168-5.149.074-5.953m-19.199-2.227c1.594-.101 3.164-.195 4.73-.3 2.567-.172 5.133-.356 7.7-.528a.3.3 0 0 0 .242-.125c.387-.484.777-.96 1.172-1.441.207-.254.418-.508.652-.797h-.219q-2.834-.007-5.675-.008c-.055 0-.11 0-.165.008-2.097.258-4.19.527-6.292.773-.903.106-1.543.535-1.91 1.367-.145.329-.176.684-.235 1.051m19.805-2.16c.054-.11.09-.172.12-.238.567-1.149 1.134-2.293 1.692-3.438a2131 2131 0 0 0 4.387-9.027c.129-.266.265-.457.574-.484.059-.008.149.007.125-.114-.027-.125-.094-.086-.172-.066l-3.125.715c-.086.02-.215.015-.18.164.036.152.149.094.235.07q.61-.14 1.215-.297c.133-.035.23.004.316.098q.128.148.05.332c-.015.043-.038.086-.058.129l-3.293 6.738c-.718 1.469-1.441 2.941-2.16 4.41-.035.067-.101.13-.035.227.156.219.23.472.309.781m-3.086 9.75c-1.051-.008-1.903.848-1.914 1.93a1.873 1.873 0 0 0 1.851 1.886c1.063.012 1.914-.84 1.918-1.917.004-1.06-.808-1.891-1.855-1.899m-3.121-11.39q1.43 0 2.855.003c.137 0 .18-.02.106-.156q-.204-.388-.391-.781c-.047-.102-.106-.137-.219-.137q-2.449 0-4.898-.012c-.114 0-.16.032-.184.141a9 9 0 0 1-.215.762c-.05.148-.027.183.133.18.938-.004 1.875 0 2.813 0m-13.555 14.48h4.898c.036 0 .07-.004.106 0 .082.008.113-.024.105-.106-.004-.07-.007-.14 0-.21.02-.149-.039-.18-.183-.18-3.246.004-6.496.004-9.742.004-.047 0-.098.004-.145 0-.094-.012-.125.027-.117.117.004.062.012.129-.004.187-.04.164.023.192.18.192q2.447-.005 4.902-.004m-2.211-6q.135.001.27-.004c.199 0 .453.07.59-.023.148-.106.1-.383.14-.586.207-1.137.406-2.282.613-3.422.024-.125.012-.168-.133-.156-.511.046-1.027.078-1.539.113-.097.004-.148.031-.168.137q-.08.451-.183.898c-.035.133.023.129.12.125l.688-.012c.313-.004.45.14.41.453q-.101.755-.214 1.504c-.031.192-.153.293-.344.297-.187.008-.375.004-.562.008-.528.008-.528.008-.583.531v.02c-.023.09.004.12.102.117.262-.004.527 0 .793 0m.805 1.773h-.008c0-.336-.008-.668 0-1.004.004-.136-.035-.175-.172-.171-.527.015-1.059.02-1.586.015-.144-.004-.168.047-.164.176.004.66.008 1.32.004 1.98 0 .13.039.165.164.165q.816-.006 1.625 0c.11 0 .14-.028.137-.141-.008-.34 0-.68 0-1.02m1.879-8.664c-.5.063-1.004.04-1.477.211-.59.215-.98.621-1.137 1.235-.066.261-.11.53-.164.796-.02.09-.02.137.106.125a70 70 0 0 1 1.558-.109c.114-.008.149-.047.168-.156.055-.344.094-.692.219-1.02.156-.414.41-.761.727-1.082m9.816 12.356v-.004H241.5c-.64 0-1.277.004-1.918 0-.133-.004-.195.031-.172.172a.5.5 0 0 1 .004.144c-.031.172.024.23.215.227 1.945-.008 3.89-.004 5.836-.004.363 0 .355.004.363-.352.008-.172-.058-.187-.203-.187-1 .008-2 .004-3 .004m10.645-13.281c-.262.53-.497 1.019-.743 1.5-.054.109.016.148.07.203.59.601.4 1.593-.374 1.925-.094.04-.121.079-.121.18.007.316.011.637.003.957-.003.164.055.156.165.09.316-.184.5-.477.66-.79.312-.612.468-1.276.535-1.956.066-.695.043-1.383-.195-2.11m4.75-9.723c1.152-.309 2.054-.867 2.43-2.067-.052.012-.083.02-.114.024-.297.05-.582.183-.895.039-.105-.05-.511.129-.554.21-.285.59-.57 1.184-.867 1.794m-25.575 22.133c-.703 0-1.406.007-2.11-.004-.187-.004-.179.133-.183.23-.007.125.114.063.172.063 1.203.004 2.403.004 3.606.008.23 0 .46-.004.687.003.11 0 .121-.03.106-.132-.02-.141-.078-.172-.215-.168-.688.007-1.375 0-2.063 0m10.508.257v-.003c.48 0 .957-.008 1.438.003.156.004.16-.058.164-.18 0-.116-.004-.183-.16-.183-.95.008-1.903.004-2.856-.004-.133 0-.18.032-.168.172.008.117-.008.207.164.2.473-.012.945-.005 1.418-.005m-.23-14.375c-.328.043-.63.09-.934.125-.074.008-.101.051-.129.11q-.146.346-.305.687c-.039.082-.039.121.075.121.297-.007.597-.003.898 0 .082.004.117-.023.14-.109.075-.3.165-.601.255-.934m-10.786 13.497v-.004c.25 0 .504-.012.75.004.208.011.133-.13.133-.22.004-.097.063-.222-.136-.218-.446.012-.891.004-1.332.004-.29 0-.278.004-.29.281-.003.14.051.156.168.153.239-.008.473 0 .708 0m21.09 2.328v.007h1.52c.066 0 .156.036.152-.097-.004-.117-.082-.09-.144-.09h-3.059c-.059 0-.144-.04-.148.086 0 .133.093.094.16.094.504.004 1.012 0 1.52 0m-8.148-16.457v-.004q.562.001 1.125-.004c.062 0 .148.035.144-.086-.003-.102-.078-.074-.136-.074a416 416 0 0 0-2.211-.008c-.059 0-.145-.035-.145.086-.004.137.094.086.16.086q.528.005 1.063.004m7.223 10.035c.39-.153.457-.465.492-.793.031-.352 0-.38-.344-.414-.117-.012-.152.02-.148.14.007.344 0 .692 0 1.067m-15.313 3.66c.125.137.14.328.29.336.464.016.929.004 1.456.004-.191-.121-.25-.328-.433-.336-.422-.016-.84-.004-1.313-.004m16.895 1.96v.005c.132 0 .265-.008.394.004.121.008.125-.067.11-.145-.016-.074.082-.215-.09-.219-.278-.007-.551-.003-.828-.003-.047 0-.07.015-.083.066-.05.223.004.297.227.293zm6.898-25.905c-.008-.157-.059-.22-.2-.188-.21.043-.421.078-.632.117-.098.016-.207.024-.172.168.031.13.086.239.254.196.203-.051.402-.098.606-.149.09-.02.152-.066.144-.144m-30.414 18.836h-.836c-.168 0-.098.132-.117.21-.031.126.07.067.117.07.18 0 .363-.023.54-.003.214.023.327-.04.296-.277m-.336-.73v.007h-.394c-.16 0-.102.133-.125.21-.024.11.062.083.12.083.22 0 .442-.02.665-.004.172.012.168-.094.175-.207.012-.164-.109-.074-.171-.086-.09-.012-.18-.004-.27-.004m20.023-6.204c.016-.012.16.102.153-.086-.012-.203-.16-.215-.309-.215-.082-.004-.226-.008-.21.094.023.148.113.289.366.207m2.38 2.887c-.157.226-.173.324-.114.75q.37-.3.113-.75m-1.344-2.723c.14.04.261.184.37.164.114-.016.137-.21.2-.328.004-.004-.004-.012-.012-.031-.187.039-.375.097-.558.195m.828 13.781c-.004.028.02.078.117.063.05-.004.105-.004.086-.078-.02-.067-.016-.157-.129-.157-.09 0-.066.063-.074.172m-19.942 1.172c.008.098-.047.16.02.266.012-.102.039-.164-.02-.266m-.55.078c.015-.039-.004-.047-.024-.054-.004 0-.02.023-.02.03 0 .02.008.036.012.052zm0 0"/></g><path fill="#282828" fill-rule="evenodd" d="M250.133 180.191c0 .637-.516 1.153-1.153 1.153a1.13 1.13 0 0 1-1.132-1.14c0-.638.515-1.165 1.14-1.165a1.13 1.13 0 0 1 1.145 1.152m-.617.004a.537.537 0 0 0-.508-.55.543.543 0 0 0-.547.535.51.51 0 0 0 .508.543.523.523 0 0 0 .547-.528m0 0"/><g fill="#444142" clip-path="url(#c)" transform="translate(63 197)"><path d="M12.807 32.252q-3.11-.002-5.782-.86-2.672-.872-4.203-2.015l-.156-6.062.516-.079a15 15 0 0 0 2.328 4.141 10.9 10.9 0 0 0 3.562 2.938q2.11 1.094 4.782 1.093a6 6 0 0 0 2.625-.578 5 5 0 0 0 1.984-1.719c.508-.757.766-1.691.766-2.796q0-1.499-.844-2.61c-.563-.738-1.29-1.383-2.172-1.937a20 20 0 0 0-2.766-1.453q-1.453-.639-2.656-1.125a72 72 0 0 1-3.812-1.766q-1.737-.89-2.782-2.281-1.048-1.407-1.047-3.75-.002-3.763 2.797-5.938 2.811-2.186 7.578-2.187 2.262 0 4.22.453c1.312.293 2.491.71 3.546 1.25l.172 5.25-.453.156q-1.254-3.106-3.656-4.766a9.26 9.26 0 0 0-5.36-1.656c-1.617 0-2.984.453-4.11 1.36Q6.212 6.66 6.214 9.049q0 1.331.672 2.328.668.985 1.781 1.719 1.108.72 2.375 1.265 1.278.551 2.484 1.032 1.548.61 3.141 1.297 1.593.689 2.922 1.625c.894.617 1.61 1.355 2.14 2.218.54.856.813 1.89.813 3.11q0 2.063-.844 3.687a8.1 8.1 0 0 1-2.265 2.703 10.6 10.6 0 0 1-3.157 1.657 11.2 11.2 0 0 1-3.468.562M26.86 31.846v-.563q1.013-.328 1.312-1.36.312-1.029.313-3.218v-9.297q0-1.764-.422-2.328-.423-.576-1.203-.906v-.563l5.343-2.343.407.328v15.11c0 1.46.097 2.53.297 3.218q.31 1.03 1.312 1.36v.562Zm.687-24.703q0-1.173.813-1.97c.539-.538 1.187-.812 1.937-.812.813 0 1.473.274 1.985.813.507.531.765 1.187.765 1.969q0 1.143-.797 1.953-.783.797-1.953.797-1.127 0-1.937-.797a2.65 2.65 0 0 1-.813-1.953M49.67 31.846v-.563q.997-.326.5-1.11a130 130 0 0 0-1.719-2.608l-3.11-4.735-3.562 4.89a31 31 0 0 0-1.28 1.891q-.424.705-.079 1.063.34.363 1.719.61v.562H36.81v-.563q.889-.328 1.89-1.078 1.013-.75 2.313-2.484l3.953-5.422-4.203-6.375q-1.206-1.828-2.125-2.625c-.606-.54-1.133-.906-1.594-1.094v-.578h7.078v.578c-.68.211-.851.578-.516 1.11q.516.782 1.735 2.609l2.469 3.75 2.703-3.828q.843-1.219 1.218-1.922c.258-.477.282-.848.063-1.11q-.316-.404-1.734-.609v-.578h5.296v.578q-.89.282-1.875 1.078c-.656.524-1.406 1.375-2.25 2.563l-3.062 4.406 4.812 7.313q1.2 1.814 2.125 2.609c.625.523 1.157.89 1.594 1.11v.562ZM65.943 32.252q-2.062 0-3.141-1.406c-.711-.945-1.063-2.516-1.063-4.703v-13.86h-2.578v-.656L65.224 6.3h.64v5.328h6.266l-.156.656h-6.11V26.19q-.002 1.862.688 2.734.685.86 2.031.86.67 0 1.625-.376.95-.386 1.969-1.64l.406.406c-1.086 1.242-2.156 2.23-3.219 2.969q-1.593 1.108-3.421 1.11M76.331 39.643c-.836.03-1.53-.078-2.093-.328-.57-.243-.86-.559-.86-.954q.002-.409.344-1 .345-.58 1.031-1.062.686-.485 1.625-.484.89-.002 2.406.218 1.513.219 3.094.5.716-.814 1.438-1.968.733-1.144 1.39-2.516L77.91 16.36c-.562-1.343-1.117-2.316-1.656-2.921q-.815-.92-1.5-1.235v-.578h7.156v.578c-.68.211-.921.61-.734 1.203.195.594.594 1.57 1.188 2.922l4.609 10.5 4.516-10.469q.856-2.014.734-2.968c-.086-.633-.477-1.032-1.172-1.188v-.578h4.61v.578q-.892.315-1.766 1.203-.86.893-1.75 2.922l-6.188 14.297c-1.023 2.344-2.03 4.164-3.03 5.469q-1.502 1.967-3.126 2.734-1.61.78-3.469.813M120.632 32.174 101.679 8.236v16.047c0 1.649.101 2.946.312 3.89.22.938.555 1.638 1.016 2.095q.686.689 1.734 1.015v.563h-5.406v-.563q.997-.328 1.297-1.36.312-1.029.313-3.218V8.69q-.001-2.187-.407-3.22-.41-1.03-1.687-1.359V3.55h4.562l16.97 21.266V11.11q0-2.467-.33-3.875-.314-1.418-1-2.109-.69-.686-1.733-1.016V3.55h5.453v.562q-1.02.329-1.313 1.36-.298 1.032-.297 3.219v23.484ZM137.152 32.252a9.9 9.9 0 0 1-3.375-.61 10 10 0 0 1-3.093-1.812c-.938-.812-1.696-1.82-2.266-3.031-.562-1.219-.844-2.648-.844-4.297q-.001-2.579.907-4.64.919-2.063 2.453-3.516a10.9 10.9 0 0 1 3.406-2.219q1.887-.78 3.875-.781 2.73.002 4.594 1.094 1.875 1.096 2.812 2.75.951 1.657.953 3.437h-15.312q-.048.329-.078.656-.017.315-.016.64 0 2.625 1.031 4.688 1.032 2.064 2.907 3.22 1.887 1.14 4.437 1.14 2.264 0 4-.89a10.4 10.4 0 0 0 3-2.298l.36.407q-.94 1.406-2.313 2.812a12.3 12.3 0 0 1-3.234 2.328c-1.243.613-2.641.922-4.204.922m-5.859-14.187h11.203a8.4 8.4 0 0 0-1.047-3.016q-.784-1.36-1.937-2.156a4.34 4.34 0 0 0-2.563-.813q-1.687-.045-2.859.813c-.781.562-1.402 1.304-1.86 2.218a10 10 0 0 0-.937 2.954M151.86 16.565c-.399-1.395-.766-2.422-1.11-3.079-.336-.664-.726-1.093-1.187-1.28v-.579h6.906v.578c-.668.211-.969.64-.906 1.297.07.649.297 1.668.672 3.063l3.062 10.828 5.422-15.766h2.469l5.328 15.61 3.203-10.672q.607-2.091.312-3.11-.282-1.015-1.328-1.25v-.578h4.328v.578q-.89.284-1.453 1.281-.562.986-1.172 3.079l-4.609 15.28h-2.062l-5.625-16.53-5.735 16.53h-2.062ZM188.395 32.252q-2.063 0-3.14-1.406c-.711-.945-1.063-2.516-1.063-4.703v-13.86h-2.578v-.656l6.062-5.328h.641v5.328h6.266l-.157.656h-6.109V26.19q-.002 1.862.688 2.734.684.86 2.03.86.67 0 1.626-.376.95-.386 1.969-1.64l.406.406c-1.086 1.242-2.156 2.23-3.219 2.969q-1.593 1.108-3.422 1.11M209.378 32.252q-1.986-.002-3.907-.578a10.6 10.6 0 0 1-3.484-1.828c-1.031-.82-1.86-1.86-2.484-3.11-.618-1.257-.922-2.75-.922-4.468q0-2.466.89-4.47a10.5 10.5 0 0 1 2.422-3.437 11.3 11.3 0 0 1 3.485-2.218 10.4 10.4 0 0 1 4-.797q1.905.002 3.78.578c1.25.375 2.407.977 3.47 1.797q1.592 1.236 2.547 3.14c.632 1.262.953 2.782.953 4.563 0 1.719-.336 3.258-1 4.61-.657 1.343-1.516 2.476-2.578 3.39a11.8 11.8 0 0 1-3.5 2.11c-1.262.476-2.485.718-3.672.718m-6.75-13.016q0 1.782.515 3.891a16.6 16.6 0 0 0 1.563 3.969q1.029 1.876 2.562 3.078a5.6 5.6 0 0 0 3.516 1.187q1.98.001 3.14-1 1.155-1.012 1.641-2.593c.32-1.051.485-2.145.485-3.282 0-1.289-.211-2.671-.625-4.14a17.3 17.3 0 0 0-1.782-4.14q-1.159-1.934-2.781-3.095-1.612-1.153-3.547-.953-1.734.157-2.765 1.188c-.688.687-1.184 1.555-1.485 2.594a12.1 12.1 0 0 0-.437 3.296M225.048 31.846v-.563q1.013-.328 1.312-1.36.312-1.029.313-3.218v-9.297q0-1.764-.422-2.328-.423-.576-1.203-.906v-.563l5.343-2.343.407.328v3.39a21.7 21.7 0 0 1 3.797-2.5c1.425-.757 2.921-1.14 4.484-1.14q2.793.002 4.516 1.562 1.717 1.564 1.718 5.11v8.687c0 1.461.098 2.531.297 3.219q.293 1.03 1.313 1.36v.562h-7.36v-.563q1.014-.328 1.313-1.36.311-1.029.312-3.218v-7.953q0-2.748-1.156-4.266c-.773-1.007-1.914-1.515-3.422-1.515-.937 0-1.867.23-2.781.687q-1.378.691-3.031 2.016v11.031c0 1.461.097 2.531.297 3.219q.31 1.03 1.312 1.36v.562Zm0 0"/></g><path fill="#b48e2e" d="M92.917 253.847q.528-.028.688-.297c.101-.187.156-.469.156-.844v-6.656l-1.266.016q-.766 0-1.093.515c-.219.336-.328.875-.328 1.625h-.47l.079-2.609h7.219l.078 2.61h-.469q-.017-.781-.156-1.25-.143-.468-.485-.688-.346-.234-.968-.234h-1.063l-.015 6.75q-.001.657-.032.968l1.032-.047v.547h-2.907ZM102.59 253.847q.42-.014.609-.203a.66.66 0 0 0 .203-.438q.03-.245.031-.89v-5.344q0-.515.047-.89l-.89.046v-.531h5.952l.047 2.156h-.406q-.002-1.013-.437-1.375c-.293-.25-.704-.367-1.235-.36l-1.062.032q-.44.018-.64.172a.6.6 0 0 0-.25.422q-.048.282-.048.875v1.984l2.328.016-.093-1.063h.546v2.594h-.406q-.002-.452-.11-.687a.58.58 0 0 0-.343-.328q-.221-.094-.64-.094l-.376.015-.906.047v2.828c0 .43-.012.75-.031.97l2.36-.048q.855 0 1.312-.422.468-.434.469-1.484h.421l-.078 2.406h-6.375ZM118.023 254.456q-1.22-.002-2.187-.578a4.2 4.2 0 0 1-1.5-1.593q-.533-.999-.532-2.22-.001-1.216.485-2.28a4.2 4.2 0 0 1 1.468-1.72q.967-.67 2.344-.671 1.358 0 2.5.75l-.062-.672h.672v2.875h-.438c-.086-.758-.355-1.36-.812-1.797-.461-.437-1.047-.656-1.766-.656a2.8 2.8 0 0 0-1.61.5q-.72.487-1.14 1.39-.422.91-.422 2.094 0 1.127.438 2.032.451.89 1.203 1.39c.508.336 1.066.5 1.672.5a3.7 3.7 0 0 0 1.593-.36c.52-.25.942-.6 1.266-1.062l.328.266q-.72 1.002-1.656 1.406-.924.406-1.844.406M126.221 253.847q.423-.014.61-.203a.66.66 0 0 0 .203-.438q.03-.245.031-.89v-5.344q0-.515.047-.89l-.89.046v-.531h2.78v.406q-.438.017-.624.203a.68.68 0 0 0-.22.438q-.015.252-.015.875v2.062h4.438v-2.609c0-.344.007-.64.03-.89l-.89.046v-.531h2.782v.406q-.439.017-.625.203a.7.7 0 0 0-.204.438q-.016.252-.015.875v5.266q0 .657-.047.968l.89-.047v.547h-2.78v-.406q.432-.014.609-.203a.75.75 0 0 0 .218-.438q.031-.245.032-.89v-2.25l-4.438.047v2.672q-.001.657-.031.968l.89-.047v.547h-2.78ZM140.905 247.238h-.015l.047 5.297q-.001.831-.032 1.218l.891-.047v.547h-2.266v-.406q.498 0 .657-.281c.101-.196.156-.43.156-.703l.015-6.782-.828.047v-.531H141l5.28 7.047h.016v-5.672q0-.515.047-.89l-.89.046v-.531h2.265v.406q-.361.018-.547.14a.6.6 0 0 0-.234.36 3 3 0 0 0-.047.578v.438l-.016 6.937h-.594ZM152.586 253.847q.42-.014.609-.203a.66.66 0 0 0 .203-.438q.03-.245.031-.89v-5.344q0-.515.047-.89l-.89.046v-.531h2.78v.406q-.438.017-.624.203a.68.68 0 0 0-.219.438q-.017.252-.016.875v5.266q0 .657-.03.968l.89-.047v.547h-2.781ZM164.471 254.456q-1.22-.002-2.187-.578a4.2 4.2 0 0 1-1.5-1.593q-.533-.999-.532-2.22-.001-1.216.485-2.28a4.2 4.2 0 0 1 1.468-1.72q.967-.67 2.344-.671 1.359 0 2.5.75l-.062-.672h.672v2.875h-.438c-.086-.758-.355-1.36-.812-1.797-.461-.437-1.047-.656-1.766-.656a2.8 2.8 0 0 0-1.61.5q-.72.487-1.14 1.39-.422.91-.422 2.094 0 1.127.438 2.032.452.89 1.203 1.39c.508.336 1.066.5 1.672.5a3.7 3.7 0 0 0 1.593-.36c.52-.25.942-.6 1.266-1.062l.328.266q-.72 1.002-1.656 1.406-.924.406-1.844.406M171.904 253.847q.311 0 .5-.14a1 1 0 0 0 .297-.376 5 5 0 0 0 .28-.687l.126-.344 2.547-6.937h.297l2.765 7.03q.14.347.235.735c.062.25.086.461.078.625l.843-.047v.547h-2.828v-.406q.734-.013.735-.594-.001-.233-.125-.578l-.438-1.172-3.219.078q-.19.503-.437 1.329a13 13 0 0 1-.297.843l.953-.047v.547h-2.312Zm5.14-2.797-.875-2.36-.562-1.53h-.031l-.516 1.406-.672 1.875-.203.61ZM184.059 253.847q.421-.014.61-.203a.66.66 0 0 0 .202-.438q.031-.245.032-.89v-5.344q0-.515.046-.89l-.89.046v-.531h2.781v.406q-.439.017-.625.203a.68.68 0 0 0-.219.438q-.016.252-.015.875v5.312c0 .43-.012.75-.032.97l2.313-.048q.796.001 1.187-.484.389-.5.391-1.578h.422l-.078 2.562h-6.125ZM204.647 254.456q-.58 0-1.172-.171a3 3 0 0 1-1.031-.47l.063.532h-.641l-.078-2.625h.484q.061 1.066.719 1.64c.445.376 1.016.563 1.703.563q.75.002 1.266-.406.515-.42.515-1.14c0-.352-.101-.657-.297-.907a2.4 2.4 0 0 0-.718-.625 17 17 0 0 0-1.141-.594 12 12 0 0 1-1.328-.687 2.7 2.7 0 0 1-.828-.781q-.344-.499-.344-1.22c0-.32.07-.648.219-.984q.234-.498.797-.843.56-.342 1.484-.344.562 0 1.125.14.563.143 1.031.485l-.047-.531h.625v2.734h-.437q-.064-.983-.625-1.656-.563-.67-1.578-.672-.75 0-1.172.422-.422.409-.422 1.015 0 .503.281.86c.196.242.43.437.703.594q.406.236 1.157.578a13 13 0 0 1 1.343.703c.344.199.633.465.875.797q.36.503.36 1.234c0 .469-.117.883-.344 1.234q-.328.535-.984.829-.659.294-1.563.296M212.417 253.847q.42-.014.609-.203a.66.66 0 0 0 .203-.438q.03-.245.031-.89v-5.344q0-.515.047-.89l-.89.046v-.531h5.953l.047 2.156h-.407q-.002-1.013-.437-1.375c-.293-.25-.703-.367-1.235-.36l-1.062.032q-.44.018-.64.172a.6.6 0 0 0-.25.422q-.048.282-.048.875v1.984l2.329.016-.094-1.063h.547v2.594h-.407q-.002-.452-.109-.687a.58.58 0 0 0-.344-.328q-.221-.094-.64-.094l-.375.015-.907.047v2.828c0 .43-.011.75-.03.97l2.359-.048q.855 0 1.312-.422.47-.434.469-1.484h.422l-.078 2.406h-6.375ZM223.757 253.847q.42-.014.609-.203a.66.66 0 0 0 .203-.438q.03-.245.031-.89v-5.344q0-.515.047-.89l-.89.046v-.531c.851-.02 1.5-.031 1.937-.031.395 0 .691.008.89.015q1.749.017 2.548.579.81.562.812 1.64a2.43 2.43 0 0 1-.5 1.531q-.517.674-1.812.938.215.157.39.39.17.222.469.688l.844 1.328q.262.422.437.656.187.236.438.375.262.141.625.141v.406h-1.547a3.7 3.7 0 0 1-.578-.578 19 19 0 0 1-.532-.797l-.828-1.328-.156-.25a7 7 0 0 0-.36-.547q-.141-.217-.312-.375a2.5 2.5 0 0 1-.344.016q-.346.001-.5-.016v2.407q0 .657-.03.968l.89-.047v.547h-2.781Zm2.468-3.922c1.688 0 2.532-.664 2.532-2q-.001-.938-.547-1.406-.549-.47-1.672-.469-.438.001-.625.172a.68.68 0 0 0-.219.422q-.017.252-.016.875v2.375q.373.033.547.031M235.655 247.8q-.439-1.061-.531-1.687l-.688.015v-.531h2.875v.406l-.015.016q-.41.018-.61.172-.187.159-.187.453-.002.281.172.703l.328.797q.123.316.375.937.246.628.469 1.157l.328.75q.48 1.096.687 1.625h.016l.453-1.313.172-.453 1.078-3.047.297-.797c.156-.445.273-.754.36-.922l-.954.047v-.531h2.5v.406q-.534.018-.828.282c-.2.18-.375.484-.531.921l-2.61 7.172h-.343ZM246.894 253.847q.421-.014.61-.203a.66.66 0 0 0 .203-.438q.03-.245.03-.89v-5.344q0-.515.048-.89l-.89.046v-.531h2.78v.406q-.438.017-.625.203a.68.68 0 0 0-.218.438q-.017.252-.016.875v5.266q-.001.657-.031.968l.89-.047v.547h-2.78ZM258.78 254.456q-1.22-.002-2.188-.578a4.2 4.2 0 0 1-1.5-1.593q-.532-.999-.531-2.22-.001-1.216.484-2.28a4.2 4.2 0 0 1 1.469-1.72q.967-.67 2.344-.671 1.358 0 2.5.75l-.063-.672h.672v2.875h-.437c-.086-.758-.356-1.36-.813-1.797q-.689-.656-1.766-.656a2.8 2.8 0 0 0-1.609.5q-.72.487-1.14 1.39-.422.91-.422 2.094-.001 1.127.437 2.032.452.89 1.203 1.39c.508.336 1.067.5 1.672.5a3.7 3.7 0 0 0 1.594-.36c.52-.25.941-.6 1.265-1.062l.329.266q-.72 1.002-1.657 1.406-.924.406-1.843.406M266.978 253.847q.421-.014.61-.203a.66.66 0 0 0 .202-.438q.031-.245.032-.89v-5.344q0-.515.046-.89l-.89.046v-.531h5.953l.047 2.156h-.406c0-.676-.149-1.133-.438-1.375-.293-.25-.703-.367-1.234-.36l-1.063.032q-.44.018-.64.172a.6.6 0 0 0-.25.422q-.047.282-.047.875v1.984l2.328.016-.094-1.063h.547v2.594h-.406c0-.3-.04-.531-.11-.687a.58.58 0 0 0-.343-.328q-.222-.094-.641-.094l-.375.015-.906.047v2.828c0 .43-.012.75-.032.97l2.36-.048q.855 0 1.312-.422.47-.434.47-1.484h.421l-.078 2.406h-6.375ZM281.208 254.456q-.58 0-1.171-.171a3 3 0 0 1-1.032-.47l.063.532h-.64l-.079-2.625h.484q.061 1.066.72 1.64c.445.376 1.015.563 1.702.563q.75.002 1.266-.406.516-.42.516-1.14c0-.352-.102-.657-.297-.907a2.4 2.4 0 0 0-.719-.625 17 17 0 0 0-1.14-.594 12 12 0 0 1-1.329-.687 2.7 2.7 0 0 1-.828-.781q-.345-.499-.344-1.22c0-.32.07-.648.22-.984q.233-.498.796-.843c.375-.227.867-.344 1.484-.344q.563 0 1.125.14.563.143 1.032.485l-.047-.531h.625v2.734h-.438q-.063-.983-.625-1.656-.563-.67-1.578-.672-.75 0-1.172.422-.422.409-.422 1.015 0 .503.282.86c.195.242.43.437.703.594q.405.236 1.156.578a13 13 0 0 1 1.344.703q.513.299.875.797.359.503.36 1.234c0 .469-.118.883-.345 1.234q-.328.535-.984.829-.659.294-1.563.296m0 0"/></svg>